{"glyphs":{"0":{"ha":489,"x_min":41,"x_max":447,"o":"m 45 178 l 41 756 l 41 806 q 91 906 41 869 q 176 935 130 935 l 325 935 q 420 881 385 935 q 447 803 447 841 l 444 272 l 443 126 q 402 24 443 55 q 323 0 372 0 l 160 0 q 68 50 99 0 q 45 138 45 87 l 45 178 m 172 239 l 315 243 q 377 258 358 243 q 396 309 396 274 l 396 625 q 311 707 396 707 q 180 704 233 704 q 113 675 137 704 q 92 616 92 652 l 92 583 l 93 350 l 93 310 q 172 239 93 239 z "},"1":{"ha":415,"x_min":33,"x_max":387,"o":"m 196 633 q 126 675 196 675 l 33 675 l 36 869 l 132 869 q 180 903 166 869 q 183 918 183 912 l 183 937 l 250 936 l 240 262 q 248 239 240 248 q 267 231 256 231 l 387 231 l 387 0 l 40 0 l 45 231 l 164 231 q 191 250 185 231 q 192 258 192 255 l 196 633 z "},"2":{"ha":464,"x_min":35,"x_max":422,"o":"m 328 710 l 129 707 q 91 697 96 707 q 85 677 85 688 l 85 614 l 35 615 l 37 935 l 87 935 l 86 867 q 195 935 115 935 l 297 935 q 420 844 413 935 q 422 799 422 820 l 422 693 l 421 566 q 350 463 421 495 q 311 446 330 454 l 164 378 q 96 267 96 346 l 96 229 l 343 237 q 372 260 372 237 l 372 343 l 421 345 l 411 0 l 49 -3 q 46 219 46 146 q 56 322 46 291 q 81 374 66 353 q 150 429 106 410 l 296 493 q 354 526 345 515 q 371 591 371 545 l 371 667 q 359 699 371 688 q 328 710 347 710 z "},"3":{"ha":463,"x_min":41,"x_max":421,"o":"m 140 710 q 89 659 89 710 l 89 628 l 41 628 l 43 935 l 100 935 l 100 878 q 195 935 134 935 l 314 935 q 378 917 357 935 q 416 844 416 885 l 421 587 q 338 471 421 475 l 338 468 q 391 452 378 464 q 421 366 421 428 l 421 151 q 353 11 421 47 q 306 0 332 0 l 189 0 q 115 28 142 0 q 94 62 100 43 l 96 1 l 43 0 l 46 322 l 96 322 l 96 260 q 140 211 96 211 l 334 211 q 370 255 368 211 q 371 277 371 267 l 371 392 q 352 431 371 415 q 300 447 332 447 l 144 447 l 144 498 q 199 497 174 498 q 252 497 225 497 l 298 497 q 367 536 353 497 q 371 559 371 547 l 371 654 q 313 707 371 707 l 140 710 z "},"4":{"ha":526,"x_min":12,"x_max":490,"o":"m 283 244 l 282 345 q 279 357 282 354 q 268 359 277 359 l 28 359 q 12 389 -5 359 q 31 421 14 391 q 72 497 47 451 q 128 598 98 543 q 189 710 159 654 q 158 711 174 711 q 129 713 142 711 l 126 935 l 401 935 l 396 710 l 330 710 l 330 422 q 332 413 330 415 q 340 411 334 411 l 428 411 q 438 414 436 411 q 440 425 440 418 l 440 514 l 489 514 l 490 264 l 444 264 l 444 347 q 432 361 444 361 l 343 361 q 332 356 332 361 q 332 345 332 351 l 334 243 q 351 228 334 228 l 432 228 l 437 0 l 191 0 l 193 225 l 271 225 q 282 232 281 225 q 283 244 283 238 m 281 530 l 279 710 l 240 710 l 82 410 l 267 410 q 279 411 278 410 q 281 416 281 412 l 281 530 z "},"5":{"ha":457,"x_min":36,"x_max":410,"o":"m 174 488 q 98 427 105 488 l 50 428 l 54 935 l 410 936 l 404 621 l 358 621 l 358 681 q 319 718 358 718 l 301 718 l 157 717 l 139 717 q 113 706 123 717 q 102 680 102 694 q 102 650 102 680 l 100 513 l 100 501 q 113 517 100 508 q 180 536 142 536 l 300 536 q 380 507 348 536 q 410 439 410 479 l 410 144 q 343 8 410 38 q 307 0 326 0 l 183 0 q 123 15 140 0 q 83 93 94 41 l 83 0 l 36 0 l 36 325 l 85 325 l 85 258 q 123 216 85 216 l 311 216 q 349 228 339 216 q 359 271 359 239 l 359 429 q 325 481 359 463 q 296 488 313 488 l 174 488 z "},"6":{"ha":456,"x_min":41,"x_max":416,"o":"m 94 640 l 94 551 q 93 486 93 520 q 124 514 106 506 q 172 522 141 522 l 311 522 q 408 456 384 522 q 416 399 416 432 l 416 121 q 384 34 416 69 q 306 0 353 0 l 164 0 q 65 46 98 0 q 41 126 41 79 q 42 156 41 129 q 42 226 42 183 q 43 325 43 269 q 44 439 43 380 q 44 557 44 498 q 45 667 45 616 q 46 755 45 718 q 46 819 46 793 q 52 868 46 844 q 71 907 58 892 q 147 935 94 935 l 273 935 q 335 902 311 935 q 357 851 353 879 l 355 935 l 406 933 l 408 606 l 359 606 l 359 660 q 344 703 359 691 q 298 714 329 714 l 158 714 q 111 699 127 714 q 94 640 94 683 m 243 471 l 153 472 q 107 444 125 472 q 93 406 93 422 l 93 265 q 131 210 93 225 q 149 207 140 207 l 300 207 q 342 221 328 207 q 367 271 367 244 l 367 404 q 320 468 367 455 q 289 471 309 471 q 243 471 270 471 z "},"7":{"ha":441,"x_min":28,"x_max":421,"o":"m 94 686 q 77 665 77 686 l 77 652 q 77 629 77 642 q 78 602 77 617 l 28 603 l 28 932 q 100 932 56 932 l 197 932 q 421 935 336 932 l 411 688 l 135 -4 l 82 12 l 353 679 q 345 688 355 688 l 323 688 l 113 686 l 94 686 z "},"8":{"ha":486,"x_min":41,"x_max":444,"o":"m 45 680 l 46 812 q 90 907 46 875 q 176 935 125 935 l 335 935 q 437 860 415 935 q 444 810 444 837 l 444 591 q 400 478 444 509 q 431 445 418 469 q 444 386 444 420 l 444 121 q 408 29 444 64 q 336 0 378 0 l 160 0 q 71 38 103 0 q 41 125 41 71 l 41 382 q 75 472 41 454 q 86 478 82 476 q 75 489 82 483 q 61 506 68 494 q 45 591 45 536 l 45 680 m 147 449 q 98 420 111 449 q 92 372 92 405 l 92 273 q 106 237 92 250 q 147 224 121 224 l 338 224 q 394 269 391 224 q 395 288 395 280 l 395 389 q 385 429 395 418 q 329 449 368 449 l 147 449 m 358 703 q 322 708 347 708 q 268 707 298 707 q 209 707 237 707 l 161 707 q 98 665 110 707 q 94 647 94 655 l 94 561 q 119 506 94 522 q 151 497 133 497 l 338 497 q 374 511 362 497 q 395 553 395 536 l 395 654 q 358 703 395 689 z "},"9":{"ha":456,"x_min":39,"x_max":414,"o":"m 410 267 l 410 125 q 353 7 410 26 q 309 0 334 0 l 182 0 q 120 33 145 0 q 98 82 102 55 l 100 0 l 50 1 l 47 329 l 96 329 l 96 275 q 111 232 96 243 q 157 221 126 221 l 297 221 q 344 236 328 221 q 361 294 361 252 l 361 332 l 361 384 q 363 449 362 414 q 332 421 349 429 q 283 412 315 412 l 144 412 q 47 479 73 412 q 39 536 39 503 l 39 814 q 72 901 39 867 q 150 935 104 935 l 292 935 q 389 890 357 935 q 414 808 414 856 l 410 267 m 136 467 q 193 463 149 463 q 260 463 236 463 l 302 463 q 349 491 331 463 q 363 529 363 513 l 363 669 q 324 724 363 709 q 307 728 315 728 l 155 728 q 113 713 128 728 q 89 664 89 690 l 89 530 q 136 467 89 479 z "}," ":{"ha":278,"x_min":0,"x_max":0,"o":""},"!":{"ha":340,"x_min":54,"x_max":292,"o":"m 151 782 q 131 810 151 810 l 56 810 l 54 1042 l 292 1038 l 288 808 l 221 808 q 201 789 201 808 l 195 296 l 143 297 l 151 782 m 56 99 q 60 135 56 117 q 78 170 65 154 q 172 208 108 208 q 259 172 227 208 q 286 112 286 140 q 280 65 286 84 q 260 30 274 45 q 171 -7 229 -7 q 81 28 113 -7 q 56 99 56 57 z "},"\"":{"ha":529,"x_min":69,"x_max":460,"o":"m 125 810 q 104 838 125 838 l 71 838 l 69 1042 l 237 1038 l 233 836 l 195 836 q 175 817 175 836 l 175 804 l 174 745 q 174 693 174 726 q 174 604 174 661 l 122 604 q 123 696 123 654 l 125 792 q 125 810 125 792 m 349 817 q 329 836 349 836 l 290 836 l 292 1040 l 460 1038 l 453 838 l 419 838 q 399 810 399 838 l 397 698 q 395 608 395 656 l 343 610 l 349 817 z "},"#":{"ha":568,"x_min":41,"x_max":526,"o":"m 208 844 l 205 656 l 367 660 l 363 851 l 415 851 l 415 664 l 526 663 l 525 607 l 418 607 l 424 364 l 522 366 l 518 315 l 424 314 l 425 92 l 375 92 l 372 314 l 203 309 l 203 81 l 150 82 l 154 310 l 43 307 l 43 355 l 154 358 l 157 602 l 41 599 l 43 650 l 158 654 l 158 846 l 208 844 m 203 359 l 372 364 l 370 608 l 207 602 l 203 359 z "},"$":{"ha":482,"x_min":49,"x_max":433,"o":"m 260 921 q 355 872 329 911 l 361 872 l 361 917 l 408 917 l 408 603 l 364 603 l 364 659 q 348 704 364 686 q 301 722 332 722 l 260 722 l 260 503 l 293 503 q 400 454 361 503 q 433 351 433 412 l 433 193 q 342 24 433 62 q 260 8 309 10 l 260 -104 l 216 -106 l 216 9 q 127 47 163 15 q 104 77 112 60 l 96 77 l 96 14 l 49 14 l 49 371 l 96 370 q 95 349 95 360 q 94 323 94 338 l 94 290 q 105 238 94 254 q 142 222 116 222 l 216 222 l 216 453 l 187 453 q 113 465 132 453 q 84 491 94 476 q 62 586 62 522 l 62 614 l 63 654 l 64 709 l 64 760 q 216 922 64 916 l 216 1021 l 260 1021 l 260 921 m 260 453 l 260 222 l 317 222 q 381 274 374 222 q 383 307 383 290 l 383 346 q 366 416 383 397 q 273 453 334 453 l 260 453 m 114 650 l 113 566 q 127 515 114 525 q 189 503 146 503 l 216 503 l 216 722 l 175 722 q 132 703 149 722 q 114 650 114 684 z "},"%":{"ha":659,"x_min":41,"x_max":616,"o":"m 43 547 l 41 823 l 41 863 q 69 918 41 898 q 117 935 91 935 l 200 935 q 254 904 235 935 q 268 869 268 882 l 268 833 l 267 553 l 267 507 q 222 439 267 449 q 200 436 210 436 l 109 436 q 56 464 74 436 q 43 503 43 486 q 43 547 43 503 m 392 110 l 390 387 l 390 427 q 418 483 390 462 q 465 498 439 498 l 549 498 q 602 468 583 498 q 616 433 616 446 l 616 396 l 615 117 l 615 71 q 571 3 615 13 q 549 0 559 0 l 457 0 q 395 54 407 0 q 392 76 392 67 l 392 110 m 115 16 l 497 935 l 542 918 l 160 0 l 115 16 m 180 587 q 227 624 227 587 l 227 746 q 212 782 227 772 q 186 792 197 793 q 170 792 176 792 q 156 791 164 791 l 134 791 q 86 760 96 791 q 83 742 83 751 l 84 687 l 85 625 q 129 585 85 585 l 180 587 m 529 151 q 575 187 575 151 l 575 310 q 560 346 575 336 q 535 356 545 357 q 518 356 524 356 q 505 355 513 355 l 482 355 q 435 323 444 355 q 432 306 432 315 l 433 251 l 433 189 q 478 149 433 149 l 529 151 z "},"&":{"ha":586,"x_min":56,"x_max":586,"o":"m 120 831 l 119 942 q 156 1019 119 992 q 214 1040 186 1040 q 260 1041 243 1040 l 330 1042 q 399 1013 370 1042 q 429 946 429 984 l 430 868 q 431 762 430 868 q 366 625 431 658 q 306 592 345 612 q 243 559 267 572 q 281 491 250 542 q 334 405 313 439 q 373 340 355 370 q 406 288 392 310 l 422 261 q 431 384 431 323 q 431 454 431 444 l 481 456 q 468 203 477 307 l 586 18 l 543 -9 q 512 39 527 16 q 457 126 473 98 q 454 96 456 117 q 444 54 453 75 q 359 0 420 0 l 170 0 q 85 35 117 0 q 56 113 56 68 l 56 359 q 75 479 56 439 q 118 541 95 518 q 176 581 142 563 l 167 600 q 156 621 162 609 q 141 650 150 633 q 121 749 121 691 l 120 831 m 386 227 q 199 536 302 354 q 111 427 128 506 q 106 389 106 406 l 107 272 q 171 218 107 218 l 347 218 q 386 227 375 218 m 380 771 q 334 815 380 815 l 221 815 q 175 788 183 815 q 172 773 172 781 l 172 753 q 184 677 172 700 q 201 644 195 655 q 211 623 206 633 l 221 603 l 259 622 q 290 637 275 629 q 326 656 305 646 q 364 684 347 667 q 380 721 380 701 l 380 771 z "},"'":{"ha":307,"x_min":69,"x_max":237,"o":"m 125 810 q 104 838 125 838 l 71 838 l 69 1042 l 237 1038 l 233 836 l 195 836 q 175 817 175 836 l 175 804 l 174 745 l 174 706 q 174 603 174 660 l 122 604 q 123 696 123 654 l 125 792 q 125 810 125 792 z "},"(":{"ha":407,"x_min":56,"x_max":359,"o":"m 359 1006 q 119 604 166 858 q 107 455 107 536 q 116 307 107 374 q 140 186 124 240 q 177 91 155 133 q 227 14 199 48 q 357 -103 276 -46 l 322 -147 q 65 293 97 20 q 56 456 56 375 q 67 603 56 537 q 98 723 79 668 q 192 905 132 822 q 329 1044 252 988 l 359 1006 z "},")":{"ha":407,"x_min":47,"x_max":351,"o":"m 78 1044 q 264 823 190 962 q 351 461 351 663 q 304 135 351 262 q 85 -147 242 -31 l 50 -103 q 169 1 131 -46 q 230 91 208 48 q 267 186 252 133 q 300 457 300 298 q 153 903 300 723 q 47 1006 106 961 l 78 1044 z "},"*":{"ha":465,"x_min":56,"x_max":410,"o":"m 252 1040 l 249 888 l 387 968 l 410 930 l 265 847 l 399 770 l 374 729 l 250 803 l 252 657 l 207 656 l 204 802 l 77 721 l 56 762 l 196 846 l 56 926 l 75 964 l 205 893 l 200 1042 l 252 1040 z "},"+":{"ha":486,"x_min":45,"x_max":443,"o":"m 267 663 l 268 461 l 440 461 l 443 412 l 268 411 l 267 221 l 216 218 l 216 411 l 45 408 l 46 460 l 218 461 l 218 660 l 267 663 z "},",":{"ha":325,"x_min":41,"x_max":283,"o":"m 207 4 q 202 12 207 12 q 192 9 197 12 q 179 3 187 6 q 75 18 121 -23 q 41 86 41 47 q 52 146 41 125 q 79 181 62 167 q 144 210 111 210 q 200 202 177 210 q 242 178 224 195 q 283 82 283 140 q 264 -15 283 24 q 214 -83 244 -53 q 83 -174 167 -132 l 58 -132 q 172 -58 128 -106 q 207 4 207 -20 z "},"-":{"ha":444,"x_min":69,"x_max":375,"o":"m 371 301 q 232 301 304 304 q 74 301 160 299 l 69 486 l 375 484 l 371 301 z "},".":{"ha":314,"x_min":41,"x_max":272,"o":"m 41 99 q 46 135 41 117 q 64 170 51 154 q 158 208 94 208 q 244 172 213 208 q 272 112 272 140 q 266 65 272 84 q 246 30 260 45 q 157 -7 215 -7 q 67 28 98 -7 q 41 99 41 57 z "},"/":{"ha":458,"x_min":28,"x_max":431,"o":"m 28 16 l 382 1042 l 431 1025 l 77 0 l 28 16 z "},":":{"ha":370,"x_min":69,"x_max":300,"o":"m 69 99 q 74 135 69 117 q 92 170 79 154 q 186 208 121 208 q 273 172 241 208 q 300 112 300 140 q 294 65 300 84 q 274 30 288 45 q 184 -7 243 -7 q 95 28 126 -7 q 69 99 69 57 m 69 515 q 74 552 69 533 q 92 587 79 570 q 186 625 122 625 q 273 589 239 625 q 300 529 300 558 q 294 481 300 500 q 274 446 288 462 q 184 410 243 410 q 95 445 126 410 q 69 515 69 473 z "},";":{"ha":380,"x_min":69,"x_max":311,"o":"m 69 515 q 74 552 69 533 q 92 587 79 570 q 186 625 122 625 q 273 589 239 625 q 300 529 300 558 q 294 481 300 500 q 274 446 288 462 q 184 410 243 410 q 95 445 126 410 q 69 515 69 473 m 235 4 q 230 12 235 12 q 220 9 224 12 q 208 3 215 6 q 102 18 149 -23 q 69 86 69 47 q 80 146 69 125 q 106 181 90 167 q 172 210 139 210 q 228 202 205 210 q 270 178 252 195 q 311 82 311 140 q 292 -15 311 24 q 243 -83 272 -53 q 111 -174 195 -132 l 86 -132 q 201 -58 156 -106 q 235 4 235 -20 z "},"<":{"ha":486,"x_min":77,"x_max":385,"o":"m 385 639 l 154 437 l 379 233 l 345 195 l 77 436 l 350 679 l 385 639 z "},"=":{"ha":486,"x_min":58,"x_max":428,"o":"m 58 500 l 60 551 l 427 553 l 428 501 l 58 500 m 60 334 l 60 385 l 427 386 l 425 335 l 60 334 z "},">":{"ha":486,"x_min":102,"x_max":410,"o":"m 102 236 l 332 437 l 107 642 l 142 681 l 410 439 l 136 196 l 102 236 z "},"?":{"ha":444,"x_min":56,"x_max":389,"o":"m 146 811 q 107 758 107 811 l 107 700 l 60 700 l 56 1040 l 109 1042 l 106 966 q 141 1022 119 1003 q 205 1042 163 1042 l 300 1042 q 366 1010 340 1042 q 389 957 389 984 l 388 888 l 387 779 l 386 686 q 341 605 386 635 q 322 591 330 597 l 269 555 q 227 486 227 528 l 227 469 l 228 380 q 229 298 229 343 l 176 298 l 176 492 q 221 587 176 553 q 236 597 231 594 l 304 640 q 336 696 336 661 l 336 775 q 325 802 336 791 q 301 812 313 812 l 146 811 m 96 99 q 100 135 96 117 q 118 170 105 154 q 212 208 148 208 q 298 172 267 208 q 326 112 326 140 q 320 65 326 84 q 300 30 314 45 q 211 -7 269 -7 q 121 28 153 -7 q 96 99 96 57 z "},"@":{"ha":815,"x_min":69,"x_max":746,"o":"m 75 252 l 69 741 q 186 1002 69 926 q 418 1057 270 1057 q 652 997 570 1057 q 744 811 741 931 q 745 766 745 783 l 745 722 l 746 422 l 746 357 q 708 255 746 290 q 639 225 677 225 q 581 235 601 225 q 549 256 561 244 q 525 290 531 273 q 516 277 524 289 q 492 252 508 266 q 383 216 448 216 q 245 383 245 216 q 332 530 245 503 q 389 539 359 539 l 518 539 l 518 602 q 495 645 518 630 q 438 660 471 660 q 382 656 406 660 q 340 646 358 652 q 302 611 302 631 l 302 579 l 257 578 l 258 800 l 306 800 l 304 751 q 458 800 378 800 q 566 697 566 800 l 566 662 l 564 387 l 564 349 q 580 295 564 317 q 631 273 597 273 q 694 350 694 273 l 694 770 q 682 878 694 844 q 652 934 670 911 q 604 972 634 956 q 437 1007 540 1007 q 275 988 334 1007 q 183 935 217 970 q 121 741 121 873 l 122 248 q 191 64 122 117 q 387 18 251 18 q 616 85 524 18 l 640 39 q 464 -24 571 -6 q 362 -31 426 -31 q 239 -14 298 -31 q 144 38 180 3 q 75 252 75 104 m 463 492 l 379 493 q 317 472 339 493 q 296 431 296 452 q 299 398 296 411 q 313 374 303 385 q 375 349 335 349 q 440 356 416 349 q 482 377 465 364 q 517 437 517 402 l 517 492 q 463 492 489 492 z "},"A":{"ha":591,"x_min":7,"x_max":581,"o":"m 509 818 q 412 815 414 815 q 404 803 402 815 q 404 798 404 800 q 408 773 404 796 q 419 713 412 750 q 434 628 425 675 q 451 531 442 581 q 469 433 460 481 q 484 347 477 385 q 507 238 502 248 q 525 228 511 228 l 578 228 l 581 -3 l 332 3 l 329 229 l 411 229 q 436 242 428 229 q 443 263 444 256 q 439 289 442 270 q 431 337 436 307 q 419 407 426 368 q 406 488 413 446 l 215 488 l 170 267 q 167 234 164 243 q 182 225 170 225 l 260 225 l 257 -1 l 7 -1 l 12 228 l 69 228 q 110 252 104 228 q 125 321 113 265 q 148 424 138 377 q 170 520 159 471 q 191 617 180 570 q 210 703 201 665 q 224 767 218 741 q 231 800 229 792 q 216 814 234 814 l 135 814 l 132 1042 l 507 1039 l 509 818 m 225 536 l 397 538 q 381 635 389 588 q 349 808 353 802 q 336 815 345 815 l 296 815 q 281 802 283 815 l 225 536 z "},"B":{"ha":593,"x_min":33,"x_max":566,"o":"m 100 817 q 45 811 94 817 l 33 1034 q 270 1042 223 1042 q 356 1030 317 1042 q 430 990 395 1019 q 511 778 511 920 q 445 567 511 621 q 416 543 429 553 q 566 272 566 500 q 430 18 566 71 q 325 0 385 0 l 49 0 l 47 231 l 117 231 q 149 263 143 231 q 151 278 151 272 l 151 743 q 100 817 151 817 m 201 283 q 215 245 201 255 q 255 231 234 231 l 309 231 q 434 239 412 231 q 469 264 456 248 q 496 368 496 298 q 458 470 496 429 q 363 510 422 510 l 231 510 q 206 502 210 510 q 201 472 201 492 l 201 283 m 203 583 q 207 563 203 568 q 227 558 211 558 l 340 558 q 441 628 410 558 q 453 691 453 655 q 445 747 453 727 q 422 780 436 767 q 393 801 409 793 q 361 811 376 808 q 317 817 341 817 l 244 817 q 215 808 226 817 q 201 774 203 800 l 203 583 z "},"C":{"ha":539,"x_min":49,"x_max":494,"o":"m 52 224 l 49 792 l 49 861 q 159 1029 49 989 q 236 1042 195 1042 l 307 1042 q 410 1006 369 1042 q 444 965 433 986 l 441 1039 l 494 1039 l 492 643 l 444 640 l 444 718 q 418 788 444 762 q 345 814 393 814 l 208 815 q 107 755 133 815 q 98 710 98 735 l 102 334 q 161 235 102 248 q 193 232 178 232 l 354 232 q 420 253 397 232 q 444 307 444 275 l 445 357 q 441 436 445 382 l 490 440 q 491 363 490 405 l 492 187 q 410 12 492 47 q 358 1 384 1 l 321 1 l 292 1 l 250 0 l 204 0 q 52 174 52 0 l 52 224 z "},"D":{"ha":564,"x_min":35,"x_max":515,"o":"m 151 321 l 149 706 l 149 739 q 135 795 149 779 q 90 811 122 811 l 35 811 l 35 1040 q 144 1041 88 1040 l 353 1042 q 509 947 489 1042 q 515 879 515 916 l 515 174 q 422 5 515 21 q 366 0 395 0 l 41 0 l 41 225 l 114 225 q 144 237 138 225 q 151 277 151 253 l 151 321 m 200 523 l 201 288 l 201 257 q 224 224 201 227 q 236 222 230 222 l 415 222 q 464 259 460 222 q 465 282 465 270 l 465 760 q 426 819 465 813 q 400 821 414 821 l 239 821 q 206 805 214 821 q 199 766 199 789 q 200 523 199 631 z "},"E":{"ha":571,"x_min":24,"x_max":529,"o":"m 122 233 q 151 286 151 233 l 151 757 q 123 812 151 804 q 62 817 106 817 l 24 817 l 24 1039 q 140 1040 85 1040 l 279 1042 l 501 1042 l 497 694 l 447 693 q 449 742 449 707 q 439 789 449 777 q 410 810 429 802 q 323 822 378 822 q 247 817 268 822 q 215 804 225 811 q 201 771 201 793 l 201 561 l 298 561 q 320 569 310 561 q 331 594 330 578 q 332 626 332 610 q 332 657 332 626 q 332 693 332 675 l 382 696 l 386 357 l 338 357 l 338 402 q 336 441 337 421 q 327 492 335 481 q 312 507 319 503 q 290 514 300 514 q 245 513 269 514 q 201 511 221 512 q 201 420 201 463 l 200 346 l 200 290 q 213 247 200 258 q 249 231 232 231 l 432 231 q 481 290 481 231 l 480 345 q 479 375 479 360 l 529 376 l 521 -4 q 360 3 404 3 l 296 3 l 262 3 l 136 1 q 33 0 86 1 l 33 233 l 122 233 z "},"F":{"ha":526,"x_min":24,"x_max":498,"o":"m 157 800 q 144 815 157 815 q 24 812 138 815 l 28 1038 q 134 1040 83 1038 l 286 1042 l 494 1042 q 498 864 498 871 l 498 716 q 497 627 497 673 l 452 631 q 452 660 452 644 q 453 696 453 676 q 454 748 454 715 q 432 800 455 781 q 371 818 410 818 l 323 817 l 260 816 l 225 815 q 208 800 208 815 l 200 570 q 214 561 200 561 l 302 564 q 328 597 328 564 q 329 632 328 613 q 330 668 330 652 l 379 669 l 367 395 l 319 390 q 325 500 325 498 q 302 515 325 515 l 260 515 l 210 514 q 200 500 200 514 l 195 271 q 237 233 195 233 l 338 229 l 336 -1 l 29 1 l 33 233 q 72 235 55 234 q 119 236 104 236 q 149 260 149 236 l 157 800 z "},"G":{"ha":525,"x_min":49,"x_max":511,"o":"m 489 463 q 461 429 461 463 l 461 0 l 411 0 q 412 15 412 6 l 412 53 q 412 69 412 62 q 402 48 408 61 q 378 24 395 36 q 260 -5 337 -5 q 146 1 182 -5 q 87 24 109 7 q 49 164 49 57 l 49 876 q 99 1017 49 981 q 254 1050 142 1050 q 393 1004 349 1050 q 408 987 403 994 l 408 1042 l 457 1040 l 457 684 l 410 684 l 410 778 q 351 828 410 828 l 163 828 q 100 793 106 828 q 98 777 98 785 l 98 288 q 111 245 98 255 q 160 233 130 233 l 366 233 q 414 282 414 233 l 414 428 q 407 458 414 452 q 368 465 397 465 l 268 465 l 268 515 l 511 515 l 511 463 l 489 463 z "},"H":{"ha":637,"x_min":25,"x_max":607,"o":"m 135 814 l 25 817 l 25 1038 l 302 1043 l 307 819 l 225 819 q 212 811 214 819 q 210 796 210 804 l 204 602 q 216 583 204 583 q 309 583 267 583 l 376 582 q 414 582 395 582 q 437 610 437 582 q 437 701 437 660 l 436 765 q 434 804 436 796 q 410 817 431 817 l 350 817 l 353 1032 l 607 1040 l 602 819 q 562 815 579 817 q 513 811 518 811 q 490 793 490 811 l 485 258 q 486 245 485 252 q 496 239 486 239 l 602 239 l 607 0 l 358 3 l 350 231 q 379 233 366 231 q 404 235 393 234 q 422 236 416 235 q 433 258 433 238 l 433 514 q 412 532 433 532 l 275 534 l 221 534 q 205 521 205 534 l 203 320 l 203 244 q 220 228 203 228 l 306 228 l 300 5 l 39 -11 l 28 228 q 135 225 125 225 q 146 232 144 225 q 149 250 149 239 l 154 790 q 135 814 154 814 z "},"I":{"ha":351,"x_min":35,"x_max":322,"o":"m 153 783 q 126 812 153 812 l 47 812 q 52 1036 47 1000 q 102 1039 77 1038 q 200 1042 151 1042 q 322 1039 243 1042 l 310 817 q 284 815 296 816 q 260 815 272 815 l 240 815 q 214 804 224 815 q 204 771 204 792 q 199 268 204 771 q 225 236 199 236 l 318 236 l 310 3 q 196 -1 237 1 q 130 -3 154 -2 q 85 -4 105 -3 q 35 -5 45 -5 l 36 90 l 36 240 l 125 240 q 149 268 149 240 l 152 692 l 153 783 z "},"J":{"ha":449,"x_min":14,"x_max":435,"o":"m 262 261 l 268 782 q 248 812 268 807 q 240 814 243 814 l 220 814 q 182 814 203 814 q 132 815 161 814 l 127 1042 l 435 1039 l 431 815 q 393 816 411 815 l 343 817 q 319 787 319 817 q 319 752 319 783 q 317 670 318 721 q 315 554 317 619 q 313 416 314 488 q 311 151 311 202 q 305 78 311 100 q 289 40 299 56 q 266 16 279 25 q 241 3 254 7 q 197 -5 222 -5 l 96 -4 q 47 14 65 -4 q 14 70 14 45 q 21 355 14 94 l 68 354 q 65 252 65 262 q 73 235 65 243 q 94 225 81 227 q 125 225 106 224 q 164 225 144 225 q 228 228 210 227 q 255 240 247 230 q 262 261 262 251 z "},"K":{"ha":595,"x_min":32,"x_max":581,"o":"m 115 817 q 35 811 105 817 l 37 1036 l 281 1042 l 281 817 l 220 817 q 197 809 204 817 q 191 785 191 802 l 191 534 q 364 782 268 628 q 354 814 381 814 l 334 814 l 332 1042 l 554 1040 l 547 814 l 496 814 q 416 779 444 814 q 390 742 408 768 l 362 701 q 310 623 338 666 q 442 262 434 279 q 458 241 450 244 q 478 239 467 239 l 581 235 l 574 1 l 363 -3 l 358 235 l 389 235 q 393 244 397 235 q 381 280 390 254 q 361 338 372 306 q 338 405 350 370 q 315 471 326 440 q 273 570 281 566 q 268 567 271 570 q 235 525 259 554 q 193 471 212 495 l 200 265 q 239 237 200 237 l 294 237 l 297 1 q 35 -1 189 -1 l 32 233 q 123 236 113 236 q 141 245 132 236 q 150 272 150 254 l 140 798 q 115 817 140 817 z "},"L":{"ha":536,"x_min":28,"x_max":509,"o":"m 131 235 q 144 260 144 235 l 144 800 q 140 811 144 810 q 122 812 136 812 l 32 812 l 28 1042 l 309 1040 l 306 814 l 214 814 q 198 806 199 814 q 196 791 196 799 l 193 361 l 192 268 q 201 240 192 246 q 225 235 210 235 l 283 235 l 372 237 q 428 237 372 237 q 464 273 464 237 l 462 351 q 460 418 460 381 l 509 418 l 507 0 l 37 -3 l 37 235 l 131 235 z "},"M":{"ha":802,"x_min":37,"x_max":761,"o":"m 149 269 l 157 775 q 147 805 157 797 q 117 814 138 814 l 64 814 l 64 1042 l 205 1042 q 239 1040 217 1042 q 286 1036 261 1038 q 339 1032 310 1034 l 340 812 l 296 812 l 403 243 l 529 810 l 490 810 l 496 1036 q 544 1039 521 1038 q 629 1042 589 1042 l 761 1038 l 746 812 q 721 813 733 812 q 685 814 721 813 q 665 805 672 814 q 657 782 657 795 l 647 268 q 684 235 647 235 l 749 235 l 743 0 l 498 1 l 503 233 l 561 233 q 595 273 595 233 q 607 812 595 292 l 583 811 l 422 122 l 378 121 l 243 811 l 210 811 q 199 327 199 380 q 200 267 199 274 q 201 254 201 260 q 204 242 201 247 q 220 232 210 232 q 300 229 229 232 l 288 -4 l 37 1 l 37 233 l 123 233 q 144 241 139 233 q 149 269 149 250 z "},"N":{"ha":644,"x_min":37,"x_max":611,"o":"m 73 227 l 121 228 q 146 265 146 228 l 146 799 q 141 813 146 810 q 122 817 137 817 l 40 817 l 40 1042 l 176 1042 q 202 1033 199 1042 q 208 1015 205 1023 l 447 250 l 454 253 q 457 478 456 396 q 458 608 458 560 q 459 694 458 656 q 459 759 459 733 q 460 790 460 785 q 422 821 460 821 l 376 820 q 355 819 365 819 l 346 1039 q 472 1042 449 1042 l 611 1042 l 603 821 q 578 821 590 821 l 542 822 q 510 787 510 822 l 498 8 q 488 -8 498 -8 q 469 8 475 -8 l 215 817 q 205 826 213 827 q 197 817 197 825 l 197 279 q 232 235 197 235 l 302 235 l 311 -1 l 37 1 l 37 227 q 73 227 56 227 z "},"O":{"ha":546,"x_min":49,"x_max":494,"o":"m 52 193 l 49 846 l 49 901 q 88 1002 49 964 q 173 1039 126 1039 q 255 1040 219 1040 l 339 1042 l 355 1042 q 460 981 422 1042 q 490 878 490 932 l 494 300 l 494 155 q 403 14 494 49 q 342 3 375 3 l 178 0 q 79 54 115 0 q 52 149 52 96 l 52 193 m 216 229 l 359 232 q 433 283 414 232 q 440 330 440 302 l 440 708 q 338 807 440 807 l 208 807 q 108 747 131 807 q 100 705 100 726 l 100 658 l 102 388 l 102 336 q 139 252 102 279 q 216 229 169 229 z "},"P":{"ha":564,"x_min":28,"x_max":536,"o":"m 155 799 q 136 814 153 814 l 28 814 l 28 1042 l 313 1042 q 439 996 376 1042 q 522 863 496 954 q 536 749 536 815 q 491 559 536 629 q 401 488 458 509 q 337 476 370 476 l 216 476 q 208 472 208 476 q 207 467 207 469 l 207 448 l 205 266 q 205 245 205 266 q 209 236 205 237 q 220 235 213 235 l 323 235 l 328 0 l 35 0 l 40 233 q 87 234 66 233 q 138 235 87 234 q 149 248 149 235 l 155 799 m 203 550 q 231 528 203 528 l 343 528 q 446 602 412 528 q 460 681 460 633 q 443 755 460 729 q 401 795 425 781 q 318 815 366 815 l 233 815 q 210 810 214 815 q 207 798 207 805 q 207 775 207 791 q 206 734 206 760 q 205 680 205 709 q 204 623 204 650 q 203 576 203 596 q 203 550 203 555 z "},"Q":{"ha":521,"x_min":41,"x_max":490,"o":"m 45 153 l 41 847 q 148 1034 41 1005 q 221 1042 176 1042 l 319 1042 q 465 964 426 1042 q 479 899 479 937 l 479 161 q 419 9 479 38 q 383 3 401 2 q 359 2 365 3 q 354 -5 354 1 q 422 -28 354 -28 q 485 -24 450 -28 l 490 -216 q 434 -220 482 -220 q 362 -203 387 -220 q 325 -160 337 -187 q 307 -20 307 -120 q 281 0 307 0 l 150 0 q 65 58 94 0 q 45 153 45 99 m 92 415 q 221 458 132 458 q 334 397 302 458 q 345 347 345 376 l 345 232 q 416 256 389 231 q 429 296 429 270 l 429 713 q 368 808 429 793 q 323 812 348 812 l 184 812 q 115 788 138 812 q 92 724 92 764 l 92 415 m 297 329 q 218 411 297 411 q 103 368 136 411 q 92 328 92 353 q 96 283 92 302 q 111 252 100 264 q 176 229 130 229 l 294 229 q 297 329 297 292 z "},"R":{"ha":602,"x_min":35,"x_max":559,"o":"m 150 793 q 119 814 150 814 l 102 814 q 72 814 88 814 q 35 815 56 814 l 35 1040 q 131 1041 94 1040 q 193 1041 169 1041 l 281 1042 l 315 1042 q 529 874 485 1042 q 541 777 541 830 q 532 689 541 723 q 508 631 523 655 q 475 591 494 606 q 438 567 457 576 q 370 547 406 551 l 370 543 q 424 504 403 534 q 444 431 444 475 l 444 250 q 454 221 444 231 q 478 212 465 212 q 502 224 492 212 q 511 249 511 236 q 511 281 511 249 q 512 321 511 300 q 513 368 512 342 l 559 370 l 559 121 q 522 3 559 33 q 475 -11 505 -11 q 392 77 399 -11 q 390 125 390 101 l 395 425 q 353 513 395 484 q 290 533 323 533 l 220 533 q 207 521 207 533 l 207 500 l 205 286 l 205 261 q 229 233 205 233 l 313 233 l 311 3 l 36 -1 l 36 233 l 123 233 q 153 268 153 233 l 153 294 l 150 766 l 150 793 m 222 815 q 204 793 204 815 q 204 760 204 787 q 203 694 203 733 l 203 632 l 203 596 q 215 583 203 583 l 271 583 l 354 582 q 461 643 428 582 q 473 699 473 665 q 463 754 473 732 q 437 789 452 777 q 380 814 410 814 l 222 815 z "},"S":{"ha":529,"x_min":41,"x_max":481,"o":"m 59 749 l 60 886 q 180 1042 60 1025 q 255 1047 215 1047 q 366 1019 320 1047 q 397 991 386 1007 l 403 991 l 403 1042 l 456 1042 l 453 675 l 404 675 l 404 761 q 386 808 404 791 q 334 825 368 825 l 180 825 q 131 808 151 825 q 111 760 111 791 q 110 699 111 729 q 110 641 109 669 q 116 598 111 613 q 132 576 121 584 q 196 564 148 564 l 323 564 q 444 508 399 564 q 481 393 481 460 l 481 170 q 435 35 481 74 q 268 -5 387 -5 q 100 71 151 -5 l 92 71 l 92 0 l 41 0 l 52 431 l 98 429 q 97 370 98 398 q 97 315 97 342 l 97 267 q 107 216 97 227 q 153 200 123 200 l 237 199 l 355 199 q 427 250 419 199 q 429 285 429 265 l 429 386 q 302 505 429 505 l 199 505 q 111 521 136 505 q 58 656 58 555 l 59 749 z "},"T":{"ha":492,"x_min":21,"x_max":471,"o":"m 104 818 q 68 774 68 818 l 68 631 l 21 631 l 21 1038 q 471 1042 196 1042 l 471 652 l 424 653 l 424 782 q 401 821 424 817 q 385 822 393 822 l 282 822 q 269 807 269 822 q 269 782 269 807 l 267 281 l 267 253 q 272 238 267 241 q 290 235 277 235 l 374 235 l 374 0 l 110 0 l 111 232 q 149 233 132 232 l 197 233 q 216 262 216 233 l 216 802 q 201 818 216 818 l 104 818 z "},"U":{"ha":654,"x_min":40,"x_max":614,"o":"m 134 125 l 132 789 q 109 814 132 814 l 40 814 l 41 1039 l 283 1042 l 282 821 q 248 819 263 820 q 204 818 219 818 q 183 794 183 818 l 183 310 q 210 244 183 266 q 256 228 229 228 l 397 228 q 464 274 446 228 q 470 306 470 290 l 470 408 l 469 720 l 469 796 q 442 818 469 818 l 376 818 l 370 1040 l 612 1042 l 614 818 q 585 817 598 817 q 559 817 572 817 l 541 817 q 520 793 520 817 l 524 304 l 524 129 q 508 38 524 60 q 473 8 492 16 q 422 0 453 0 l 237 0 q 134 125 134 0 z "},"V":{"ha":647,"x_min":14,"x_max":633,"o":"m 97 811 l 54 810 q 18 810 37 810 l 14 1040 l 269 1042 l 265 815 q 231 814 246 814 q 188 812 201 812 q 172 808 174 812 q 172 796 170 804 q 179 763 173 789 q 193 699 184 737 q 212 612 201 660 q 233 515 222 564 q 255 418 244 465 q 273 334 265 371 q 292 252 288 266 q 311 232 298 232 l 333 231 q 349 231 340 231 q 368 252 363 231 q 382 314 368 253 q 408 424 397 376 q 430 523 418 473 q 453 623 442 574 q 473 711 465 671 q 494 798 490 785 q 492 813 498 812 q 478 814 486 814 l 383 814 l 378 1040 q 429 1041 404 1040 l 518 1042 l 633 1042 l 624 814 q 603 814 613 814 l 571 815 q 551 798 555 815 l 416 243 q 418 236 416 237 q 424 235 420 235 q 479 232 428 235 l 478 -1 l 174 1 l 167 236 l 222 236 q 238 239 235 236 q 240 246 241 242 q 234 274 239 250 q 219 338 229 299 q 199 426 210 376 q 176 526 188 475 q 154 625 165 576 q 134 712 142 674 q 113 805 114 798 q 97 811 111 811 z "},"W":{"ha":732,"x_min":21,"x_max":711,"o":"m 106 719 q 103 738 106 719 q 96 780 100 757 q 90 810 92 804 q 81 817 89 817 l 25 817 l 21 1039 l 249 1042 l 250 815 l 153 815 q 143 802 140 815 q 148 778 144 800 q 157 723 151 757 q 171 645 163 688 q 192 527 178 602 q 228 319 205 452 l 359 868 l 406 867 l 494 343 q 571 686 555 614 q 592 779 587 758 q 597 802 597 800 q 587 812 600 812 l 493 812 l 493 1042 l 711 1042 l 710 814 l 665 814 q 648 802 651 814 q 643 777 648 801 q 629 715 637 753 q 610 629 621 677 q 588 529 599 580 q 566 428 576 477 q 546 340 555 379 q 526 251 528 261 q 534 233 522 233 l 610 233 l 611 3 l 406 -4 l 397 235 l 454 235 q 464 253 465 235 q 380 696 463 271 l 374 696 q 299 415 316 481 q 274 317 282 349 q 260 264 265 284 q 254 241 255 243 q 264 233 251 233 l 328 233 l 328 -1 l 96 3 l 96 232 l 179 232 q 186 260 193 232 q 163 389 180 290 q 138 537 146 487 q 121 634 129 587 q 106 719 113 682 z "},"X":{"ha":642,"x_min":28,"x_max":614,"o":"m 606 818 q 535 815 549 815 q 518 807 522 815 q 507 787 515 800 q 488 754 500 774 q 422 643 450 689 q 349 521 394 597 q 404 411 384 451 q 436 348 425 371 q 458 305 448 324 q 484 254 479 262 q 493 239 488 245 q 510 233 497 233 l 607 233 l 614 0 l 363 0 l 361 231 l 425 231 q 432 235 432 231 q 431 243 432 239 l 318 469 q 280 408 300 441 q 240 342 260 374 q 185 254 195 269 q 191 233 171 233 l 281 233 l 282 0 l 32 0 l 28 233 l 97 233 q 127 250 114 233 q 137 264 129 252 q 157 295 145 276 q 183 337 169 314 q 292 511 218 391 q 191 702 208 670 q 163 755 174 734 q 145 790 152 776 q 136 807 138 804 q 114 815 130 815 l 57 815 l 57 1042 l 294 1042 l 294 815 l 211 815 q 200 803 196 815 q 206 791 200 802 q 220 763 212 780 q 240 725 229 746 q 270 666 251 703 q 323 564 290 629 q 377 660 358 625 q 408 717 397 696 q 429 755 420 738 q 446 784 439 772 q 455 802 452 796 q 453 812 458 808 q 439 815 448 815 l 378 815 l 374 1042 l 606 1042 l 606 818 z "},"Y":{"ha":629,"x_min":14,"x_max":615,"o":"m 269 283 l 271 401 q 272 517 271 453 q 213 626 235 585 q 178 690 191 667 q 155 733 165 713 q 136 767 144 753 q 122 791 129 781 q 87 815 105 815 l 73 815 q 48 815 62 815 q 16 817 34 816 l 14 1040 l 264 1042 l 258 818 q 186 821 193 821 q 174 817 178 821 q 170 808 169 814 q 177 789 170 801 q 190 767 184 777 q 203 741 195 757 q 222 707 212 726 q 249 655 232 688 q 296 567 266 623 q 345 643 327 614 q 374 687 363 671 q 394 717 385 703 q 409 741 403 731 q 421 760 416 751 q 443 804 443 793 q 415 814 443 814 l 368 814 l 367 1042 l 615 1036 l 607 807 l 541 807 q 488 778 505 807 q 477 761 485 774 q 456 728 469 747 q 322 522 371 598 q 319 378 320 419 q 318 318 319 337 q 318 286 318 299 l 318 268 q 328 244 318 250 q 357 237 338 237 l 443 237 l 435 0 l 147 0 l 143 232 l 228 232 q 269 267 269 232 l 269 283 z "},"Z":{"ha":542,"x_min":49,"x_max":493,"o":"m 115 781 l 115 730 q 114 699 114 715 l 65 699 l 64 1036 q 146 1037 106 1036 l 404 1042 l 485 1042 l 478 828 l 118 222 l 404 231 q 432 242 421 231 q 443 268 443 254 l 443 296 q 443 326 443 311 q 444 359 444 342 l 493 359 l 492 1 q 397 1 441 1 l 323 0 q 269 0 296 0 q 49 -5 247 0 l 49 208 l 412 819 q 199 815 227 815 l 167 815 q 115 781 115 815 z "},"[":{"ha":416,"x_min":97,"x_max":361,"o":"m 357 990 l 158 990 l 147 -87 l 340 -87 l 339 -138 l 97 -135 l 109 1042 l 361 1040 l 357 990 z "},"\\":{"ha":458,"x_min":28,"x_max":431,"o":"m 382 0 l 28 1025 l 77 1042 l 431 16 l 382 0 z "},"]":{"ha":416,"x_min":56,"x_max":319,"o":"m 60 -86 l 258 -86 l 269 991 l 77 991 l 78 1042 l 319 1039 l 309 -138 l 56 -136 l 60 -86 z "},"^":{"ha":694,"x_min":78,"x_max":618,"o":"m 574 728 l 346 953 l 122 733 l 78 774 l 347 1042 l 618 768 l 574 728 z "},"_":{"ha":347,"x_min":0,"x_max":347,"o":"m 0 -125 l 347 -125 l 347 -191 l 1 -191 l 0 -125 z "},"`":{"ha":589,"x_min":186,"x_max":401,"o":"m 231 1018 l 401 818 l 355 778 l 186 981 l 231 1018 z "},"a":{"ha":571,"x_min":41,"x_max":542,"o":"m 410 437 q 260 505 410 505 q 111 437 111 505 l 111 414 l 64 411 l 68 704 l 114 703 l 114 629 q 199 684 147 668 q 299 700 251 700 q 377 686 347 700 q 426 651 408 671 q 458 568 458 614 l 459 469 l 460 317 l 461 231 q 484 203 461 203 l 542 203 l 541 0 l 392 -1 l 392 90 q 345 35 378 57 q 218 -7 281 -7 q 41 186 41 -7 q 94 336 41 285 q 191 375 134 375 l 370 375 q 398 385 391 375 q 410 414 410 399 l 410 437 m 240 187 q 410 301 410 187 q 404 322 410 313 q 389 332 397 332 l 320 331 l 196 330 q 121 286 138 330 q 115 260 115 273 q 240 187 115 187 z "},"b":{"ha":533,"x_min":-28,"x_max":492,"o":"m 85 793 q 53 837 85 838 q 40 836 45 836 l -28 836 l -24 1040 l 138 1042 l 134 578 q 231 689 152 659 q 304 700 260 700 q 379 691 347 700 q 433 666 412 682 q 466 632 454 651 q 483 594 477 614 q 492 526 492 566 l 492 163 q 385 1 492 38 q 302 -11 349 -11 q 228 -4 256 -11 q 180 16 199 3 q 131 97 145 43 l 125 -1 l 66 0 q 68 15 65 0 q 75 57 71 30 q 85 201 85 138 l 85 793 m 291 510 q 214 503 245 510 q 165 483 183 496 q 134 404 134 458 l 134 272 q 167 197 134 220 q 293 171 204 171 q 437 229 416 171 q 443 267 443 247 l 443 404 q 412 480 443 456 q 291 510 376 510 z "},"c":{"ha":492,"x_min":41,"x_max":450,"o":"m 46 146 l 41 542 q 100 667 41 625 q 253 705 154 705 q 404 633 353 705 l 404 704 l 450 704 l 444 389 l 399 389 l 399 443 q 286 509 399 503 q 230 510 259 510 q 172 505 200 510 q 126 488 144 500 q 92 403 92 464 l 91 339 l 90 261 q 121 194 90 213 q 248 171 155 171 q 397 240 393 171 l 399 294 l 446 296 q 444 247 445 271 q 443 147 443 201 q 427 61 443 93 q 385 13 412 28 q 262 -9 346 -9 q 141 1 179 -9 q 82 33 103 12 q 46 146 46 66 z "},"d":{"ha":568,"x_min":41,"x_max":561,"o":"m 449 244 q 478 201 449 201 l 561 201 l 561 1 l 410 -1 l 410 97 q 307 -4 387 14 q 231 -11 277 -11 q 148 2 184 -11 q 87 37 111 14 q 41 163 41 81 l 41 526 q 232 700 41 700 q 352 660 306 700 q 400 578 389 628 l 399 796 q 366 836 397 836 l 286 836 l 290 1040 l 452 1042 l 449 794 l 449 244 m 90 404 l 90 267 q 119 199 90 221 q 221 171 155 171 q 318 178 287 171 q 367 197 349 184 q 400 272 400 220 l 400 404 q 368 483 400 459 q 263 510 330 510 q 123 483 157 510 q 90 404 90 456 z "},"e":{"ha":497,"x_min":41,"x_max":462,"o":"m 41 167 l 47 534 q 118 669 47 625 q 247 705 176 705 q 354 694 319 705 q 412 665 390 683 q 444 626 433 648 q 458 582 454 604 q 461 542 462 561 q 461 502 461 524 q 456 353 461 480 q 93 345 456 353 l 93 292 q 264 191 93 191 q 372 205 335 191 q 408 244 408 220 l 408 286 l 454 292 q 449 134 449 191 q 430 49 449 76 q 378 9 410 22 q 228 -12 330 -12 q 41 167 41 -12 m 410 406 l 411 443 q 265 509 411 509 q 92 395 92 509 l 410 400 q 410 406 410 401 z "},"f":{"ha":336,"x_min":37,"x_max":379,"o":"m 129 694 q 122 905 122 864 q 133 973 122 945 q 161 1017 144 1001 q 226 1043 190 1043 q 278 1036 262 1043 q 304 1020 294 1029 q 326 977 313 1009 l 326 1042 l 379 1042 l 367 743 l 318 739 l 318 766 q 308 820 318 806 q 253 844 290 844 q 180 783 180 844 l 180 693 l 288 697 l 285 489 l 187 486 l 192 244 q 220 203 192 210 q 232 201 227 201 l 307 201 l 307 -1 l 41 0 l 37 200 l 107 200 q 134 212 127 200 q 142 238 142 223 q 141 267 142 254 q 140 298 141 280 q 139 337 140 316 q 137 393 138 358 q 134 486 136 428 l 49 486 q 40 681 40 671 l 40 690 q 129 694 97 693 z "},"g":{"ha":557,"x_min":41,"x_max":529,"o":"m 469 486 q 453 468 453 486 l 453 -170 q 326 -321 453 -292 q 249 -329 293 -329 q 65 -231 104 -329 q 54 -165 54 -202 l 54 -40 l 100 -40 l 100 -71 q 184 -148 100 -137 q 250 -151 210 -151 q 320 -144 289 -151 q 370 -123 351 -137 q 404 -39 404 -98 l 404 97 q 354 16 389 42 q 250 -11 315 -11 q 148 2 184 -11 q 87 37 111 14 q 41 163 41 81 l 41 526 q 232 700 41 700 q 352 660 306 700 q 400 578 389 628 l 400 694 l 526 694 l 529 486 l 469 486 m 90 404 l 90 267 q 119 199 90 221 q 221 171 155 171 q 318 178 287 171 q 369 197 349 184 q 404 272 404 221 l 404 404 q 370 483 404 459 q 263 510 331 510 q 123 483 157 510 q 90 404 90 456 z "},"h":{"ha":631,"x_min":7,"x_max":607,"o":"m 117 840 l 7 836 l 9 1039 l 179 1042 l 178 600 q 274 682 209 652 q 359 697 309 697 q 491 632 450 697 q 522 505 522 584 l 518 220 q 521 203 518 208 q 534 199 524 199 l 607 199 l 607 0 l 378 1 l 378 201 l 446 201 q 464 208 456 201 q 471 227 471 215 l 471 412 q 437 472 471 447 q 345 501 398 501 q 263 491 292 501 q 216 464 235 480 q 176 393 176 431 l 176 222 q 197 201 176 201 l 260 201 l 260 1 l 33 0 l 32 200 l 109 200 q 125 221 125 200 l 129 828 q 126 838 129 836 q 117 840 124 840 z "},"i":{"ha":307,"x_min":20,"x_max":297,"o":"m 107 201 q 139 232 139 201 l 139 463 q 132 481 139 476 q 104 486 124 486 l 26 486 l 26 694 l 192 694 q 187 251 187 270 l 187 225 q 193 210 187 218 q 210 201 199 201 l 297 201 l 297 0 l 26 0 l 29 201 l 107 201 m 20 901 q 24 936 20 918 q 42 971 29 955 q 136 1010 73 1010 q 222 974 191 1010 q 250 913 250 942 q 244 866 250 885 q 224 831 238 847 q 135 794 193 794 q 45 829 77 794 q 20 901 20 858 z "},"j":{"ha":292,"x_min":-28,"x_max":269,"o":"m 167 488 l 103 487 q 52 486 80 486 l 52 692 l 245 694 q 235 -135 235 -76 q 222 -232 235 -195 q 187 -290 210 -269 q 72 -329 149 -329 q -22 -304 -14 -329 q -24 -289 -24 -296 l -26 -155 q -28 -37 -27 -102 l 22 -37 l 22 -92 q 42 -119 22 -111 q 94 -127 61 -127 q 142 -121 127 -127 q 167 -106 157 -115 q 184 -68 184 -89 l 189 464 q 167 488 189 488 m 39 901 q 43 936 39 918 q 61 971 48 955 q 155 1010 92 1010 q 241 974 210 1010 q 269 913 269 942 q 263 866 269 885 q 243 831 257 847 q 154 794 212 794 q 64 829 96 794 q 39 901 39 858 z "},"k":{"ha":639,"x_min":33,"x_max":625,"o":"m 265 1042 l 258 836 l 215 836 q 187 831 197 836 q 176 804 176 826 l 176 431 q 177 425 176 427 q 183 424 178 422 q 318 504 306 492 q 337 522 330 516 q 347 536 343 528 q 357 578 357 550 l 357 692 l 579 694 l 575 486 l 446 486 q 370 475 399 486 l 522 215 q 546 201 530 201 l 621 201 l 625 0 l 396 -1 l 399 199 l 463 199 q 464 212 473 199 l 326 454 l 180 364 q 176 357 176 362 l 176 256 q 189 217 176 235 q 229 200 202 200 l 278 200 l 277 0 l 33 0 l 39 201 l 83 201 q 121 225 111 201 q 125 248 125 234 l 125 800 q 115 828 125 822 q 92 833 105 833 l 35 833 l 35 1040 l 265 1042 z "},"l":{"ha":302,"x_min":4,"x_max":281,"o":"m 125 823 q 107 839 125 839 l 8 839 l 4 1038 l 182 1042 q 178 311 178 385 l 178 231 q 208 203 178 203 l 281 203 l 281 0 l 26 0 l 21 201 l 100 201 q 122 211 119 201 q 125 233 125 220 l 125 823 z "},"m":{"ha":817,"x_min":43,"x_max":806,"o":"m 139 452 q 107 486 139 486 l 50 486 l 49 694 l 215 694 l 215 595 l 224 595 q 309 692 239 666 q 357 700 331 700 q 436 659 400 700 q 463 618 452 641 q 541 687 490 661 q 600 700 567 700 q 705 597 690 700 q 710 528 710 566 l 701 233 q 741 201 701 203 q 765 200 753 200 l 806 200 l 806 0 l 646 0 l 656 428 q 632 483 656 468 q 569 498 609 498 q 509 492 530 498 q 475 475 489 486 q 444 415 444 452 l 439 239 q 464 202 439 208 q 476 200 471 200 l 542 200 l 542 0 l 376 0 q 393 403 393 387 q 394 434 393 418 q 388 467 395 450 q 307 505 372 505 q 212 461 243 505 q 189 399 189 429 l 189 239 q 197 208 189 216 q 221 200 205 200 l 286 200 l 279 0 l 43 0 l 50 201 l 110 201 q 140 235 140 201 l 140 252 l 139 414 l 139 452 z "},"n":{"ha":629,"x_min":22,"x_max":610,"o":"m 140 441 q 87 486 140 486 l 22 486 l 25 694 l 197 694 l 189 595 q 211 637 189 613 q 251 673 233 662 q 347 699 293 699 q 434 680 401 699 q 486 635 467 661 q 521 536 519 590 q 520 458 522 508 q 518 375 519 408 q 515 314 517 342 q 513 241 513 257 q 516 218 513 225 q 525 207 520 211 q 547 200 534 200 l 610 200 l 607 -1 l 375 0 l 368 201 l 431 201 q 463 235 463 201 l 465 393 q 396 486 465 462 q 334 494 372 494 q 267 486 295 494 q 222 465 239 478 q 191 406 192 444 q 187 334 188 374 q 186 272 186 294 q 186 240 186 250 q 220 200 186 200 l 278 200 l 281 0 l 31 -1 l 29 201 l 102 201 q 136 231 136 201 l 140 441 z "},"o":{"ha":489,"x_min":43,"x_max":446,"o":"m 43 235 l 44 385 q 45 485 45 443 q 46 551 46 528 q 51 596 46 574 q 67 637 56 618 q 100 671 78 656 q 248 701 149 701 q 427 635 389 701 q 446 566 446 601 l 446 195 q 429 80 446 113 q 391 31 412 48 q 248 -8 340 -8 q 67 57 108 -8 q 44 132 45 93 q 43 191 43 170 l 43 235 m 92 414 l 92 277 q 123 209 92 227 q 225 189 157 189 q 323 195 294 189 q 369 210 352 200 q 397 271 397 228 l 397 414 q 367 483 397 462 q 267 505 334 505 q 123 486 155 505 q 92 414 92 467 z "},"p":{"ha":574,"x_min":22,"x_max":532,"o":"m 118 471 q 104 488 118 488 l 22 488 l 25 692 l 182 694 l 176 593 q 313 695 228 674 q 364 700 332 700 q 429 687 396 700 q 486 652 463 674 q 532 547 532 609 l 526 163 q 420 6 526 45 q 336 -7 385 -7 q 201 48 253 -7 q 165 103 178 72 q 164 12 165 53 l 163 -78 l 163 -90 q 186 -115 163 -115 l 250 -115 l 244 -318 l 28 -315 l 28 -114 q 57 -115 45 -115 q 81 -115 70 -115 l 96 -115 q 113 -100 113 -115 l 118 471 m 478 283 l 481 421 q 444 491 481 464 q 349 518 406 518 q 259 505 292 518 q 205 472 226 491 q 168 395 168 436 l 168 273 q 251 189 168 212 q 320 180 281 180 q 387 190 359 180 q 435 214 415 199 q 478 283 478 245 z "},"q":{"ha":559,"x_min":41,"x_max":547,"o":"m 478 489 q 449 446 449 489 l 449 -69 q 467 -110 449 -102 q 481 -113 473 -113 q 493 -113 488 -113 l 547 -113 l 543 -317 l 395 -318 l 399 113 q 302 1 380 31 q 229 -9 273 -9 q 154 0 186 -9 q 100 24 121 9 q 67 58 79 39 q 50 96 56 77 q 41 164 41 124 l 41 528 q 148 689 41 652 q 231 701 184 701 q 307 694 277 701 q 356 674 336 688 q 410 593 394 648 l 410 694 l 519 692 l 519 489 l 478 489 m 242 180 q 319 188 288 180 q 368 208 350 195 q 400 286 400 231 l 400 418 q 367 492 400 469 q 262 519 330 519 q 165 512 194 519 q 119 491 136 505 q 90 424 90 469 l 90 286 q 121 210 90 235 q 242 180 157 180 z "},"r":{"ha":484,"x_min":21,"x_max":469,"o":"m 139 469 q 118 486 139 486 l 21 486 l 21 694 l 195 693 l 193 586 q 275 663 237 644 q 469 699 349 699 q 469 682 469 696 q 468 646 469 668 q 468 595 468 623 q 466 518 467 567 q 464 385 465 470 l 416 383 q 417 398 416 391 l 418 422 q 406 468 418 454 q 325 496 380 496 q 227 471 268 496 q 191 425 191 449 l 187 220 q 200 201 187 201 l 294 201 l 296 0 l 33 0 l 31 201 l 121 201 q 138 220 138 201 l 138 242 l 139 448 l 139 469 z "},"s":{"ha":467,"x_min":41,"x_max":425,"o":"m 228 509 q 93 432 93 509 q 104 385 93 396 q 153 366 123 368 q 216 363 182 363 q 290 360 249 362 q 354 348 331 358 q 393 321 378 338 q 425 235 425 288 l 425 132 q 337 4 425 36 q 260 -7 306 -7 q 183 7 214 -7 q 134 38 152 21 q 98 89 110 60 l 98 0 l 46 0 l 53 285 l 106 285 q 105 265 105 275 q 104 243 104 255 l 104 218 q 190 170 104 173 q 242 168 214 168 q 295 171 271 168 q 338 180 320 174 q 374 235 374 196 q 306 307 374 303 q 239 309 276 309 q 164 311 202 309 q 104 321 126 312 q 68 343 82 330 q 41 411 41 370 l 41 567 q 90 666 41 629 q 192 700 136 700 q 358 621 311 700 l 358 694 l 412 694 l 407 404 l 355 404 l 355 437 q 289 502 355 484 q 228 509 264 509 z "},"t":{"ha":412,"x_min":12,"x_max":370,"o":"m 97 710 l 96 777 l 96 812 q 97 842 96 830 l 147 840 l 147 710 q 152 697 147 701 q 170 694 157 694 l 343 694 l 343 486 l 161 486 q 147 465 147 486 l 147 252 q 233 187 147 187 q 319 252 319 187 l 319 335 l 368 335 l 368 221 l 370 139 q 299 4 372 31 q 231 -5 272 -5 q 97 131 97 -5 l 97 465 q 93 483 97 479 q 75 486 90 486 l 12 486 l 14 694 l 75 694 q 94 699 91 694 q 97 710 97 703 z "},"u":{"ha":623,"x_min":11,"x_max":572,"o":"m 104 468 q 82 488 104 488 l 17 488 l 11 694 l 245 694 l 245 488 l 193 488 q 163 483 169 488 q 155 454 155 477 l 155 275 q 233 199 155 208 q 296 196 258 196 q 362 206 335 196 q 406 232 390 216 q 431 297 431 257 l 431 457 q 418 483 431 479 q 387 488 406 488 l 361 488 q 343 489 345 488 l 346 694 l 572 690 l 571 488 l 524 488 q 484 461 484 488 l 484 445 l 483 379 l 483 339 q 482 255 482 292 q 490 210 482 218 q 522 201 497 201 l 572 201 l 571 0 l 431 0 l 431 94 l 424 94 q 377 21 414 50 q 281 -7 339 -7 q 193 2 224 -7 q 142 33 161 12 q 103 170 103 73 l 103 201 l 104 441 l 104 468 z "},"v":{"ha":550,"x_min":14,"x_max":536,"o":"m 153 486 q 144 478 144 486 q 146 468 144 471 q 153 453 148 465 q 166 423 158 441 q 265 199 263 201 q 276 209 270 196 q 293 245 282 221 q 317 297 304 270 q 341 350 329 323 q 363 400 353 377 q 390 463 385 451 q 376 486 399 486 l 318 486 l 315 694 l 536 692 l 533 485 l 475 485 q 449 467 456 485 q 439 446 448 465 q 418 398 431 427 q 390 338 405 370 q 363 277 376 305 q 331 207 332 211 q 332 202 330 203 q 339 201 335 201 l 390 201 l 385 -1 l 134 0 l 139 201 l 203 201 q 207 204 207 201 q 171 284 207 206 q 124 386 135 362 q 105 430 114 410 q 84 477 87 469 q 61 486 81 486 l 14 486 l 14 694 l 243 693 l 235 486 l 153 486 z "},"w":{"ha":693,"x_min":21,"x_max":672,"o":"m 395 201 q 403 208 406 201 q 399 219 403 210 q 391 244 396 229 q 379 279 386 260 q 361 331 372 298 q 329 421 349 363 q 321 398 327 415 q 307 358 315 381 q 289 311 298 336 q 273 265 280 286 q 259 229 265 243 q 252 210 254 214 q 261 201 250 201 l 315 201 l 311 1 l 92 -1 l 93 201 l 164 201 q 178 212 178 201 q 150 299 163 254 q 125 382 136 345 q 92 478 98 471 q 69 486 85 486 l 21 486 l 21 693 l 235 694 l 228 486 l 160 486 q 148 482 149 486 q 148 474 146 477 q 152 460 149 470 q 160 433 155 450 q 216 243 178 374 q 278 405 257 349 q 307 481 298 460 q 325 530 323 524 q 330 536 327 536 q 334 533 332 536 q 340 517 336 530 q 353 484 345 504 q 437 248 398 359 q 477 344 463 309 q 500 399 492 379 q 515 435 508 419 q 526 462 522 452 q 530 475 530 472 q 524 485 533 481 q 515 486 521 486 l 458 486 l 454 693 l 672 694 l 665 486 l 607 486 q 588 480 591 486 q 576 453 585 473 q 555 404 567 433 q 529 342 543 375 q 503 280 515 309 q 474 212 477 221 q 473 202 470 203 q 481 201 476 201 l 557 201 l 561 0 l 347 1 l 351 201 l 395 201 z "},"x":{"ha":615,"x_min":35,"x_max":581,"o":"m 38 589 l 40 697 l 272 694 l 262 486 l 208 486 q 193 483 194 486 q 194 477 192 479 q 202 471 197 475 q 214 458 207 466 q 231 442 222 451 q 257 417 241 433 q 301 374 273 401 q 389 448 371 431 q 413 469 408 464 q 410 486 433 486 l 342 486 l 345 694 l 576 694 l 576 486 l 530 486 q 478 461 508 486 q 470 454 477 460 q 452 440 463 449 q 429 421 442 431 q 395 392 416 410 q 335 342 373 374 q 391 290 370 309 q 423 259 411 271 q 446 239 435 248 q 474 213 466 220 q 510 200 490 200 l 581 200 l 578 0 l 334 1 l 329 201 l 379 201 q 392 208 392 201 q 373 233 392 214 l 345 261 q 297 306 323 281 q 254 267 273 284 q 198 218 208 227 q 191 204 189 208 q 197 200 194 200 l 271 200 l 267 0 l 37 1 l 35 201 l 72 201 q 125 218 104 201 q 132 224 125 219 q 149 239 139 230 q 172 258 159 248 q 206 288 184 269 q 265 339 228 307 q 125 473 138 465 q 87 486 107 486 l 36 486 q 38 589 37 543 z "},"y":{"ha":559,"x_min":22,"x_max":541,"o":"m 256 694 l 254 486 l 176 486 q 161 484 168 486 q 155 475 153 481 q 162 456 156 470 q 176 420 168 442 q 197 372 185 399 q 228 297 208 345 q 282 167 247 250 q 361 351 343 307 q 389 417 380 395 q 404 453 398 439 q 412 472 410 467 q 408 481 413 476 q 395 486 403 486 l 334 486 l 330 696 l 541 694 l 541 486 l 490 486 q 477 480 484 486 q 469 470 470 474 q 456 441 467 467 q 428 377 446 416 q 389 286 411 337 q 344 182 367 235 q 298 79 321 130 q 258 -12 276 28 q 218 -104 222 -96 q 217 -117 212 -114 q 222 -118 219 -119 l 293 -118 l 296 -317 l 57 -318 l 56 -121 l 131 -121 q 151 -109 144 -121 l 249 103 l 90 478 q 87 483 89 481 q 75 486 80 486 l 25 486 l 22 694 l 256 694 z "},"z":{"ha":513,"x_min":41,"x_max":471,"o":"m 93 465 l 92 418 q 92 379 92 401 l 45 379 l 49 692 l 460 694 l 456 519 l 154 208 q 157 196 142 196 l 393 201 q 412 206 405 201 q 419 241 419 210 q 422 353 419 271 l 471 351 l 463 1 q 372 1 414 1 l 298 0 q 244 0 271 0 l 125 -2 q 41 -4 85 -3 l 41 163 q 176 299 127 250 q 253 377 225 349 q 303 429 281 406 q 355 485 353 479 q 351 492 357 491 q 335 493 345 493 l 115 489 q 93 465 93 489 z "},"{":{"ha":416,"x_min":40,"x_max":347,"o":"m 347 -109 q 188 -86 233 -109 q 121 -28 143 -63 q 100 53 100 7 q 109 134 100 99 q 129 205 118 168 q 158 337 158 302 q 153 388 158 373 q 140 412 148 402 q 40 456 107 453 l 43 496 q 146 567 126 505 q 151 608 151 581 q 144 663 151 634 q 129 718 138 692 q 107 829 107 785 q 121 914 107 873 q 163 983 134 954 q 342 1042 222 1042 l 347 993 q 225 971 262 993 q 169 918 187 949 q 150 848 150 886 q 158 782 150 810 q 176 725 166 754 q 201 611 201 646 q 190 552 201 576 q 163 513 178 529 q 119 479 142 490 q 135 473 121 479 q 165 452 149 467 q 208 361 208 412 q 199 277 208 309 q 179 212 190 245 q 150 50 150 122 q 246 -56 150 -39 q 343 -58 288 -64 l 347 -109 z "},"|":{"ha":458,"x_min":203,"x_max":254,"o":"m 203 -347 l 203 1042 l 254 1042 l 254 -346 l 203 -347 z "},"}":{"ha":416,"x_min":69,"x_max":376,"o":"m 69 1040 q 228 1018 183 1040 q 295 960 273 995 q 317 879 317 925 q 308 798 317 833 q 288 727 298 764 q 258 578 258 630 q 317 489 258 514 q 376 476 343 477 l 374 436 q 282 389 315 429 q 265 333 265 369 q 272 269 265 298 q 288 214 279 241 q 310 101 310 143 q 296 18 310 58 q 254 -51 283 -22 q 75 -110 194 -110 l 69 -61 q 192 -39 155 -61 q 248 15 229 -17 q 267 84 267 46 q 258 150 267 123 q 241 208 250 178 q 215 322 215 288 q 227 379 215 356 q 252 419 238 403 q 296 453 274 442 q 280 460 294 454 q 251 480 267 466 q 208 571 208 519 q 217 655 208 623 q 237 720 227 688 q 267 882 267 809 q 170 988 267 970 q 74 990 128 996 l 69 1040 z "},"~":{"ha":486,"x_min":45,"x_max":441,"o":"m 342 403 q 392 464 392 403 l 392 519 l 441 519 l 441 479 q 393 366 441 397 q 345 353 372 353 q 299 361 317 353 q 265 383 281 370 q 234 412 249 396 q 206 440 220 427 q 148 471 173 471 q 109 451 123 471 q 94 397 94 431 l 94 353 l 45 353 l 45 401 q 73 489 45 456 q 149 521 100 521 q 252 462 199 521 q 342 403 304 403 z "},"":{"ha":278,"x_min":0,"x_max":0,"o":""},"":{"ha":340,"x_min":53,"x_max":290,"o":"m 193 -58 q 214 -86 193 -86 l 289 -86 l 290 -318 l 53 -314 l 57 -85 l 123 -85 q 143 -65 143 -85 q 150 425 143 -22 l 201 424 l 193 -58 m 289 621 q 284 586 289 604 q 267 551 279 567 q 172 513 237 513 q 85 549 117 513 q 58 609 58 581 q 64 656 58 637 q 84 692 71 675 q 174 728 115 728 q 263 693 232 728 q 289 621 289 664 z "},"":{"ha":457,"x_min":41,"x_max":418,"o":"m 418 412 q 415 279 415 331 q 404 196 415 228 q 370 148 392 165 q 252 121 337 122 l 252 -62 l 208 -64 l 208 121 q 72 165 107 123 q 46 277 46 197 l 41 672 q 208 835 41 826 l 208 979 l 252 979 l 252 836 q 361 812 332 833 q 416 681 416 772 l 416 533 l 371 533 l 371 587 q 293 651 371 641 q 252 654 271 654 l 252 288 q 370 357 366 291 l 371 411 l 418 412 m 92 547 l 90 378 q 106 317 90 331 q 208 288 134 290 l 208 654 q 116 629 140 652 q 92 547 92 606 z "},"":{"ha":515,"x_min":21,"x_max":473,"o":"m 306 935 q 403 884 366 935 l 404 935 l 456 935 l 456 608 l 408 608 l 408 661 q 355 713 408 713 l 163 713 q 98 629 98 713 q 157 479 98 573 l 282 481 l 282 436 l 175 435 q 196 306 196 401 l 196 235 q 290 237 248 235 l 397 239 q 418 249 411 239 q 425 269 425 260 l 425 395 l 473 396 l 473 1 l 24 -3 l 21 235 q 69 234 47 234 l 113 234 q 146 235 133 234 l 146 313 q 122 432 146 403 l 22 432 l 22 478 l 104 478 q 58 587 68 554 q 40 731 40 652 q 55 846 40 810 q 92 903 71 883 q 183 935 128 935 l 306 935 z "},"":{"ha":457,"x_min":45,"x_max":407,"o":"m 387 486 q 350 364 387 404 l 407 278 l 367 258 l 318 340 q 225 322 286 322 q 134 343 165 322 l 83 258 l 45 279 l 102 368 q 69 489 69 405 l 69 492 q 103 618 69 576 l 45 711 l 83 732 l 134 644 q 225 665 170 665 q 317 647 281 665 l 367 732 l 407 713 l 349 623 q 387 503 387 581 l 387 486 m 114 488 q 138 403 114 429 q 217 374 165 374 q 291 384 269 374 q 324 412 313 395 q 342 490 342 438 l 342 501 q 326 572 342 552 q 229 612 296 612 q 119 541 136 612 q 114 492 114 519 l 114 488 z "},"":{"ha":574,"x_min":14,"x_max":559,"o":"m 374 705 l 340 705 l 339 933 l 559 928 l 551 699 l 498 699 q 446 669 465 699 q 432 647 442 665 q 408 606 422 630 q 346 500 368 538 l 453 501 l 454 450 l 315 449 l 294 414 q 293 393 293 403 l 293 375 l 452 376 l 450 325 l 290 323 l 290 268 q 329 237 290 237 l 401 237 l 393 0 l 134 0 l 129 232 l 200 232 q 241 267 241 232 l 241 323 l 85 323 l 85 375 l 243 375 l 243 388 q 244 408 243 400 q 225 449 238 419 l 85 449 l 86 500 l 200 500 q 133 637 151 604 q 109 682 115 671 q 74 707 92 707 l 61 707 q 41 707 52 707 q 16 708 30 707 l 14 932 l 236 933 l 231 710 q 178 713 182 713 q 160 686 146 713 q 249 500 178 654 l 292 500 q 335 576 317 544 q 377 647 369 635 q 401 695 401 686 q 374 705 401 705 z "},"":{"ha":458,"x_min":203,"x_max":254,"o":"m 203 431 l 203 930 l 254 930 l 254 432 l 203 431 m 203 -236 l 203 264 l 254 264 l 254 -235 l 203 -236 z "},"":{"ha":509,"x_min":69,"x_max":439,"o":"m 69 852 q 262 986 69 986 q 420 915 382 986 q 435 851 435 889 l 435 690 l 383 690 l 383 751 q 317 815 383 797 q 257 822 292 822 q 196 817 222 822 q 155 801 171 812 q 121 718 121 778 q 165 655 121 669 q 194 647 178 650 q 223 641 210 644 q 251 634 237 637 q 337 613 294 625 q 409 573 380 602 q 439 493 439 544 l 439 412 q 406 307 439 337 q 439 239 439 283 l 439 83 q 249 -50 439 -50 q 90 20 131 -50 q 74 85 74 47 l 74 245 l 125 245 l 125 184 q 191 121 125 139 q 252 114 216 114 q 312 119 287 114 q 354 136 337 124 q 387 218 387 160 q 343 281 387 267 q 300 292 329 286 q 257 302 271 298 q 225 310 242 306 q 168 324 208 314 q 99 363 128 334 q 69 443 69 392 l 69 524 q 102 628 69 595 q 69 697 69 654 l 69 852 m 364 329 q 389 374 389 349 l 389 493 q 345 559 389 545 q 298 570 326 564 q 255 581 271 577 q 195 595 220 590 q 144 607 154 603 q 119 562 119 589 l 119 443 q 164 378 119 392 q 191 370 176 374 q 222 363 206 367 q 254 355 237 359 q 309 342 281 347 q 346 334 337 337 q 364 329 355 331 z "},"":{"ha":589,"x_min":121,"x_max":468,"o":"m 249 929 l 243 808 l 125 807 l 121 929 l 249 929 m 468 932 l 468 807 l 351 811 l 346 928 l 468 932 z "},"":{"ha":815,"x_min":69,"x_max":745,"o":"m 74 269 q 69 726 74 269 q 182 987 69 912 q 414 1043 265 1043 q 650 981 567 1043 q 734 853 712 934 q 745 747 745 813 l 745 264 q 735 161 745 198 q 706 90 725 124 q 650 28 686 56 q 414 -33 567 -33 q 124 73 199 -33 q 77 205 83 130 q 74 269 74 239 m 121 726 l 122 265 q 182 80 122 135 q 418 17 250 17 q 692 227 671 17 q 694 289 694 259 l 694 750 q 682 858 694 823 q 650 917 669 894 q 601 957 631 940 q 432 993 535 993 q 272 974 329 993 q 180 921 214 956 q 121 726 121 859 m 249 324 l 248 655 l 248 722 q 298 831 248 796 q 385 856 335 856 l 436 856 q 509 829 481 856 q 523 810 519 819 q 529 799 528 801 l 526 852 l 574 852 l 572 590 l 529 589 l 529 618 q 510 670 529 650 q 456 689 491 689 l 374 689 q 316 669 340 689 q 293 612 293 649 l 296 392 q 363 317 296 317 l 463 317 q 511 333 494 317 q 528 372 528 349 l 528 428 l 571 428 q 572 393 571 414 l 572 285 q 545 181 572 213 q 471 149 517 149 l 448 149 l 425 148 l 395 147 l 361 147 q 249 275 249 147 l 249 324 z "},"":{"ha":452,"x_min":41,"x_max":416,"o":"m 211 799 q 102 751 102 799 l 102 734 l 58 732 l 62 935 l 103 935 l 103 885 q 111 894 104 886 q 134 911 119 902 q 223 935 176 935 q 294 924 271 935 q 330 900 317 914 q 354 842 354 874 l 355 772 l 356 666 l 357 606 q 374 586 357 586 l 416 586 l 416 444 l 304 443 l 304 509 q 270 470 296 487 q 175 439 222 439 q 41 575 41 439 q 81 682 41 645 q 154 710 113 710 l 281 710 q 306 719 300 710 q 311 734 311 727 l 311 751 q 300 780 311 772 q 211 799 275 799 m 97 624 q 192 574 97 574 q 307 618 290 574 q 311 651 311 632 q 296 671 311 671 l 158 671 q 112 656 127 671 q 97 624 97 642 m 392 321 l 66 319 l 68 370 l 392 368 l 392 321 z "},"":{"ha":478,"x_min":32,"x_max":432,"o":"m 265 639 l 94 400 l 260 158 l 216 127 l 32 397 l 222 668 l 265 639 m 432 639 l 261 400 l 427 158 l 383 127 l 199 397 l 389 668 l 432 639 z "},"":{"ha":486,"x_min":45,"x_max":429,"o":"m 428 332 l 378 329 l 378 522 l 45 519 l 46 571 l 429 571 l 428 332 z "},"":{"ha":444,"x_min":69,"x_max":375,"o":"m 371 301 q 232 301 304 304 q 74 301 160 299 l 69 486 l 375 484 l 371 301 z "},"":{"ha":815,"x_min":72,"x_max":564,"o":"m 72 726 q 151 987 72 914 q 318 1043 210 1043 q 492 981 431 1043 q 563 792 558 914 q 564 747 564 764 l 564 616 q 495 381 564 452 q 322 319 435 319 q 110 426 164 319 q 76 538 79 484 q 72 623 72 592 l 72 726 m 121 618 q 162 433 121 489 q 325 370 209 370 q 512 564 499 370 q 514 625 514 595 l 514 750 q 481 917 514 862 q 321 993 436 993 q 160 921 205 993 q 121 726 121 860 l 121 618 m 378 685 q 407 642 407 677 l 407 581 q 422 566 407 566 l 475 566 l 475 463 l 395 463 q 374 468 379 463 q 368 486 368 473 l 368 632 q 319 675 368 675 l 273 675 q 268 668 268 675 l 268 578 q 282 566 268 566 l 325 566 l 325 463 l 168 463 l 168 566 l 211 566 q 228 581 228 566 l 228 786 q 211 794 228 794 l 167 794 l 167 895 q 231 895 200 895 l 326 896 q 409 880 385 896 q 456 782 456 850 q 378 685 456 699 m 351 710 q 418 751 418 710 q 364 794 418 794 l 277 794 q 268 790 268 794 l 268 715 q 275 710 268 710 l 351 710 z "},"":{"ha":589,"x_min":125,"x_max":464,"o":"m 464 838 l 125 836 l 126 897 l 464 896 l 464 838 z "},"":{"ha":358,"x_min":50,"x_max":310,"o":"m 179 682 q 122 693 147 682 q 81 723 98 705 q 50 811 49 760 q 124 925 52 894 q 179 936 148 936 q 275 897 238 936 q 310 811 310 861 q 277 726 310 763 q 179 682 238 682 m 117 757 q 122 752 117 757 q 143 739 127 746 q 180 732 159 732 q 216 740 201 732 q 240 760 231 747 q 257 812 257 782 q 214 880 257 859 q 179 886 199 886 q 144 880 159 886 q 119 864 130 874 q 98 820 100 844 q 102 783 97 797 q 117 757 107 768 z "},"":{"ha":486,"x_min":45,"x_max":443,"o":"m 267 648 l 268 461 l 440 461 l 443 412 l 268 411 l 267 235 l 216 232 l 216 411 l 45 408 l 46 460 l 218 461 l 218 646 l 267 648 m 58 117 l 60 168 l 427 170 l 429 121 l 58 117 z "},"":{"ha":359,"x_min":35,"x_max":325,"o":"m 248 778 l 111 775 q 88 773 98 775 q 78 755 78 770 l 78 710 l 35 711 l 36 935 l 79 935 l 78 888 q 154 935 101 935 l 231 935 q 323 871 318 935 q 325 840 325 854 l 323 704 q 271 631 323 655 q 241 618 256 624 l 138 572 q 87 494 87 551 l 87 469 l 260 475 q 282 490 282 475 l 282 549 l 323 550 l 317 309 l 45 307 q 43 418 43 387 l 43 482 q 121 610 43 575 l 224 654 q 267 677 260 670 q 279 722 279 690 l 279 747 q 248 778 279 778 z "},"":{"ha":354,"x_min":35,"x_max":319,"o":"m 115 778 q 77 742 77 778 l 77 720 l 35 720 l 36 935 l 85 935 l 85 895 q 109 924 100 918 q 150 935 125 935 l 239 935 q 311 898 290 935 q 317 872 317 886 l 319 705 q 257 624 319 628 l 257 623 q 297 612 286 621 q 319 550 319 595 l 319 414 q 269 316 319 341 q 233 309 252 309 l 146 309 q 81 351 92 309 l 82 310 l 36 309 l 39 533 l 82 533 l 82 490 q 115 456 82 456 l 245 456 q 273 501 273 456 l 273 566 q 259 593 273 582 q 221 604 245 604 l 113 604 l 113 646 l 220 646 q 261 659 250 646 q 273 689 273 672 l 273 739 q 231 775 273 775 l 115 778 z "},"":{"ha":589,"x_min":186,"x_max":401,"o":"m 401 981 l 232 778 l 186 818 l 357 1018 l 401 981 z "},"":{"ha":639,"x_min":25,"x_max":597,"o":"m 469 444 l 469 370 q 468 310 469 348 q 468 208 468 273 q 481 180 468 189 q 513 171 495 171 q 541 183 531 171 q 551 208 551 195 l 551 233 q 552 258 551 245 q 553 285 552 271 l 597 286 l 597 121 q 587 43 597 66 q 513 -5 564 -5 q 425 77 435 -5 q 422 125 422 101 q 334 1 405 26 q 289 -7 312 -7 q 160 103 182 -7 q 161 12 161 53 l 163 -78 l 163 -90 q 186 -115 163 -115 l 250 -115 l 244 -318 l 28 -315 l 28 -114 q 57 -115 45 -115 q 81 -115 70 -115 l 96 -115 q 113 -100 113 -115 l 118 468 q 96 488 118 488 l 31 488 l 25 694 l 260 694 l 260 488 l 207 488 q 177 483 182 488 q 170 454 170 477 l 170 301 q 198 217 170 245 q 281 189 227 189 q 361 200 336 189 q 399 228 387 212 q 416 297 416 252 l 416 457 q 405 483 416 479 q 374 488 393 488 l 347 488 q 329 489 330 488 l 332 694 l 558 690 l 557 488 l 510 488 q 469 461 469 488 l 469 444 z "},"":{"ha":571,"x_min":28,"x_max":543,"o":"m 366 814 q 346 799 348 814 l 346 0 l 201 0 l 205 207 l 282 207 q 292 208 288 207 q 296 216 296 210 l 296 240 l 294 446 l 294 465 q 294 472 294 469 q 285 476 293 476 l 227 476 q 116 512 168 476 q 41 636 64 549 q 28 749 28 682 q 77 943 28 869 q 175 1025 113 999 q 252 1042 214 1042 l 458 1042 l 458 249 q 476 208 458 216 q 490 205 483 205 q 503 205 498 205 l 543 205 l 539 0 l 406 -1 l 410 790 q 407 810 410 806 q 395 814 404 814 l 366 814 m 271 528 q 298 550 298 528 q 298 576 298 555 q 297 623 298 596 q 296 680 297 650 q 295 734 296 709 q 294 776 295 760 l 294 791 q 291 810 294 805 q 268 815 287 815 l 245 815 q 122 755 161 815 q 104 681 104 729 q 118 602 104 633 q 151 555 132 571 q 221 528 182 528 l 271 528 z "},"":{"ha":314,"x_min":41,"x_max":272,"o":"m 41 477 q 46 513 41 494 q 64 548 51 532 q 158 586 94 586 q 244 549 213 586 q 272 490 272 518 q 266 443 272 462 q 246 407 260 423 q 157 371 215 371 q 67 406 98 371 q 41 477 41 435 z "},"":{"ha":589,"x_min":119,"x_max":468,"o":"m 346 -133 q 316 -132 329 -132 q 252 -138 303 -132 l 250 16 l 306 14 l 306 -82 q 347 -79 328 -79 q 389 -86 367 -79 q 429 -105 411 -92 q 468 -173 468 -135 q 458 -237 468 -212 q 428 -281 448 -262 q 295 -321 385 -321 q 119 -282 205 -321 l 121 -222 q 292 -265 222 -265 q 412 -191 412 -265 q 346 -133 412 -137 z "},"":{"ha":321,"x_min":28,"x_max":300,"o":"m 150 722 q 97 751 150 751 l 28 751 l 29 888 l 102 888 q 138 911 127 888 q 140 922 140 918 l 140 936 l 197 935 q 191 505 191 530 q 210 468 191 468 l 300 468 l 300 307 l 33 307 l 36 468 l 125 468 q 142 475 138 468 q 146 488 146 482 l 150 722 z "},"":{"ha":389,"x_min":43,"x_max":346,"o":"m 43 608 l 44 713 q 45 787 45 754 q 47 845 46 821 q 61 890 48 869 q 196 935 91 935 q 343 860 327 935 q 346 831 346 845 l 346 579 q 333 498 346 521 q 304 464 320 476 q 196 437 266 437 q 61 483 92 437 q 44 535 45 508 q 43 576 43 562 l 43 608 m 288 779 q 280 784 288 779 q 250 793 271 789 q 195 798 229 798 q 138 794 160 798 q 104 783 116 791 q 83 733 83 770 l 83 636 q 100 591 83 602 q 196 575 130 575 q 279 586 261 575 q 301 608 297 597 q 304 632 304 618 l 304 733 q 288 779 304 768 m 336 321 l 53 319 l 54 370 l 336 368 l 336 321 z "},"":{"ha":478,"x_min":46,"x_max":446,"o":"m 46 155 l 216 395 l 52 636 l 94 667 l 279 397 l 89 126 l 46 155 m 212 155 l 383 395 l 218 636 l 261 667 l 446 397 l 256 126 l 212 155 z "},"":{"ha":842,"x_min":41,"x_max":800,"o":"m 646 200 q 635 210 646 210 l 447 210 q 431 215 432 210 q 433 227 430 221 q 447 248 436 233 q 475 288 458 262 q 517 346 493 313 q 568 419 541 380 q 529 421 545 419 l 528 571 l 733 571 l 729 419 l 688 419 l 689 260 q 696 252 689 252 l 754 252 q 761 254 760 252 q 762 261 762 256 l 762 296 l 800 296 l 800 171 l 766 171 l 766 201 q 757 211 766 211 l 699 211 q 690 208 690 211 l 690 165 q 703 154 690 154 l 757 154 l 761 0 l 575 0 l 578 151 l 636 151 q 646 165 646 151 l 646 200 m 150 722 q 97 751 150 751 l 41 751 l 43 888 l 102 888 q 138 911 127 888 q 140 922 140 918 l 140 936 l 197 935 q 191 559 191 582 q 210 524 191 524 l 286 524 l 286 363 l 47 363 l 50 524 l 125 524 q 142 531 138 524 q 146 543 146 538 l 150 722 m 157 16 l 623 935 l 667 918 l 201 0 l 157 16 m 635 252 q 644 252 643 252 q 644 283 644 253 q 642 419 644 313 l 615 419 l 498 252 l 635 252 z "},"":{"ha":852,"x_min":41,"x_max":811,"o":"m 733 421 l 597 418 q 574 415 585 418 q 564 399 564 413 l 564 346 l 521 347 l 522 571 l 566 571 l 564 524 q 640 571 587 571 l 717 571 q 810 507 804 571 q 811 476 811 491 l 810 430 l 810 368 q 757 294 810 317 q 728 282 742 288 l 624 236 q 574 170 574 215 l 574 154 l 746 160 q 768 175 768 160 q 770 196 768 185 q 774 216 772 206 q 774 240 778 237 l 810 241 l 803 0 l 530 -1 q 529 39 530 18 q 529 87 529 60 l 529 146 q 607 273 529 239 l 710 318 q 752 346 739 331 q 765 391 765 361 q 733 421 765 421 m 150 728 q 97 757 150 757 l 41 757 l 43 888 l 102 888 q 138 911 127 888 q 140 922 140 918 l 140 936 l 197 935 q 191 554 191 577 q 210 518 191 518 l 286 518 l 286 363 l 47 363 l 50 518 l 125 518 q 142 525 138 518 q 146 538 146 532 l 150 728 m 157 16 l 623 935 l 667 918 l 201 0 l 157 16 m 768 240 l 774 240 l 768 240 z "},"":{"ha":848,"x_min":46,"x_max":807,"o":"m 653 200 q 642 210 653 210 l 454 210 q 438 215 439 210 q 440 227 437 221 q 454 248 443 233 q 482 288 465 262 q 524 346 500 313 q 575 419 547 380 q 536 421 552 419 l 534 571 l 741 571 l 736 419 l 694 419 l 696 260 q 703 252 696 252 l 761 252 q 769 254 768 252 q 770 261 770 256 l 770 296 l 807 296 l 807 171 l 774 171 l 774 201 q 764 211 774 211 l 705 211 q 697 208 697 211 l 697 165 q 710 154 697 154 l 764 154 l 768 0 l 582 0 l 585 151 l 643 151 q 653 165 653 151 l 653 200 m 126 785 q 87 749 87 785 l 87 720 l 46 720 l 47 935 l 96 935 l 96 895 q 120 924 111 918 q 161 935 136 935 l 236 935 q 308 898 287 935 q 314 872 314 886 l 317 733 q 254 652 317 656 l 254 650 q 294 640 283 648 q 317 578 317 622 l 317 469 q 266 372 317 397 q 231 364 250 364 l 157 364 q 92 407 102 364 l 93 366 l 47 364 l 50 589 l 93 589 l 93 539 q 126 504 93 504 l 243 504 q 271 550 271 504 l 271 593 q 256 621 271 610 q 218 632 242 632 l 123 632 l 123 673 l 216 673 q 259 687 247 673 q 271 717 271 700 l 271 746 q 228 782 271 782 l 126 785 m 164 16 l 629 935 l 673 918 l 208 0 l 164 16 m 642 252 q 651 252 650 252 q 652 270 652 253 q 648 419 652 287 l 623 419 l 505 252 l 642 252 z "},"":{"ha":444,"x_min":69,"x_max":403,"o":"m 313 -87 q 351 -35 351 -87 l 351 24 l 399 24 l 403 -317 l 350 -318 l 353 -243 q 317 -299 339 -279 q 253 -318 295 -318 l 158 -318 q 91 -286 118 -318 q 69 -233 69 -260 l 70 -164 l 71 -56 l 72 37 q 117 119 72 87 q 136 132 128 126 l 189 168 q 232 237 232 196 l 232 254 l 231 342 q 229 422 230 379 l 282 422 l 282 232 q 237 137 282 171 q 222 126 227 130 l 154 83 q 122 28 122 62 l 122 -52 q 134 -78 122 -67 q 157 -89 145 -89 l 313 -87 m 363 621 q 358 586 363 604 q 340 551 353 567 q 245 513 311 513 q 159 549 191 513 q 132 609 132 581 q 138 656 132 637 q 158 692 144 675 q 248 728 189 728 q 336 693 305 728 q 363 621 363 664 z "},"":{"ha":591,"x_min":7,"x_max":581,"o":"m 509 818 q 412 815 414 815 q 404 803 402 815 q 404 798 404 800 q 408 773 404 796 q 419 713 412 750 q 434 628 425 675 q 451 531 442 581 q 469 433 460 481 q 484 347 477 385 q 507 238 502 248 q 525 228 511 228 l 578 228 l 581 -3 l 332 3 l 329 229 l 411 229 q 436 242 428 229 q 443 263 444 256 q 439 289 442 270 q 431 337 436 307 q 419 407 426 368 q 406 488 413 446 l 215 488 l 170 267 q 167 234 164 243 q 182 225 170 225 l 260 225 l 257 -1 l 7 -1 l 12 228 l 69 228 q 110 252 104 228 q 125 321 113 265 q 148 424 138 377 q 170 520 159 471 q 191 617 180 570 q 210 703 201 665 q 224 767 218 741 q 231 800 229 792 q 216 814 234 814 l 135 814 l 132 1042 l 507 1039 l 509 818 m 225 536 l 397 538 q 381 635 389 588 q 349 808 353 802 q 336 815 345 815 l 296 815 q 281 802 283 815 l 225 536 m 193 1344 l 363 1144 l 317 1104 l 148 1307 l 193 1344 z "},"":{"ha":591,"x_min":7,"x_max":581,"o":"m 509 818 q 412 815 414 815 q 404 803 402 815 q 404 798 404 800 q 408 773 404 796 q 419 713 412 750 q 434 628 425 675 q 451 531 442 581 q 469 433 460 481 q 484 347 477 385 q 507 238 502 248 q 525 228 511 228 l 578 228 l 581 -3 l 332 3 l 329 229 l 411 229 q 436 242 428 229 q 443 263 444 256 q 439 289 442 270 q 431 337 436 307 q 419 407 426 368 q 406 488 413 446 l 215 488 l 170 267 q 167 234 164 243 q 182 225 170 225 l 260 225 l 257 -1 l 7 -1 l 12 228 l 69 228 q 110 252 104 228 q 125 321 113 265 q 148 424 138 377 q 170 520 159 471 q 191 617 180 570 q 210 703 201 665 q 224 767 218 741 q 231 800 229 792 q 216 814 234 814 l 135 814 l 132 1042 l 507 1039 l 509 818 m 225 536 l 397 538 q 381 635 389 588 q 349 808 353 802 q 336 815 345 815 l 296 815 q 281 802 283 815 l 225 536 m 486 1307 l 317 1104 l 271 1144 l 441 1344 l 486 1307 z "},"":{"ha":591,"x_min":7,"x_max":581,"o":"m 509 818 q 412 815 414 815 q 404 803 402 815 q 404 798 404 800 q 408 773 404 796 q 419 713 412 750 q 434 628 425 675 q 451 531 442 581 q 469 433 460 481 q 484 347 477 385 q 507 238 502 248 q 525 228 511 228 l 578 228 l 581 -3 l 332 3 l 329 229 l 411 229 q 436 242 428 229 q 443 263 444 256 q 439 289 442 270 q 431 337 436 307 q 419 407 426 368 q 406 488 413 446 l 215 488 l 170 267 q 167 234 164 243 q 182 225 170 225 l 260 225 l 257 -1 l 7 -1 l 12 228 l 69 228 q 110 252 104 228 q 125 321 113 265 q 148 424 138 377 q 170 520 159 471 q 191 617 180 570 q 210 703 201 665 q 224 767 218 741 q 231 800 229 792 q 216 814 234 814 l 135 814 l 132 1042 l 507 1039 l 509 818 m 225 536 l 397 538 q 381 635 389 588 q 349 808 353 802 q 336 815 345 815 l 296 815 q 281 802 283 815 l 225 536 m 327 1339 l 510 1144 l 464 1104 l 322 1257 l 161 1105 l 119 1152 l 327 1339 z "},"":{"ha":591,"x_min":7,"x_max":581,"o":"m 509 818 q 412 815 414 815 q 404 803 402 815 q 404 798 404 800 q 408 773 404 796 q 419 713 412 750 q 434 628 425 675 q 451 531 442 581 q 469 433 460 481 q 484 347 477 385 q 507 238 502 248 q 525 228 511 228 l 578 228 l 581 -3 l 332 3 l 329 229 l 411 229 q 436 242 428 229 q 443 263 444 256 q 439 289 442 270 q 431 337 436 307 q 419 407 426 368 q 406 488 413 446 l 215 488 l 170 267 q 167 234 164 243 q 182 225 170 225 l 260 225 l 257 -1 l 7 -1 l 12 228 l 69 228 q 110 252 104 228 q 125 321 113 265 q 148 424 138 377 q 170 520 159 471 q 191 617 180 570 q 210 703 201 665 q 224 767 218 741 q 231 800 229 792 q 216 814 234 814 l 135 814 l 132 1042 l 507 1039 l 509 818 m 225 536 l 397 538 q 381 635 389 588 q 349 808 353 802 q 336 815 345 815 l 296 815 q 281 802 283 815 l 225 536 m 446 1214 l 446 1274 q 445 1319 445 1295 l 500 1319 l 502 1251 q 406 1107 502 1107 q 316 1164 346 1107 q 290 1215 298 1199 q 275 1243 283 1230 q 237 1274 254 1274 q 211 1267 219 1274 q 199 1251 203 1260 q 191 1221 191 1235 l 191 1190 q 191 1157 191 1175 q 192 1118 191 1139 l 135 1116 q 134 1150 134 1133 q 134 1186 134 1167 l 134 1223 q 152 1286 134 1263 q 231 1331 186 1331 q 307 1285 271 1331 q 336 1240 323 1264 q 354 1206 348 1217 q 367 1186 359 1195 q 401 1164 386 1164 q 424 1168 416 1164 q 436 1181 431 1173 q 446 1214 446 1195 z "},"":{"ha":591,"x_min":7,"x_max":581,"o":"m 509 818 q 412 815 414 815 q 404 803 402 815 q 404 798 404 800 q 408 773 404 796 q 419 713 412 750 q 434 628 425 675 q 451 531 442 581 q 469 433 460 481 q 484 347 477 385 q 507 238 502 248 q 525 228 511 228 l 578 228 l 581 -3 l 332 3 l 329 229 l 411 229 q 436 242 428 229 q 443 263 444 256 q 439 289 442 270 q 431 337 436 307 q 419 407 426 368 q 406 488 413 446 l 215 488 l 170 267 q 167 234 164 243 q 182 225 170 225 l 260 225 l 257 -1 l 7 -1 l 12 228 l 69 228 q 110 252 104 228 q 125 321 113 265 q 148 424 138 377 q 170 520 159 471 q 191 617 180 570 q 210 703 201 665 q 224 767 218 741 q 231 800 229 792 q 216 814 234 814 l 135 814 l 132 1042 l 507 1039 l 509 818 m 225 536 l 397 538 q 381 635 389 588 q 349 808 353 802 q 336 815 345 815 l 296 815 q 281 802 283 815 l 225 536 m 269 1255 l 262 1135 l 144 1133 l 140 1255 l 269 1255 m 488 1258 l 488 1133 l 371 1137 l 366 1254 l 488 1258 z "},"":{"ha":591,"x_min":7,"x_max":581,"o":"m 509 818 q 412 815 414 815 q 404 803 402 815 q 404 798 404 800 q 408 773 404 796 q 419 713 412 750 q 434 628 425 675 q 451 531 442 581 q 469 433 460 481 q 484 347 477 385 q 507 238 502 248 q 525 228 511 228 l 578 228 l 581 -3 l 332 3 l 329 229 l 411 229 q 436 242 428 229 q 443 263 444 256 q 439 289 442 270 q 431 337 436 307 q 419 407 426 368 q 406 488 413 446 l 215 488 l 170 267 q 167 234 164 243 q 182 225 170 225 l 260 225 l 257 -1 l 7 -1 l 12 228 l 69 228 q 110 252 104 228 q 125 321 113 265 q 148 424 138 377 q 170 520 159 471 q 191 617 180 570 q 210 703 201 665 q 224 767 218 741 q 231 800 229 792 q 216 814 234 814 l 135 814 l 132 1042 l 507 1039 l 509 818 m 225 536 l 397 538 q 381 635 389 588 q 349 808 353 802 q 336 815 345 815 l 296 815 q 281 802 283 815 l 225 536 m 315 1076 q 255 1088 281 1076 q 211 1120 229 1101 q 178 1215 176 1159 q 214 1306 178 1268 q 315 1347 252 1347 q 418 1305 378 1347 q 454 1215 454 1267 q 418 1122 454 1164 q 315 1076 380 1076 m 250 1166 q 258 1157 250 1166 q 280 1142 265 1149 q 316 1135 296 1135 q 352 1143 337 1135 q 376 1162 367 1151 q 393 1206 393 1184 q 389 1241 393 1227 q 375 1265 385 1254 q 324 1288 353 1288 q 281 1282 296 1288 q 257 1265 267 1276 q 236 1214 237 1246 q 250 1166 235 1183 z "},"":{"ha":852,"x_min":0,"x_max":811,"o":"m 404 233 q 433 286 433 233 l 433 488 l 236 488 l 157 272 q 170 231 141 231 l 253 231 l 250 -1 l 0 -1 l 5 233 l 57 233 q 97 257 86 233 q 192 514 108 275 q 285 778 277 753 q 292 810 294 803 q 281 817 290 817 l 196 817 l 195 1042 l 326 1042 l 427 1042 l 663 1042 l 783 1042 l 779 694 l 729 693 l 730 698 l 730 755 q 647 819 730 810 q 586 822 621 822 q 529 817 550 822 q 497 804 507 811 q 484 771 484 793 l 484 561 l 581 561 q 602 569 592 561 q 613 594 612 578 q 614 626 614 610 l 614 657 q 614 693 614 675 l 664 696 l 668 357 l 619 357 l 619 402 q 618 441 618 421 q 609 492 616 481 q 594 507 601 503 q 573 514 583 514 q 527 513 551 514 q 484 511 503 512 q 483 420 483 463 l 482 346 l 482 290 q 495 247 482 259 q 530 231 513 231 l 714 231 q 762 290 762 231 l 762 345 q 761 375 761 360 l 811 376 l 803 -4 q 642 3 686 3 l 578 3 l 545 3 l 418 1 q 315 0 368 1 l 315 233 l 404 233 m 433 783 q 397 821 433 821 q 345 799 353 821 q 342 791 342 793 l 252 536 l 433 538 l 433 783 z "},"":{"ha":539,"x_min":49,"x_max":494,"o":"m 52 224 l 49 792 l 49 861 q 159 1029 49 989 q 236 1042 195 1042 l 307 1042 q 410 1006 369 1042 q 444 965 433 986 l 441 1039 l 494 1039 l 492 643 l 444 640 l 444 718 q 418 788 444 762 q 345 814 393 814 l 208 815 q 107 755 133 815 q 98 710 98 735 l 102 334 q 161 235 102 248 q 193 232 178 232 l 354 232 q 420 253 397 232 q 444 307 444 275 l 445 357 q 441 436 445 382 l 490 440 q 491 363 490 405 l 492 187 q 410 12 492 47 q 353 1 384 1 l 305 1 l 282 0 l 282 -82 q 323 -79 304 -79 q 365 -86 343 -79 q 404 -105 387 -92 q 444 -173 444 -135 q 434 -237 444 -212 q 404 -281 425 -262 q 273 -321 362 -321 q 96 -282 184 -321 l 97 -222 q 268 -265 198 -265 q 389 -191 389 -265 q 323 -133 389 -137 q 292 -132 305 -132 q 228 -138 279 -132 l 227 0 l 204 0 q 52 174 52 0 l 52 224 z "},"":{"ha":571,"x_min":24,"x_max":529,"o":"m 122 233 q 151 286 151 233 l 151 757 q 123 812 151 804 q 62 817 106 817 l 24 817 l 24 1039 q 140 1040 85 1040 l 279 1042 l 501 1042 l 497 694 l 447 693 q 449 742 449 707 q 439 789 449 777 q 410 810 429 802 q 323 822 378 822 q 247 817 268 822 q 215 804 225 811 q 201 771 201 793 l 201 561 l 298 561 q 320 569 310 561 q 331 594 330 578 q 332 626 332 610 q 332 657 332 626 q 332 693 332 675 l 382 696 l 386 357 l 338 357 l 338 402 q 336 441 337 421 q 327 492 335 481 q 312 507 319 503 q 290 514 300 514 q 245 513 269 514 q 201 511 221 512 q 201 420 201 463 l 200 346 l 200 290 q 213 247 200 258 q 249 231 232 231 l 432 231 q 481 290 481 231 l 480 345 q 479 375 479 360 l 529 376 l 521 -4 q 360 3 404 3 l 296 3 l 262 3 l 136 1 q 33 0 86 1 l 33 233 l 122 233 m 137 1344 l 308 1144 l 262 1104 l 92 1307 l 137 1344 z "},"":{"ha":571,"x_min":24,"x_max":529,"o":"m 122 233 q 151 286 151 233 l 151 757 q 123 812 151 804 q 62 817 106 817 l 24 817 l 24 1039 q 140 1040 85 1040 l 279 1042 l 501 1042 l 497 694 l 447 693 q 449 742 449 707 q 439 789 449 777 q 410 810 429 802 q 323 822 378 822 q 247 817 268 822 q 215 804 225 811 q 201 771 201 793 l 201 561 l 298 561 q 320 569 310 561 q 331 594 330 578 q 332 626 332 610 q 332 657 332 626 q 332 693 332 675 l 382 696 l 386 357 l 338 357 l 338 402 q 336 441 337 421 q 327 492 335 481 q 312 507 319 503 q 290 514 300 514 q 245 513 269 514 q 201 511 221 512 q 201 420 201 463 l 200 346 l 200 290 q 213 247 200 258 q 249 231 232 231 l 432 231 q 481 290 481 231 l 480 345 q 479 375 479 360 l 529 376 l 521 -4 q 360 3 404 3 l 296 3 l 262 3 l 136 1 q 33 0 86 1 l 33 233 l 122 233 m 431 1307 l 261 1104 l 215 1144 l 386 1344 l 431 1307 z "},"":{"ha":571,"x_min":24,"x_max":529,"o":"m 122 233 q 151 286 151 233 l 151 757 q 123 812 151 804 q 62 817 106 817 l 24 817 l 24 1039 q 140 1040 85 1040 l 279 1042 l 501 1042 l 497 694 l 447 693 q 449 742 449 707 q 439 789 449 777 q 410 810 429 802 q 323 822 378 822 q 247 817 268 822 q 215 804 225 811 q 201 771 201 793 l 201 561 l 298 561 q 320 569 310 561 q 331 594 330 578 q 332 626 332 610 q 332 657 332 626 q 332 693 332 675 l 382 696 l 386 357 l 338 357 l 338 402 q 336 441 337 421 q 327 492 335 481 q 312 507 319 503 q 290 514 300 514 q 245 513 269 514 q 201 511 221 512 q 201 420 201 463 l 200 346 l 200 290 q 213 247 200 258 q 249 231 232 231 l 432 231 q 481 290 481 231 l 480 345 q 479 375 479 360 l 529 376 l 521 -4 q 360 3 404 3 l 296 3 l 262 3 l 136 1 q 33 0 86 1 l 33 233 l 122 233 m 272 1339 l 455 1144 l 409 1104 l 267 1257 l 106 1105 l 64 1152 l 272 1339 z "},"":{"ha":571,"x_min":24,"x_max":529,"o":"m 122 233 q 151 286 151 233 l 151 757 q 123 812 151 804 q 62 817 106 817 l 24 817 l 24 1039 q 140 1040 85 1040 l 279 1042 l 501 1042 l 497 694 l 447 693 q 449 742 449 707 q 439 789 449 777 q 410 810 429 802 q 323 822 378 822 q 247 817 268 822 q 215 804 225 811 q 201 771 201 793 l 201 561 l 298 561 q 320 569 310 561 q 331 594 330 578 q 332 626 332 610 q 332 657 332 626 q 332 693 332 675 l 382 696 l 386 357 l 338 357 l 338 402 q 336 441 337 421 q 327 492 335 481 q 312 507 319 503 q 290 514 300 514 q 245 513 269 514 q 201 511 221 512 q 201 420 201 463 l 200 346 l 200 290 q 213 247 200 258 q 249 231 232 231 l 432 231 q 481 290 481 231 l 480 345 q 479 375 479 360 l 529 376 l 521 -4 q 360 3 404 3 l 296 3 l 262 3 l 136 1 q 33 0 86 1 l 33 233 l 122 233 m 214 1255 l 208 1135 l 90 1133 l 85 1255 l 214 1255 m 433 1258 l 433 1133 l 316 1137 l 311 1254 l 433 1258 z "},"":{"ha":351,"x_min":18,"x_max":322,"o":"m 153 783 q 126 812 153 812 l 47 812 q 52 1036 47 1000 q 102 1039 77 1038 q 200 1042 151 1042 q 322 1039 243 1042 l 310 817 q 284 815 296 816 q 260 815 272 815 l 240 815 q 214 804 224 815 q 204 771 204 792 q 199 268 204 771 q 225 236 199 236 l 318 236 l 310 3 q 196 -1 237 1 q 130 -3 154 -2 q 85 -4 105 -3 q 35 -5 45 -5 l 36 90 l 36 240 l 125 240 q 149 268 149 240 l 152 692 l 153 783 m 63 1344 l 234 1144 l 188 1104 l 18 1307 l 63 1344 z "},"":{"ha":351,"x_min":35,"x_max":357,"o":"m 153 783 q 126 812 153 812 l 47 812 q 52 1036 47 1000 q 102 1039 77 1038 q 200 1042 151 1042 q 322 1039 243 1042 l 310 817 q 284 815 296 816 q 260 815 272 815 l 240 815 q 214 804 224 815 q 204 771 204 792 q 199 268 204 771 q 225 236 199 236 l 318 236 l 310 3 q 196 -1 237 1 q 130 -3 154 -2 q 85 -4 105 -3 q 35 -5 45 -5 l 36 90 l 36 240 l 125 240 q 149 268 149 240 l 152 692 l 153 783 m 357 1307 l 188 1104 l 142 1144 l 313 1344 l 357 1307 z "},"":{"ha":351,"x_min":-9,"x_max":381,"o":"m 153 783 q 126 812 153 812 l 47 812 q 52 1036 47 1000 q 102 1039 77 1038 q 200 1042 151 1042 q 322 1039 243 1042 l 310 817 q 284 815 296 816 q 260 815 272 815 l 240 815 q 214 804 224 815 q 204 771 204 792 q 199 268 204 771 q 225 236 199 236 l 318 236 l 310 3 q 196 -1 237 1 q 130 -3 154 -2 q 85 -4 105 -3 q 35 -5 45 -5 l 36 90 l 36 240 l 125 240 q 149 268 149 240 l 152 692 l 153 783 m 198 1339 l 381 1144 l 335 1104 l 193 1257 l 33 1105 l -9 1152 l 198 1339 z "},"":{"ha":351,"x_min":12,"x_max":359,"o":"m 153 783 q 126 812 153 812 l 47 812 q 52 1036 47 1000 q 102 1039 77 1038 q 200 1042 151 1042 q 322 1039 243 1042 l 310 817 q 284 815 296 816 q 260 815 272 815 l 240 815 q 214 804 224 815 q 204 771 204 792 q 199 268 204 771 q 225 236 199 236 l 318 236 l 310 3 q 196 -1 237 1 q 130 -3 154 -2 q 85 -4 105 -3 q 35 -5 45 -5 l 36 90 l 36 240 l 125 240 q 149 268 149 240 l 152 692 l 153 783 m 140 1255 l 134 1135 l 16 1133 l 12 1255 l 140 1255 m 359 1258 l 359 1133 l 242 1137 l 237 1254 l 359 1258 z "},"":{"ha":564,"x_min":35,"x_max":515,"o":"m 144 237 q 146 242 144 237 q 150 261 149 248 q 151 318 151 275 q 149 517 151 362 l 47 517 l 46 566 l 149 566 l 149 739 q 135 795 149 779 q 90 811 122 811 l 35 811 l 35 1040 q 144 1041 88 1040 l 353 1042 q 509 947 489 1042 q 515 879 515 916 l 515 174 q 422 5 515 21 q 366 0 395 0 l 41 0 l 41 225 l 114 225 q 144 237 138 225 m 201 346 l 201 257 q 224 224 201 227 q 236 222 230 222 l 415 222 q 464 259 460 222 q 465 282 465 270 l 465 760 q 426 819 465 813 q 400 821 414 821 l 239 821 q 206 805 214 821 q 199 766 199 789 l 199 706 q 200 566 199 646 l 338 566 l 338 517 l 200 517 l 201 346 z "},"":{"ha":644,"x_min":37,"x_max":611,"o":"m 73 227 l 121 228 q 146 265 146 228 l 146 799 q 141 813 146 810 q 122 817 137 817 l 40 817 l 40 1042 l 176 1042 q 202 1033 199 1042 q 208 1015 205 1023 l 447 250 l 454 253 q 457 478 456 396 q 458 608 458 560 q 459 694 458 656 q 459 759 459 733 q 460 790 460 785 q 422 821 460 821 l 376 820 q 355 819 365 819 l 346 1039 q 472 1042 449 1042 l 611 1042 l 603 821 q 578 821 590 821 l 542 822 q 510 787 510 822 l 498 8 q 488 -8 498 -8 q 469 8 475 -8 l 215 817 q 205 826 213 827 q 197 817 197 825 l 197 279 q 232 235 197 235 l 302 235 l 311 -1 l 37 1 l 37 227 q 73 227 56 227 m 457 1214 l 456 1274 q 456 1319 456 1295 l 511 1319 l 513 1251 q 416 1107 513 1107 q 327 1164 357 1107 q 301 1215 309 1199 q 286 1243 294 1230 q 248 1274 265 1274 q 222 1267 230 1274 q 210 1251 214 1260 q 201 1221 201 1235 l 201 1190 q 202 1157 201 1175 q 203 1118 202 1139 l 146 1116 q 145 1150 145 1133 q 144 1186 144 1167 l 144 1223 q 163 1286 144 1263 q 241 1331 197 1331 q 317 1285 281 1331 q 347 1240 334 1264 q 365 1206 359 1217 q 378 1186 370 1195 q 412 1164 397 1164 q 434 1168 427 1164 q 447 1181 441 1173 q 457 1214 457 1195 z "},"":{"ha":546,"x_min":49,"x_max":494,"o":"m 52 193 l 49 846 l 49 901 q 88 1002 49 964 q 173 1039 126 1039 q 255 1040 219 1040 l 339 1042 l 355 1042 q 460 981 422 1042 q 490 878 490 932 l 494 300 l 494 155 q 403 14 494 49 q 342 3 375 3 l 178 0 q 79 54 115 0 q 52 149 52 96 l 52 193 m 216 229 l 359 232 q 433 283 414 232 q 440 330 440 302 l 440 708 q 338 807 440 807 l 208 807 q 108 747 131 807 q 100 705 100 726 l 100 658 l 102 388 l 102 336 q 139 252 102 279 q 216 229 169 229 m 146 1344 l 317 1144 l 271 1104 l 102 1307 l 146 1344 z "},"":{"ha":546,"x_min":49,"x_max":494,"o":"m 52 193 l 49 846 l 49 901 q 88 1002 49 964 q 173 1039 126 1039 q 255 1040 219 1040 l 339 1042 l 355 1042 q 460 981 422 1042 q 490 878 490 932 l 494 300 l 494 155 q 403 14 494 49 q 342 3 375 3 l 178 0 q 79 54 115 0 q 52 149 52 96 l 52 193 m 216 229 l 359 232 q 433 283 414 232 q 440 330 440 302 l 440 708 q 338 807 440 807 l 208 807 q 108 747 131 807 q 100 705 100 726 l 100 658 l 102 388 l 102 336 q 139 252 102 279 q 216 229 169 229 m 440 1307 l 271 1104 l 224 1144 l 395 1344 l 440 1307 z "},"":{"ha":546,"x_min":49,"x_max":494,"o":"m 52 193 l 49 846 l 49 901 q 88 1002 49 964 q 173 1039 126 1039 q 255 1040 219 1040 l 339 1042 l 355 1042 q 460 981 422 1042 q 490 878 490 932 l 494 300 l 494 155 q 403 14 494 49 q 342 3 375 3 l 178 0 q 79 54 115 0 q 52 149 52 96 l 52 193 m 216 229 l 359 232 q 433 283 414 232 q 440 330 440 302 l 440 708 q 338 807 440 807 l 208 807 q 108 747 131 807 q 100 705 100 726 l 100 658 l 102 388 l 102 336 q 139 252 102 279 q 216 229 169 229 m 281 1339 l 465 1144 l 418 1104 l 277 1257 l 116 1105 l 74 1152 l 281 1339 z "},"":{"ha":546,"x_min":49,"x_max":494,"o":"m 52 193 l 49 846 l 49 901 q 88 1002 49 964 q 173 1039 126 1039 q 255 1040 219 1040 l 339 1042 l 355 1042 q 460 981 422 1042 q 490 878 490 932 l 494 300 l 494 155 q 403 14 494 49 q 342 3 375 3 l 178 0 q 79 54 115 0 q 52 149 52 96 l 52 193 m 216 229 l 359 232 q 433 283 414 232 q 440 330 440 302 l 440 708 q 338 807 440 807 l 208 807 q 108 747 131 807 q 100 705 100 726 l 100 658 l 102 388 l 102 336 q 139 252 102 279 q 216 229 169 229 m 401 1214 l 400 1274 q 399 1319 399 1295 l 454 1319 l 456 1251 q 360 1107 456 1107 q 271 1164 300 1107 q 245 1215 252 1199 q 229 1243 237 1230 q 191 1274 209 1274 q 165 1267 174 1274 q 153 1251 157 1260 q 145 1221 145 1235 l 145 1190 q 145 1157 145 1175 q 146 1118 146 1139 l 90 1116 q 89 1150 89 1133 q 88 1186 88 1167 l 88 1223 q 106 1286 88 1263 q 185 1331 140 1331 q 261 1285 225 1331 q 290 1240 278 1264 q 308 1206 302 1217 q 321 1186 314 1195 q 356 1164 340 1164 q 378 1168 371 1164 q 391 1181 385 1173 q 401 1214 401 1195 z "},"":{"ha":546,"x_min":49,"x_max":494,"o":"m 52 193 l 49 846 l 49 901 q 88 1002 49 964 q 173 1039 126 1039 q 255 1040 219 1040 l 339 1042 l 355 1042 q 460 981 422 1042 q 490 878 490 932 l 494 300 l 494 155 q 403 14 494 49 q 342 3 375 3 l 178 0 q 79 54 115 0 q 52 149 52 96 l 52 193 m 216 229 l 359 232 q 433 283 414 232 q 440 330 440 302 l 440 708 q 338 807 440 807 l 208 807 q 108 747 131 807 q 100 705 100 726 l 100 658 l 102 388 l 102 336 q 139 252 102 279 q 216 229 169 229 m 223 1255 l 217 1135 l 99 1133 l 95 1255 l 223 1255 m 442 1258 l 442 1133 l 326 1137 l 320 1254 l 442 1258 z "},"":{"ha":486,"x_min":46,"x_max":439,"o":"m 78 632 l 241 471 l 392 623 l 429 589 l 277 435 l 439 271 l 406 233 l 240 399 l 90 245 l 56 283 l 205 435 l 46 596 l 78 632 z "},"":{"ha":546,"x_min":22,"x_max":509,"o":"m 342 3 l 178 0 q 122 12 145 0 l 71 -138 l 22 -122 l 81 50 q 52 149 52 94 l 52 193 l 49 846 l 49 901 q 88 1004 49 964 q 172 1040 125 1040 q 244 1041 219 1040 q 286 1041 270 1041 l 339 1042 l 355 1042 q 416 1023 391 1042 l 460 1146 l 509 1129 l 458 983 q 490 878 490 933 l 494 300 l 494 155 q 403 14 494 49 q 342 3 375 3 m 216 229 l 359 232 q 433 283 414 232 q 440 330 440 302 l 440 708 q 393 796 440 772 l 197 229 l 216 229 m 100 658 l 102 388 l 102 336 q 149 244 102 270 l 342 807 l 208 807 q 108 747 131 807 q 100 705 100 726 l 100 658 z "},"":{"ha":654,"x_min":40,"x_max":614,"o":"m 134 125 l 132 789 q 109 814 132 814 l 40 814 l 41 1039 l 283 1042 l 282 821 q 248 819 263 820 q 204 818 219 818 q 183 794 183 818 l 183 310 q 210 244 183 266 q 256 228 229 228 l 397 228 q 464 274 446 228 q 470 306 470 290 l 470 408 l 469 720 l 469 796 q 442 818 469 818 l 376 818 l 370 1040 l 612 1042 l 614 818 q 585 817 598 817 q 559 817 572 817 l 541 817 q 520 793 520 817 l 524 304 l 524 129 q 508 38 524 60 q 473 8 492 16 q 422 0 453 0 l 237 0 q 134 125 134 0 m 182 1344 l 353 1144 l 307 1104 l 138 1307 l 182 1344 z "},"":{"ha":654,"x_min":40,"x_max":614,"o":"m 134 125 l 132 789 q 109 814 132 814 l 40 814 l 41 1039 l 283 1042 l 282 821 q 248 819 263 820 q 204 818 219 818 q 183 794 183 818 l 183 310 q 210 244 183 266 q 256 228 229 228 l 397 228 q 464 274 446 228 q 470 306 470 290 l 470 408 l 469 720 l 469 796 q 442 818 469 818 l 376 818 l 370 1040 l 612 1042 l 614 818 q 585 817 598 817 q 559 817 572 817 l 541 817 q 520 793 520 817 l 524 304 l 524 129 q 508 38 524 60 q 473 8 492 16 q 422 0 453 0 l 237 0 q 134 125 134 0 m 524 1307 l 355 1104 l 309 1144 l 479 1344 l 524 1307 z "},"":{"ha":654,"x_min":40,"x_max":614,"o":"m 134 125 l 132 789 q 109 814 132 814 l 40 814 l 41 1039 l 283 1042 l 282 821 q 248 819 263 820 q 204 818 219 818 q 183 794 183 818 l 183 310 q 210 244 183 266 q 256 228 229 228 l 397 228 q 464 274 446 228 q 470 306 470 290 l 470 408 l 469 720 l 469 796 q 442 818 469 818 l 376 818 l 370 1040 l 612 1042 l 614 818 q 585 817 598 817 q 559 817 572 817 l 541 817 q 520 793 520 817 l 524 304 l 524 129 q 508 38 524 60 q 473 8 492 16 q 422 0 453 0 l 237 0 q 134 125 134 0 m 337 1339 l 520 1144 l 474 1104 l 332 1257 l 172 1105 l 130 1152 l 337 1339 z "},"":{"ha":654,"x_min":40,"x_max":614,"o":"m 134 125 l 132 789 q 109 814 132 814 l 40 814 l 41 1039 l 283 1042 l 282 821 q 248 819 263 820 q 204 818 219 818 q 183 794 183 818 l 183 310 q 210 244 183 266 q 256 228 229 228 l 397 228 q 464 274 446 228 q 470 306 470 290 l 470 408 l 469 720 l 469 796 q 442 818 469 818 l 376 818 l 370 1040 l 612 1042 l 614 818 q 585 817 598 817 q 559 817 572 817 l 541 817 q 520 793 520 817 l 524 304 l 524 129 q 508 38 524 60 q 473 8 492 16 q 422 0 453 0 l 237 0 q 134 125 134 0 m 286 1255 l 279 1135 l 161 1133 l 157 1255 l 286 1255 m 505 1258 l 505 1133 l 388 1137 l 382 1254 l 505 1258 z "},"":{"ha":629,"x_min":14,"x_max":615,"o":"m 269 283 l 271 401 q 272 517 271 453 q 213 626 235 585 q 178 690 191 667 q 155 733 165 713 q 136 767 144 753 q 122 791 129 781 q 87 815 105 815 l 73 815 q 48 815 62 815 q 16 817 34 816 l 14 1040 l 264 1042 l 258 818 q 186 821 193 821 q 174 817 178 821 q 170 808 169 814 q 177 789 170 801 q 190 767 184 777 q 203 741 195 757 q 222 707 212 726 q 249 655 232 688 q 296 567 266 623 q 345 643 327 614 q 374 687 363 671 q 394 717 385 703 q 409 741 403 731 q 421 760 416 751 q 443 804 443 793 q 415 814 443 814 l 368 814 l 367 1042 l 615 1036 l 607 807 l 541 807 q 488 778 505 807 q 477 761 485 774 q 456 728 469 747 q 322 522 371 598 q 319 378 320 419 q 318 318 319 337 q 318 286 318 299 l 318 268 q 328 244 318 250 q 357 237 338 237 l 443 237 l 435 0 l 147 0 l 143 232 l 228 232 q 269 267 269 232 l 269 283 m 479 1307 l 310 1104 l 264 1144 l 435 1344 l 479 1307 z "},"":{"ha":550,"x_min":35,"x_max":529,"o":"m 149 248 l 153 671 l 153 783 q 126 812 153 812 l 47 812 q 52 1036 47 1000 q 102 1039 77 1038 q 200 1042 151 1042 q 336 1039 244 1042 l 323 817 l 241 817 q 210 812 215 817 q 202 786 203 805 q 204 756 201 766 q 221 746 206 746 l 306 746 q 433 715 372 746 q 515 625 489 686 q 529 546 529 592 q 516 466 529 499 q 484 411 504 433 q 441 376 465 389 q 395 357 417 363 q 330 346 359 346 l 216 346 q 208 342 208 346 q 207 335 207 338 l 206 293 l 205 245 q 209 236 205 237 q 220 235 213 235 l 323 235 l 328 0 l 35 0 l 40 233 q 87 234 66 233 l 138 235 q 149 248 149 235 m 203 419 q 231 397 203 397 l 322 397 q 438 469 400 397 q 454 539 454 499 q 445 602 454 580 q 421 639 436 624 q 389 664 407 654 q 353 679 371 673 q 297 688 325 688 l 233 688 q 210 683 214 688 q 207 664 207 677 l 206 648 q 206 606 206 631 q 205 550 205 581 q 204 493 204 520 q 203 445 203 465 q 203 419 203 425 z "},"":{"ha":558,"x_min":28,"x_max":517,"o":"m 126 220 q 118 908 126 341 q 218 1032 118 1002 q 290 1042 250 1042 q 365 1033 330 1042 q 427 997 400 1023 q 488 793 488 937 q 453 627 488 694 q 397 558 429 579 l 397 553 q 517 317 517 513 q 423 16 517 77 q 374 0 397 0 q 248 -3 351 0 l 243 201 l 379 201 q 439 225 422 203 q 469 364 469 266 q 429 488 469 447 q 355 521 397 521 l 237 521 l 236 570 l 326 570 q 395 605 366 570 q 427 708 427 644 q 395 802 427 771 q 292 833 363 833 q 178 787 201 833 q 171 762 171 774 l 170 718 q 179 1 170 429 l 31 -1 l 28 200 l 110 200 q 126 220 126 200 z "},"":{"ha":571,"x_min":41,"x_max":542,"o":"m 410 437 q 260 505 410 505 q 111 437 111 505 l 111 414 l 64 411 l 68 704 l 114 703 l 114 629 q 199 684 147 668 q 299 700 251 700 q 377 686 347 700 q 426 651 408 671 q 458 568 458 614 l 459 469 l 460 317 l 461 231 q 484 203 461 203 l 542 203 l 541 0 l 392 -1 l 392 90 q 345 35 378 57 q 218 -7 281 -7 q 41 186 41 -7 q 94 336 41 285 q 191 375 134 375 l 370 375 q 398 385 391 375 q 410 414 410 399 l 410 437 m 240 187 q 410 301 410 187 q 404 322 410 313 q 389 332 397 332 l 320 331 l 196 330 q 121 286 138 330 q 115 260 115 273 q 240 187 115 187 m 132 1018 l 302 818 l 256 778 l 87 981 l 132 1018 z "},"":{"ha":571,"x_min":41,"x_max":542,"o":"m 410 437 q 260 505 410 505 q 111 437 111 505 l 111 414 l 64 411 l 68 704 l 114 703 l 114 629 q 199 684 147 668 q 299 700 251 700 q 377 686 347 700 q 426 651 408 671 q 458 568 458 614 l 459 469 l 460 317 l 461 231 q 484 203 461 203 l 542 203 l 541 0 l 392 -1 l 392 90 q 345 35 378 57 q 218 -7 281 -7 q 41 186 41 -7 q 94 336 41 285 q 191 375 134 375 l 370 375 q 398 385 391 375 q 410 414 410 399 l 410 437 m 240 187 q 410 301 410 187 q 404 322 410 313 q 389 332 397 332 l 320 331 l 196 330 q 121 286 138 330 q 115 260 115 273 q 240 187 115 187 m 425 981 l 256 778 l 210 818 l 380 1018 l 425 981 z "},"":{"ha":571,"x_min":41,"x_max":542,"o":"m 410 437 q 260 505 410 505 q 111 437 111 505 l 111 414 l 64 411 l 68 704 l 114 703 l 114 629 q 199 684 147 668 q 299 700 251 700 q 377 686 347 700 q 426 651 408 671 q 458 568 458 614 l 459 469 l 460 317 l 461 231 q 484 203 461 203 l 542 203 l 541 0 l 392 -1 l 392 90 q 345 35 378 57 q 218 -7 281 -7 q 41 186 41 -7 q 94 336 41 285 q 191 375 134 375 l 370 375 q 398 385 391 375 q 410 414 410 399 l 410 437 m 240 187 q 410 301 410 187 q 404 322 410 313 q 389 332 397 332 l 320 331 l 196 330 q 121 286 138 330 q 115 260 115 273 q 240 187 115 187 m 267 1013 l 450 818 l 404 778 l 262 930 l 101 779 l 59 825 l 267 1013 z "},"":{"ha":571,"x_min":41,"x_max":542,"o":"m 410 437 q 260 505 410 505 q 111 437 111 505 l 111 414 l 64 411 l 68 704 l 114 703 l 114 629 q 199 684 147 668 q 299 700 251 700 q 377 686 347 700 q 426 651 408 671 q 458 568 458 614 l 459 469 l 460 317 l 461 231 q 484 203 461 203 l 542 203 l 541 0 l 392 -1 l 392 90 q 345 35 378 57 q 218 -7 281 -7 q 41 186 41 -7 q 94 336 41 285 q 191 375 134 375 l 370 375 q 398 385 391 375 q 410 414 410 399 l 410 437 m 240 187 q 410 301 410 187 q 404 322 410 313 q 389 332 397 332 l 320 331 l 196 330 q 121 286 138 330 q 115 260 115 273 q 240 187 115 187 m 386 888 l 385 947 q 385 993 385 968 l 439 993 l 441 925 q 345 781 441 781 q 256 838 286 781 q 230 888 237 873 q 214 917 222 904 q 176 947 194 947 q 151 941 159 947 q 138 925 142 934 q 130 895 130 909 l 130 864 q 131 831 130 848 q 132 791 131 813 l 75 790 q 74 824 74 807 q 73 860 73 841 l 73 897 q 92 960 73 937 q 170 1004 125 1004 q 246 959 210 1004 q 275 914 263 938 q 293 880 288 890 q 307 860 299 869 q 341 838 326 838 q 363 842 356 838 q 376 854 370 847 q 386 888 386 869 z "},"":{"ha":571,"x_min":41,"x_max":542,"o":"m 410 437 q 260 505 410 505 q 111 437 111 505 l 111 414 l 64 411 l 68 704 l 114 703 l 114 629 q 199 684 147 668 q 299 700 251 700 q 377 686 347 700 q 426 651 408 671 q 458 568 458 614 l 459 469 l 460 317 l 461 231 q 484 203 461 203 l 542 203 l 541 0 l 392 -1 l 392 90 q 345 35 378 57 q 218 -7 281 -7 q 41 186 41 -7 q 94 336 41 285 q 191 375 134 375 l 370 375 q 398 385 391 375 q 410 414 410 399 l 410 437 m 240 187 q 410 301 410 187 q 404 322 410 313 q 389 332 397 332 l 320 331 l 196 330 q 121 286 138 330 q 115 260 115 273 q 240 187 115 187 m 208 929 l 202 808 l 84 807 l 80 929 l 208 929 m 427 932 l 427 807 l 311 811 l 305 928 l 427 932 z "},"":{"ha":571,"x_min":41,"x_max":542,"o":"m 410 437 q 260 505 410 505 q 111 437 111 505 l 111 414 l 64 411 l 68 704 l 114 703 l 114 629 q 199 684 147 668 q 299 700 251 700 q 377 686 347 700 q 426 651 408 671 q 458 568 458 614 l 459 469 l 460 317 l 461 231 q 484 203 461 203 l 542 203 l 541 0 l 392 -1 l 392 90 q 345 35 378 57 q 218 -7 281 -7 q 41 186 41 -7 q 94 336 41 285 q 191 375 134 375 l 370 375 q 398 385 391 375 q 410 414 410 399 l 410 437 m 240 187 q 410 301 410 187 q 404 322 410 313 q 389 332 397 332 l 320 331 l 196 330 q 121 286 138 330 q 115 260 115 273 q 240 187 115 187 m 255 750 q 195 762 221 750 q 151 793 168 774 q 117 888 116 833 q 153 980 117 942 q 255 1021 191 1021 q 357 979 318 1021 q 393 888 393 941 q 358 796 393 838 q 255 750 319 750 m 190 840 q 197 831 190 840 q 220 816 205 823 q 256 809 235 809 q 292 817 277 809 q 316 836 307 825 q 333 880 333 858 q 329 915 333 901 q 315 939 324 928 q 264 962 292 962 q 221 956 235 962 q 197 939 206 949 q 176 888 177 920 q 190 840 174 857 z "},"":{"ha":865,"x_min":41,"x_max":830,"o":"m 436 618 q 633 705 487 705 q 826 582 805 705 q 830 542 830 561 q 829 511 829 524 q 823 349 829 498 l 460 340 l 460 292 q 632 191 460 191 q 740 205 703 191 q 777 244 777 220 l 777 286 l 822 292 q 817 134 817 191 q 797 49 817 76 q 746 9 778 22 q 596 -12 697 -12 q 416 102 446 -12 q 218 -7 361 -7 q 41 186 41 -7 q 94 343 41 294 q 191 379 132 379 l 370 379 q 398 389 391 379 q 410 418 410 404 l 410 437 q 260 505 410 505 q 111 437 111 505 l 111 414 l 64 411 l 68 704 l 114 703 l 114 629 q 199 684 147 668 q 300 700 251 700 q 436 618 406 700 m 115 260 q 240 187 115 187 q 401 256 372 187 q 410 296 410 276 q 379 336 410 336 l 316 336 l 196 335 q 121 287 138 335 q 115 260 115 273 m 779 404 l 779 443 q 633 509 779 509 q 495 472 540 509 q 460 390 460 442 q 521 391 492 391 q 580 392 550 392 q 632 393 610 393 q 679 394 654 394 q 728 395 705 395 q 778 396 752 396 q 779 404 778 398 z "},"":{"ha":492,"x_min":41,"x_max":450,"o":"m 46 146 l 41 542 q 100 667 41 625 q 253 705 154 705 q 404 633 353 705 l 404 704 l 450 704 l 444 389 l 399 389 l 399 443 q 286 509 399 503 q 230 510 259 510 q 172 505 200 510 q 126 488 144 500 q 92 403 92 464 l 91 339 l 90 261 q 121 194 90 213 q 248 171 155 171 q 397 240 393 171 l 399 294 l 446 296 q 444 247 445 271 q 443 148 443 201 q 429 64 443 96 q 391 16 415 33 q 258 -9 353 -8 l 258 -82 q 300 -79 280 -79 q 341 -86 319 -79 q 381 -105 363 -92 q 421 -173 421 -134 q 411 -237 421 -212 q 381 -281 401 -262 q 249 -321 338 -321 q 72 -282 160 -321 l 74 -222 q 242 -265 175 -265 q 337 -244 309 -265 q 366 -196 366 -222 q 356 -157 366 -169 q 331 -140 346 -145 q 283 -132 311 -132 q 204 -138 256 -132 l 203 -8 q 52 85 71 -1 q 46 146 46 113 z "},"":{"ha":497,"x_min":41,"x_max":462,"o":"m 41 167 l 47 534 q 118 669 47 625 q 247 705 176 705 q 354 694 319 705 q 412 665 390 683 q 444 626 433 648 q 458 582 454 604 q 461 542 462 561 q 461 502 461 524 q 456 353 461 480 q 93 345 456 353 l 93 292 q 264 191 93 191 q 372 205 335 191 q 408 244 408 220 l 408 286 l 454 292 q 449 134 449 191 q 430 49 449 76 q 378 9 410 22 q 228 -12 330 -12 q 41 167 41 -12 m 410 406 l 411 443 q 265 509 411 509 q 92 395 92 509 l 410 400 q 410 406 410 401 m 132 1018 l 302 818 l 256 778 l 87 981 l 132 1018 z "},"":{"ha":497,"x_min":41,"x_max":462,"o":"m 41 167 l 47 534 q 118 669 47 625 q 247 705 176 705 q 354 694 319 705 q 412 665 390 683 q 444 626 433 648 q 458 582 454 604 q 461 542 462 561 q 461 502 461 524 q 456 353 461 480 q 93 345 456 353 l 93 292 q 264 191 93 191 q 372 205 335 191 q 408 244 408 220 l 408 286 l 454 292 q 449 134 449 191 q 430 49 449 76 q 378 9 410 22 q 228 -12 330 -12 q 41 167 41 -12 m 410 406 l 411 443 q 265 509 411 509 q 92 395 92 509 l 410 400 q 410 406 410 401 m 425 981 l 256 778 l 210 818 l 380 1018 l 425 981 z "},"":{"ha":497,"x_min":41,"x_max":462,"o":"m 41 167 l 47 534 q 118 669 47 625 q 247 705 176 705 q 354 694 319 705 q 412 665 390 683 q 444 626 433 648 q 458 582 454 604 q 461 542 462 561 q 461 502 461 524 q 456 353 461 480 q 93 345 456 353 l 93 292 q 264 191 93 191 q 372 205 335 191 q 408 244 408 220 l 408 286 l 454 292 q 449 134 449 191 q 430 49 449 76 q 378 9 410 22 q 228 -12 330 -12 q 41 167 41 -12 m 410 406 l 411 443 q 265 509 411 509 q 92 395 92 509 l 410 400 q 410 406 410 401 m 267 1013 l 450 818 l 404 778 l 262 930 l 101 779 l 59 825 l 267 1013 z "},"":{"ha":497,"x_min":41,"x_max":462,"o":"m 41 167 l 47 534 q 118 669 47 625 q 247 705 176 705 q 354 694 319 705 q 412 665 390 683 q 444 626 433 648 q 458 582 454 604 q 461 542 462 561 q 461 502 461 524 q 456 353 461 480 q 93 345 456 353 l 93 292 q 264 191 93 191 q 372 205 335 191 q 408 244 408 220 l 408 286 l 454 292 q 449 134 449 191 q 430 49 449 76 q 378 9 410 22 q 228 -12 330 -12 q 41 167 41 -12 m 410 406 l 411 443 q 265 509 411 509 q 92 395 92 509 l 410 400 q 410 406 410 401 m 208 929 l 202 808 l 84 807 l 80 929 l 208 929 m 427 932 l 427 807 l 311 811 l 305 928 l 427 932 z "},"":{"ha":307,"x_min":-56,"x_max":297,"o":"m 107 201 q 139 232 139 201 l 139 463 q 132 481 139 476 q 104 486 124 486 l 26 486 l 26 694 l 192 694 q 187 251 187 270 l 187 225 q 193 210 187 218 q 210 201 199 201 l 297 201 l 297 0 l 26 0 l 29 201 l 107 201 m -12 1018 l 159 818 l 113 778 l -56 981 l -12 1018 z "},"":{"ha":307,"x_min":26,"x_max":297,"o":"m 107 201 q 139 232 139 201 l 139 463 q 132 481 139 476 q 104 486 124 486 l 26 486 l 26 694 l 192 694 q 187 251 187 270 l 187 225 q 193 210 187 218 q 210 201 199 201 l 297 201 l 297 0 l 26 0 l 29 201 l 107 201 m 283 981 l 113 778 l 67 818 l 238 1018 l 283 981 z "},"":{"ha":307,"x_min":-84,"x_max":307,"o":"m 107 201 q 139 232 139 201 l 139 463 q 132 481 139 476 q 104 486 124 486 l 26 486 l 26 694 l 192 694 q 187 251 187 270 l 187 225 q 193 210 187 218 q 210 201 199 201 l 297 201 l 297 0 l 26 0 l 29 201 l 107 201 m 123 1013 l 307 818 l 260 778 l 119 930 l -42 779 l -84 825 l 123 1013 z "},"":{"ha":307,"x_min":-63,"x_max":297,"o":"m 107 201 q 139 232 139 201 l 139 463 q 132 481 139 476 q 104 486 124 486 l 26 486 l 26 694 l 192 694 q 187 251 187 270 l 187 225 q 193 210 187 218 q 210 201 199 201 l 297 201 l 297 0 l 26 0 l 29 201 l 107 201 m 65 929 l 59 808 l -59 807 l -63 929 l 65 929 m 284 932 l 284 807 l 168 811 l 162 928 l 284 932 z "},"":{"ha":489,"x_min":43,"x_max":476,"o":"m 43 236 l 44 375 q 45 466 45 427 q 46 528 46 505 q 51 573 46 551 q 67 614 56 595 q 100 647 78 633 q 248 677 149 677 q 393 646 347 677 q 326 867 383 796 q 186 753 290 840 l 151 791 l 292 901 q 114 979 199 962 l 136 1029 q 329 929 248 994 l 449 1025 l 476 983 l 363 896 q 444 635 436 808 q 446 538 446 586 l 446 197 q 429 83 446 115 q 391 34 412 51 q 248 -5 340 -5 q 67 60 108 -5 q 44 135 45 96 q 43 194 43 174 l 43 236 m 92 390 l 92 279 q 123 212 92 230 q 225 192 157 192 q 323 197 294 192 q 369 213 352 203 q 397 273 397 231 l 397 390 q 367 460 397 439 q 267 482 334 482 q 123 463 154 482 q 92 390 92 443 z "},"":{"ha":629,"x_min":22,"x_max":610,"o":"m 140 441 q 87 486 140 486 l 22 486 l 25 694 l 197 694 l 189 595 q 211 637 189 613 q 251 673 233 662 q 347 699 293 699 q 434 680 401 699 q 486 635 467 661 q 521 536 519 590 q 520 458 522 508 q 518 375 519 408 q 515 314 517 342 q 513 241 513 257 q 516 218 513 225 q 525 207 520 211 q 547 200 534 200 l 610 200 l 607 -1 l 375 0 l 368 201 l 431 201 q 463 235 463 201 l 465 393 q 396 486 465 462 q 334 494 372 494 q 267 486 295 494 q 222 465 239 478 q 191 406 192 444 q 187 334 188 374 q 186 272 186 294 q 186 240 186 250 q 220 200 186 200 l 278 200 l 281 0 l 31 -1 l 29 201 l 102 201 q 136 231 136 201 l 140 441 m 449 888 l 448 947 q 448 993 448 968 l 503 993 l 505 925 q 408 781 505 781 q 319 838 349 781 q 293 888 300 873 q 277 917 286 904 q 239 947 257 947 q 214 941 222 947 q 201 925 205 934 q 193 895 193 909 l 193 864 q 194 831 193 848 q 195 791 194 813 l 138 790 q 137 824 137 807 q 136 860 136 841 l 136 897 q 155 960 136 937 q 233 1004 189 1004 q 309 959 273 1004 q 338 914 326 938 q 356 880 351 890 q 370 860 362 869 q 404 838 389 838 q 426 842 419 838 q 439 854 433 847 q 449 888 449 869 z "},"":{"ha":489,"x_min":43,"x_max":446,"o":"m 43 235 l 44 385 q 45 485 45 443 q 46 551 46 528 q 51 596 46 574 q 67 637 56 618 q 100 671 78 656 q 248 701 149 701 q 427 635 389 701 q 446 566 446 601 l 446 195 q 429 80 446 113 q 391 31 412 48 q 248 -8 340 -8 q 67 57 108 -8 q 44 132 45 93 q 43 191 43 170 l 43 235 m 92 414 l 92 277 q 123 209 92 227 q 225 189 157 189 q 323 195 294 189 q 369 210 352 200 q 397 271 397 228 l 397 414 q 367 483 397 462 q 267 505 334 505 q 123 486 155 505 q 92 414 92 467 m 123 1018 l 294 818 l 248 778 l 78 981 l 123 1018 z "},"":{"ha":489,"x_min":43,"x_max":446,"o":"m 43 235 l 44 385 q 45 485 45 443 q 46 551 46 528 q 51 596 46 574 q 67 637 56 618 q 100 671 78 656 q 248 701 149 701 q 427 635 389 701 q 446 566 446 601 l 446 195 q 429 80 446 113 q 391 31 412 48 q 248 -8 340 -8 q 67 57 108 -8 q 44 132 45 93 q 43 191 43 170 l 43 235 m 92 414 l 92 277 q 123 209 92 227 q 225 189 157 189 q 323 195 294 189 q 369 210 352 200 q 397 271 397 228 l 397 414 q 367 483 397 462 q 267 505 334 505 q 123 486 155 505 q 92 414 92 467 m 417 981 l 248 778 l 201 818 l 372 1018 l 417 981 z "},"":{"ha":489,"x_min":43,"x_max":446,"o":"m 43 235 l 44 385 q 45 485 45 443 q 46 551 46 528 q 51 596 46 574 q 67 637 56 618 q 100 671 78 656 q 248 701 149 701 q 427 635 389 701 q 446 566 446 601 l 446 195 q 429 80 446 113 q 391 31 412 48 q 248 -8 340 -8 q 67 57 108 -8 q 44 132 45 93 q 43 191 43 170 l 43 235 m 92 414 l 92 277 q 123 209 92 227 q 225 189 157 189 q 323 195 294 189 q 369 210 352 200 q 397 271 397 228 l 397 414 q 367 483 397 462 q 267 505 334 505 q 123 486 155 505 q 92 414 92 467 m 258 1013 l 441 818 l 395 778 l 253 930 l 92 779 l 50 825 l 258 1013 z "},"":{"ha":489,"x_min":43,"x_max":446,"o":"m 43 235 l 44 385 q 45 485 45 443 q 46 551 46 528 q 51 596 46 574 q 67 637 56 618 q 100 671 78 656 q 248 701 149 701 q 427 635 389 701 q 446 566 446 601 l 446 195 q 429 80 446 113 q 391 31 412 48 q 248 -8 340 -8 q 67 57 108 -8 q 44 132 45 93 q 43 191 43 170 l 43 235 m 92 414 l 92 277 q 123 209 92 227 q 225 189 157 189 q 323 195 294 189 q 369 210 352 200 q 397 271 397 228 l 397 414 q 367 483 397 462 q 267 505 334 505 q 123 486 155 505 q 92 414 92 467 m 377 888 l 376 947 q 376 993 376 968 l 431 993 l 433 925 q 336 781 433 781 q 247 838 277 781 q 221 888 229 873 q 205 917 214 904 q 168 947 185 947 q 142 941 150 947 q 130 925 134 934 q 121 895 121 909 l 121 864 q 122 831 121 848 q 123 791 122 813 l 66 790 q 65 824 65 807 q 64 860 64 841 l 64 897 q 83 960 64 937 q 161 1004 117 1004 q 237 959 201 1004 q 267 914 254 938 q 284 880 279 890 q 298 860 290 869 q 332 838 317 838 q 354 842 347 838 q 367 854 361 847 q 377 888 377 869 z "},"":{"ha":489,"x_min":43,"x_max":446,"o":"m 43 235 l 44 385 q 45 485 45 443 q 46 551 46 528 q 51 596 46 574 q 67 637 56 618 q 100 671 78 656 q 248 701 149 701 q 427 635 389 701 q 446 566 446 601 l 446 195 q 429 80 446 113 q 391 31 412 48 q 248 -8 340 -8 q 67 57 108 -8 q 44 132 45 93 q 43 191 43 170 l 43 235 m 92 414 l 92 277 q 123 209 92 227 q 225 189 157 189 q 323 195 294 189 q 369 210 352 200 q 397 271 397 228 l 397 414 q 367 483 397 462 q 267 505 334 505 q 123 486 155 505 q 92 414 92 467 m 199 929 l 193 808 l 75 807 l 71 929 l 199 929 m 418 932 l 418 807 l 302 811 l 296 928 l 418 932 z "},"":{"ha":486,"x_min":58,"x_max":429,"o":"m 427 461 l 429 412 l 58 408 l 60 460 l 427 461 m 200 261 q 197 265 200 261 q 190 279 193 269 q 187 297 187 288 q 190 315 187 306 q 198 332 192 324 q 237 351 214 351 q 271 346 260 351 q 288 334 281 341 q 301 304 301 319 q 298 280 301 290 q 289 262 296 271 q 251 244 274 244 q 218 249 229 244 q 200 261 207 254 m 202 538 q 199 542 202 538 q 192 555 195 546 q 189 574 189 565 q 192 592 189 583 q 200 609 194 601 q 238 628 214 628 q 272 623 262 628 q 290 610 283 618 q 302 581 302 595 q 300 557 302 566 q 290 539 297 547 q 253 521 275 521 q 219 526 230 521 q 202 538 208 530 z "},"":{"ha":489,"x_min":43,"x_max":446,"o":"m 390 31 q 379 22 390 31 q 334 3 368 14 q 248 -8 299 -8 q 153 1 197 -8 l 98 -153 l 50 -138 l 106 21 q 43 145 46 56 q 43 191 43 170 l 43 235 l 44 385 q 45 485 45 443 q 46 551 46 528 q 51 596 46 574 q 67 637 56 618 q 100 671 78 656 q 248 701 149 701 q 338 692 296 701 l 387 833 l 436 817 l 386 673 q 446 555 446 640 l 446 195 q 429 80 446 113 q 390 31 412 48 m 261 505 l 227 505 q 130 490 155 505 q 98 457 104 475 q 92 414 92 439 l 92 277 q 107 221 92 241 q 165 195 123 202 l 273 504 q 261 505 267 505 m 397 414 q 382 469 397 448 q 325 498 366 489 l 218 189 l 248 189 q 391 236 373 189 q 397 271 397 251 l 397 414 z "},"":{"ha":623,"x_min":11,"x_max":572,"o":"m 104 468 q 82 488 104 488 l 17 488 l 11 694 l 245 694 l 245 488 l 193 488 q 163 483 169 488 q 155 454 155 477 l 155 275 q 233 199 155 208 q 296 196 258 196 q 362 206 335 196 q 406 232 390 216 q 431 297 431 257 l 431 457 q 418 483 431 479 q 387 488 406 488 l 361 488 q 343 489 345 488 l 346 694 l 572 690 l 571 488 l 524 488 q 484 461 484 488 l 484 445 l 483 379 l 483 339 q 482 255 482 292 q 490 210 482 218 q 522 201 497 201 l 572 201 l 571 0 l 431 0 l 431 94 l 424 94 q 377 21 414 50 q 281 -7 339 -7 q 193 2 224 -7 q 142 33 161 12 q 103 170 103 73 l 103 201 l 104 441 l 104 468 m 163 1018 l 334 818 l 288 778 l 119 981 l 163 1018 z "},"":{"ha":623,"x_min":11,"x_max":572,"o":"m 104 468 q 82 488 104 488 l 17 488 l 11 694 l 245 694 l 245 488 l 193 488 q 163 483 169 488 q 155 454 155 477 l 155 275 q 233 199 155 208 q 296 196 258 196 q 362 206 335 196 q 406 232 390 216 q 431 297 431 257 l 431 457 q 418 483 431 479 q 387 488 406 488 l 361 488 q 343 489 345 488 l 346 694 l 572 690 l 571 488 l 524 488 q 484 461 484 488 l 484 445 l 483 379 l 483 339 q 482 255 482 292 q 490 210 482 218 q 522 201 497 201 l 572 201 l 571 0 l 431 0 l 431 94 l 424 94 q 377 21 414 50 q 281 -7 339 -7 q 193 2 224 -7 q 142 33 161 12 q 103 170 103 73 l 103 201 l 104 441 l 104 468 m 457 981 l 288 778 l 241 818 l 412 1018 l 457 981 z "},"":{"ha":623,"x_min":11,"x_max":572,"o":"m 104 468 q 82 488 104 488 l 17 488 l 11 694 l 245 694 l 245 488 l 193 488 q 163 483 169 488 q 155 454 155 477 l 155 275 q 233 199 155 208 q 296 196 258 196 q 362 206 335 196 q 406 232 390 216 q 431 297 431 257 l 431 457 q 418 483 431 479 q 387 488 406 488 l 361 488 q 343 489 345 488 l 346 694 l 572 690 l 571 488 l 524 488 q 484 461 484 488 l 484 445 l 483 379 l 483 339 q 482 255 482 292 q 490 210 482 218 q 522 201 497 201 l 572 201 l 571 0 l 431 0 l 431 94 l 424 94 q 377 21 414 50 q 281 -7 339 -7 q 193 2 224 -7 q 142 33 161 12 q 103 170 103 73 l 103 201 l 104 441 l 104 468 m 298 1013 l 481 818 l 435 778 l 294 930 l 133 779 l 91 825 l 298 1013 z "},"":{"ha":623,"x_min":11,"x_max":572,"o":"m 104 468 q 82 488 104 488 l 17 488 l 11 694 l 245 694 l 245 488 l 193 488 q 163 483 169 488 q 155 454 155 477 l 155 275 q 233 199 155 208 q 296 196 258 196 q 362 206 335 196 q 406 232 390 216 q 431 297 431 257 l 431 457 q 418 483 431 479 q 387 488 406 488 l 361 488 q 343 489 345 488 l 346 694 l 572 690 l 571 488 l 524 488 q 484 461 484 488 l 484 445 l 483 379 l 483 339 q 482 255 482 292 q 490 210 482 218 q 522 201 497 201 l 572 201 l 571 0 l 431 0 l 431 94 l 424 94 q 377 21 414 50 q 281 -7 339 -7 q 193 2 224 -7 q 142 33 161 12 q 103 170 103 73 l 103 201 l 104 441 l 104 468 m 240 929 l 234 808 l 116 807 l 112 929 l 240 929 m 459 932 l 459 807 l 342 811 l 337 928 l 459 932 z "},"":{"ha":559,"x_min":22,"x_max":541,"o":"m 256 694 l 254 486 l 176 486 q 161 484 168 486 q 155 475 153 481 q 162 456 156 470 q 176 420 168 442 q 197 372 185 399 q 228 297 208 345 q 282 167 247 250 q 361 351 343 307 q 389 417 380 395 q 404 453 398 439 q 412 472 410 467 q 408 481 413 476 q 395 486 403 486 l 334 486 l 330 696 l 541 694 l 541 486 l 490 486 q 477 480 484 486 q 469 470 470 474 q 456 441 467 467 q 428 377 446 416 q 389 286 411 337 q 344 182 367 235 q 298 79 321 130 q 258 -12 276 28 q 218 -104 222 -96 q 217 -117 212 -114 q 222 -118 219 -119 l 293 -118 l 296 -317 l 57 -318 l 56 -121 l 131 -121 q 151 -109 144 -121 l 249 103 l 90 478 q 87 483 89 481 q 75 486 80 486 l 25 486 l 22 694 l 256 694 m 457 981 l 288 778 l 241 818 l 412 1018 l 457 981 z "},"":{"ha":564,"x_min":12,"x_max":522,"o":"m 117 818 q 103 835 117 835 l 12 835 l 16 1039 l 172 1042 l 167 593 q 304 695 218 674 q 355 700 323 700 q 420 687 387 700 q 476 652 453 674 q 522 547 522 609 l 517 163 q 411 6 517 45 q 328 -7 376 -7 q 249 9 281 -7 q 196 43 216 24 q 155 102 174 65 l 153 -35 l 153 -90 q 176 -115 153 -115 l 240 -115 l 235 -318 l 18 -315 l 18 -114 q 48 -115 35 -115 q 72 -115 60 -115 l 86 -115 q 103 -100 103 -115 l 117 818 m 468 283 l 471 421 q 433 491 471 464 q 339 518 395 518 q 249 505 282 518 q 195 472 216 491 q 158 395 158 436 l 158 273 q 241 189 158 212 q 311 180 271 180 q 378 190 350 180 q 426 214 406 199 q 468 283 468 246 z "},"":{"ha":559,"x_min":22,"x_max":541,"o":"m 256 694 l 254 486 l 176 486 q 161 484 168 486 q 155 475 153 481 q 162 456 156 470 q 176 420 168 442 q 197 372 185 399 q 228 297 208 345 q 282 167 247 250 q 361 351 343 307 q 389 417 380 395 q 404 453 398 439 q 412 472 410 467 q 408 481 413 476 q 395 486 403 486 l 334 486 l 330 696 l 541 694 l 541 486 l 490 486 q 477 480 484 486 q 469 470 470 474 q 456 441 467 467 q 428 377 446 416 q 389 286 411 337 q 344 182 367 235 q 298 79 321 130 q 258 -12 276 28 q 218 -104 222 -96 q 217 -117 212 -114 q 222 -118 219 -119 l 293 -118 l 296 -317 l 57 -318 l 56 -121 l 131 -121 q 151 -109 144 -121 l 249 103 l 90 478 q 87 483 89 481 q 75 486 80 486 l 25 486 l 22 694 l 256 694 m 240 929 l 234 808 l 116 807 l 112 929 l 240 929 m 459 932 l 459 807 l 342 811 l 337 928 l 459 932 z "},"":{"ha":591,"x_min":7,"x_max":581,"o":"m 509 818 q 412 815 414 815 q 404 803 402 815 q 404 798 404 800 q 408 773 404 796 q 419 713 412 750 q 434 628 425 675 q 451 531 442 581 q 469 433 460 481 q 484 347 477 385 q 507 238 502 248 q 525 228 511 228 l 578 228 l 581 -3 l 332 3 l 329 229 l 411 229 q 436 242 428 229 q 443 263 444 256 q 439 289 442 270 q 431 337 436 307 q 419 407 426 368 q 406 488 413 446 l 215 488 l 170 267 q 167 234 164 243 q 182 225 170 225 l 260 225 l 257 -1 l 7 -1 l 12 228 l 69 228 q 110 252 104 228 q 125 321 113 265 q 148 424 138 377 q 170 520 159 471 q 191 617 180 570 q 210 703 201 665 q 224 767 218 741 q 231 800 229 792 q 216 814 234 814 l 135 814 l 132 1042 l 507 1039 l 509 818 m 225 536 l 397 538 q 381 635 389 588 q 349 808 353 802 q 336 815 345 815 l 296 815 q 281 802 283 815 l 225 536 m 489 1164 l 150 1162 l 151 1223 l 489 1222 l 489 1164 z "},"":{"ha":571,"x_min":41,"x_max":542,"o":"m 410 437 q 260 505 410 505 q 111 437 111 505 l 111 414 l 64 411 l 68 704 l 114 703 l 114 629 q 199 684 147 668 q 299 700 251 700 q 377 686 347 700 q 426 651 408 671 q 458 568 458 614 l 459 469 l 460 317 l 461 231 q 484 203 461 203 l 542 203 l 541 0 l 392 -1 l 392 90 q 345 35 378 57 q 218 -7 281 -7 q 41 186 41 -7 q 94 336 41 285 q 191 375 134 375 l 370 375 q 398 385 391 375 q 410 414 410 399 l 410 437 m 240 187 q 410 301 410 187 q 404 322 410 313 q 389 332 397 332 l 320 331 l 196 330 q 121 286 138 330 q 115 260 115 273 q 240 187 115 187 m 429 838 l 90 836 l 91 897 l 429 896 l 429 838 z "},"":{"ha":591,"x_min":7,"x_max":581,"o":"m 509 818 q 412 815 414 815 q 404 803 402 815 q 404 798 404 800 q 408 773 404 796 q 419 713 412 750 q 434 628 425 675 q 451 531 442 581 q 469 433 460 481 q 484 347 477 385 q 507 238 502 248 q 525 228 511 228 l 578 228 l 581 -3 l 332 3 l 329 229 l 411 229 q 436 242 428 229 q 443 263 444 256 q 439 289 442 270 q 431 337 436 307 q 419 407 426 368 q 406 488 413 446 l 215 488 l 170 267 q 167 234 164 243 q 182 225 170 225 l 260 225 l 257 -1 l 7 -1 l 12 228 l 69 228 q 110 252 104 228 q 125 321 113 265 q 148 424 138 377 q 170 520 159 471 q 191 617 180 570 q 210 703 201 665 q 224 767 218 741 q 231 800 229 792 q 216 814 234 814 l 135 814 l 132 1042 l 507 1039 l 509 818 m 225 536 l 397 538 q 381 635 389 588 q 349 808 353 802 q 336 815 345 815 l 296 815 q 281 802 283 815 l 225 536 m 518 1305 q 471 1182 518 1236 q 317 1118 416 1118 q 163 1190 214 1118 q 127 1312 127 1244 l 184 1312 q 248 1190 184 1227 q 316 1175 273 1175 q 386 1190 359 1175 q 430 1226 414 1205 q 461 1305 457 1261 l 518 1305 z "},"":{"ha":571,"x_min":41,"x_max":542,"o":"m 410 437 q 260 505 410 505 q 111 437 111 505 l 111 414 l 64 411 l 68 704 l 114 703 l 114 629 q 199 684 147 668 q 299 700 251 700 q 377 686 347 700 q 426 651 408 671 q 458 568 458 614 l 459 469 l 460 317 l 461 231 q 484 203 461 203 l 542 203 l 541 0 l 392 -1 l 392 90 q 345 35 378 57 q 218 -7 281 -7 q 41 186 41 -7 q 94 336 41 285 q 191 375 134 375 l 370 375 q 398 385 391 375 q 410 414 410 399 l 410 437 m 240 187 q 410 301 410 187 q 404 322 410 313 q 389 332 397 332 l 320 331 l 196 330 q 121 286 138 330 q 115 260 115 273 q 240 187 115 187 m 458 979 q 411 856 458 909 q 256 791 355 791 q 103 864 153 791 q 67 986 67 918 l 124 986 q 187 864 124 901 q 256 848 213 848 q 326 864 298 848 q 370 900 353 879 q 401 979 397 935 l 458 979 z "},"":{"ha":591,"x_min":7,"x_max":608,"o":"m 471 -248 q 607 -195 545 -248 l 608 -258 q 477 -302 555 -302 q 361 -270 399 -302 q 323 -180 323 -237 q 433 -35 323 -102 q 498 0 464 -15 l 332 3 l 329 229 l 411 229 q 436 242 428 229 q 443 263 444 256 q 439 289 442 270 q 431 337 436 307 q 419 407 426 368 q 406 488 413 446 l 215 488 l 170 267 q 167 234 164 243 q 182 225 170 225 l 260 225 l 257 -1 l 7 -1 l 12 228 l 69 228 q 110 252 104 228 q 125 321 113 265 q 148 424 138 377 q 170 520 159 471 q 191 617 180 570 q 210 703 201 665 q 224 767 218 741 q 231 800 229 792 q 216 814 234 814 l 135 814 l 132 1042 l 507 1039 l 509 818 q 412 815 414 815 q 404 803 402 815 q 404 798 404 800 q 408 773 404 796 q 419 713 412 750 q 434 628 425 675 q 451 531 442 581 q 469 433 460 481 q 484 347 477 385 q 507 238 502 248 q 525 228 511 228 l 578 228 l 581 -3 q 379 -176 379 -79 q 427 -241 379 -226 q 471 -248 445 -248 m 225 536 l 397 538 q 381 635 389 588 q 349 808 353 802 q 336 815 345 815 l 296 815 q 281 802 283 815 l 225 536 z "},"":{"ha":571,"x_min":41,"x_max":583,"o":"m 410 437 q 260 505 410 505 q 111 437 111 505 l 111 414 l 64 411 l 68 704 l 114 703 l 114 629 q 199 684 147 668 q 299 700 251 700 q 377 686 347 700 q 426 651 408 671 q 458 568 458 614 l 459 469 l 460 317 l 461 231 q 484 203 461 203 l 542 203 l 541 0 q 368 -125 412 -45 q 354 -171 354 -151 q 359 -204 354 -191 q 374 -227 363 -217 q 446 -248 398 -248 q 582 -195 519 -248 l 583 -258 q 452 -302 530 -302 q 336 -270 374 -302 q 298 -180 298 -237 q 346 -75 298 -127 q 454 -1 389 -28 l 392 -1 l 392 90 q 345 35 378 57 q 218 -7 281 -7 q 41 186 41 -7 q 94 336 41 285 q 191 375 134 375 l 370 375 q 398 385 391 375 q 410 414 410 399 l 410 437 m 240 187 q 410 301 410 187 q 404 322 410 313 q 389 332 397 332 l 320 331 l 196 330 q 121 286 138 330 q 115 260 115 273 q 240 187 115 187 z "},"":{"ha":539,"x_min":49,"x_max":494,"o":"m 52 224 l 49 792 l 49 861 q 159 1029 49 989 q 236 1042 195 1042 l 307 1042 q 410 1006 369 1042 q 444 965 433 986 l 441 1039 l 494 1039 l 492 643 l 444 640 l 444 718 q 418 788 444 762 q 345 814 393 814 l 208 815 q 107 755 133 815 q 98 710 98 735 l 102 334 q 161 235 102 248 q 193 232 178 232 l 354 232 q 420 253 397 232 q 444 307 444 275 l 445 357 q 441 436 445 382 l 490 440 q 491 363 490 405 l 492 187 q 410 12 492 47 q 358 1 384 1 l 321 1 l 292 1 l 250 0 l 204 0 q 52 174 52 0 l 52 224 m 439 1307 l 269 1104 l 223 1144 l 394 1344 l 439 1307 z "},"":{"ha":492,"x_min":41,"x_max":450,"o":"m 46 146 l 41 542 q 100 667 41 625 q 253 705 154 705 q 404 633 353 705 l 404 704 l 450 704 l 444 389 l 399 389 l 399 443 q 286 509 399 503 q 230 510 259 510 q 172 505 200 510 q 126 488 144 500 q 92 403 92 464 l 91 339 l 90 261 q 121 194 90 213 q 248 171 155 171 q 397 240 393 171 l 399 294 l 446 296 q 444 247 445 271 q 443 147 443 201 q 427 61 443 93 q 385 13 412 28 q 262 -9 346 -9 q 141 1 179 -9 q 82 33 103 12 q 46 146 46 66 m 410 981 l 240 778 l 194 818 l 365 1018 l 410 981 z "},"":{"ha":539,"x_min":49,"x_max":494,"o":"m 52 224 l 49 792 l 49 861 q 159 1029 49 989 q 236 1042 195 1042 l 307 1042 q 410 1006 369 1042 q 444 965 433 986 l 441 1039 l 494 1039 l 492 643 l 444 640 l 444 718 q 418 788 444 762 q 345 814 393 814 l 208 815 q 107 755 133 815 q 98 710 98 735 l 102 334 q 161 235 102 248 q 193 232 178 232 l 354 232 q 420 253 397 232 q 444 307 444 275 l 445 357 q 441 436 445 382 l 490 440 q 491 363 490 405 l 492 187 q 410 12 492 47 q 358 1 384 1 l 321 1 l 292 1 l 250 0 l 204 0 q 52 174 52 0 l 52 224 m 280 1339 l 463 1144 l 417 1104 l 275 1257 l 115 1105 l 73 1152 l 280 1339 z "},"":{"ha":492,"x_min":41,"x_max":450,"o":"m 46 146 l 41 542 q 100 667 41 625 q 253 705 154 705 q 404 633 353 705 l 404 704 l 450 704 l 444 389 l 399 389 l 399 443 q 286 509 399 503 q 230 510 259 510 q 172 505 200 510 q 126 488 144 500 q 92 403 92 464 l 91 339 l 90 261 q 121 194 90 213 q 248 171 155 171 q 397 240 393 171 l 399 294 l 446 296 q 444 247 445 271 q 443 147 443 201 q 427 61 443 93 q 385 13 412 28 q 262 -9 346 -9 q 141 1 179 -9 q 82 33 103 12 q 46 146 46 66 m 251 1013 l 434 818 l 388 778 l 246 930 l 85 779 l 43 825 l 251 1013 z "},"":{"ha":539,"x_min":49,"x_max":494,"o":"m 52 224 l 49 792 l 49 861 q 159 1029 49 989 q 236 1042 195 1042 l 307 1042 q 410 1006 369 1042 q 444 965 433 986 l 441 1039 l 494 1039 l 492 643 l 444 640 l 444 718 q 418 788 444 762 q 345 814 393 814 l 208 815 q 107 755 133 815 q 98 710 98 735 l 102 334 q 161 235 102 248 q 193 232 178 232 l 354 232 q 420 253 397 232 q 444 307 444 275 l 445 357 q 441 436 445 382 l 490 440 q 491 363 490 405 l 492 187 q 410 12 492 47 q 358 1 384 1 l 321 1 l 292 1 l 250 0 l 204 0 q 52 174 52 0 l 52 224 m 344 1286 l 336 1147 l 202 1145 l 197 1286 l 344 1286 z "},"":{"ha":492,"x_min":41,"x_max":450,"o":"m 46 146 l 41 542 q 100 667 41 625 q 253 705 154 705 q 404 633 353 705 l 404 704 l 450 704 l 444 389 l 399 389 l 399 443 q 286 509 399 503 q 230 510 259 510 q 172 505 200 510 q 126 488 144 500 q 92 403 92 464 l 91 339 l 90 261 q 121 194 90 213 q 248 171 155 171 q 397 240 393 171 l 399 294 l 446 296 q 444 247 445 271 q 443 147 443 201 q 427 61 443 93 q 385 13 412 28 q 262 -9 346 -9 q 141 1 179 -9 q 82 33 103 12 q 46 146 46 66 m 315 960 l 307 821 l 173 819 l 168 960 l 315 960 z "},"":{"ha":539,"x_min":49,"x_max":494,"o":"m 52 224 l 49 792 l 49 861 q 159 1029 49 989 q 236 1042 195 1042 l 307 1042 q 410 1006 369 1042 q 444 965 433 986 l 441 1039 l 494 1039 l 492 643 l 444 640 l 444 718 q 418 788 444 762 q 345 814 393 814 l 208 815 q 107 755 133 815 q 98 710 98 735 l 102 334 q 161 235 102 248 q 193 232 178 232 l 354 232 q 420 253 397 232 q 444 307 444 275 l 445 357 q 441 436 445 382 l 490 440 q 491 363 490 405 l 492 187 q 410 12 492 47 q 358 1 384 1 l 321 1 l 292 1 l 250 0 l 204 0 q 52 174 52 0 l 52 224 m 272 1104 l 88 1299 l 134 1339 l 276 1186 l 437 1337 l 479 1291 l 272 1104 z "},"":{"ha":492,"x_min":41,"x_max":450,"o":"m 46 146 l 41 542 q 100 667 41 625 q 253 705 154 705 q 404 633 353 705 l 404 704 l 450 704 l 444 389 l 399 389 l 399 443 q 286 509 399 503 q 230 510 259 510 q 172 505 200 510 q 126 488 144 500 q 92 403 92 464 l 91 339 l 90 261 q 121 194 90 213 q 248 171 155 171 q 397 240 393 171 l 399 294 l 446 296 q 444 247 445 271 q 443 147 443 201 q 427 61 443 93 q 385 13 412 28 q 262 -9 346 -9 q 141 1 179 -9 q 82 33 103 12 q 46 146 46 66 m 243 778 l 59 972 l 105 1013 l 247 860 l 408 1011 l 450 965 l 243 778 z "},"":{"ha":564,"x_min":35,"x_max":515,"o":"m 151 321 l 149 706 l 149 739 q 135 795 149 779 q 90 811 122 811 l 35 811 l 35 1040 q 144 1041 88 1040 l 353 1042 q 509 947 489 1042 q 515 879 515 916 l 515 174 q 422 5 515 21 q 366 0 395 0 l 41 0 l 41 225 l 114 225 q 144 237 138 225 q 151 277 151 253 l 151 321 m 200 523 l 201 288 l 201 257 q 224 224 201 227 q 236 222 230 222 l 415 222 q 464 259 460 222 q 465 282 465 270 l 465 760 q 426 819 465 813 q 400 821 414 821 l 239 821 q 206 805 214 821 q 199 766 199 789 q 200 523 199 631 m 264 1104 l 81 1299 l 127 1339 l 269 1186 l 429 1337 l 471 1291 l 264 1104 z "},"":{"ha":673,"x_min":41,"x_max":632,"o":"m 449 244 q 478 201 449 201 l 561 201 l 561 1 l 410 -1 l 410 97 q 307 -4 387 14 q 231 -11 277 -11 q 148 2 184 -11 q 87 37 111 14 q 41 163 41 81 l 41 526 q 232 700 41 700 q 352 660 306 700 q 400 578 389 628 l 399 796 q 366 836 397 836 l 286 836 l 290 1040 l 452 1042 l 449 794 l 449 244 m 90 404 l 90 267 q 119 199 90 221 q 221 171 155 171 q 318 178 287 171 q 367 197 349 184 q 400 272 400 220 l 400 404 q 368 483 400 459 q 263 510 330 510 q 123 483 157 510 q 90 404 90 456 m 632 1042 l 629 933 q 528 798 629 846 l 504 838 q 575 909 566 858 l 498 909 l 494 1042 l 632 1042 z "},"":{"ha":564,"x_min":35,"x_max":515,"o":"m 144 237 q 146 242 144 237 q 150 261 149 248 q 151 318 151 275 q 149 517 151 362 l 47 517 l 46 566 l 149 566 l 149 739 q 135 795 149 779 q 90 811 122 811 l 35 811 l 35 1040 q 144 1041 88 1040 l 353 1042 q 509 947 489 1042 q 515 879 515 916 l 515 174 q 422 5 515 21 q 366 0 395 0 l 41 0 l 41 225 l 114 225 q 144 237 138 225 m 201 346 l 201 257 q 224 224 201 227 q 236 222 230 222 l 415 222 q 464 259 460 222 q 465 282 465 270 l 465 760 q 426 819 465 813 q 400 821 414 821 l 239 821 q 206 805 214 821 q 199 766 199 789 l 199 706 q 200 566 199 646 l 338 566 l 338 517 l 200 517 l 201 346 z "},"":{"ha":568,"x_min":41,"x_max":561,"o":"m 449 244 q 478 201 449 201 l 561 201 l 561 1 l 410 -1 l 410 97 q 307 -4 387 14 q 231 -11 277 -11 q 148 2 184 -11 q 87 37 111 14 q 41 163 41 81 l 41 526 q 232 700 41 700 q 352 660 306 700 q 400 578 389 628 l 399 753 l 258 753 l 257 802 l 399 802 l 399 815 q 366 856 397 856 l 286 856 l 290 1040 l 452 1042 l 449 814 l 449 802 l 549 802 l 549 753 l 449 753 l 449 244 m 90 404 l 90 267 q 119 199 90 221 q 221 171 155 171 q 318 178 287 171 q 367 197 349 184 q 400 272 400 220 l 400 404 q 368 483 400 459 q 263 510 330 510 q 123 483 157 510 q 90 404 90 456 z "},"":{"ha":571,"x_min":24,"x_max":529,"o":"m 122 233 q 151 286 151 233 l 151 757 q 123 812 151 804 q 62 817 106 817 l 24 817 l 24 1039 q 140 1040 85 1040 l 279 1042 l 501 1042 l 497 694 l 447 693 q 449 742 449 707 q 439 789 449 777 q 410 810 429 802 q 323 822 378 822 q 247 817 268 822 q 215 804 225 811 q 201 771 201 793 l 201 561 l 298 561 q 320 569 310 561 q 331 594 330 578 q 332 626 332 610 q 332 657 332 626 q 332 693 332 675 l 382 696 l 386 357 l 338 357 l 338 402 q 336 441 337 421 q 327 492 335 481 q 312 507 319 503 q 290 514 300 514 q 245 513 269 514 q 201 511 221 512 q 201 420 201 463 l 200 346 l 200 290 q 213 247 200 258 q 249 231 232 231 l 432 231 q 481 290 481 231 l 480 345 q 479 375 479 360 l 529 376 l 521 -4 q 360 3 404 3 l 296 3 l 262 3 l 136 1 q 33 0 86 1 l 33 233 l 122 233 m 434 1164 l 95 1162 l 96 1223 l 434 1222 l 434 1164 z "},"":{"ha":497,"x_min":41,"x_max":462,"o":"m 41 167 l 47 534 q 118 669 47 625 q 247 705 176 705 q 354 694 319 705 q 412 665 390 683 q 444 626 433 648 q 458 582 454 604 q 461 542 462 561 q 461 502 461 524 q 456 353 461 480 q 93 345 456 353 l 93 292 q 264 191 93 191 q 372 205 335 191 q 408 244 408 220 l 408 286 l 454 292 q 449 134 449 191 q 430 49 449 76 q 378 9 410 22 q 228 -12 330 -12 q 41 167 41 -12 m 410 406 l 411 443 q 265 509 411 509 q 92 395 92 509 l 410 400 q 410 406 410 401 m 429 838 l 90 836 l 91 897 l 429 896 l 429 838 z "},"":{"ha":571,"x_min":24,"x_max":529,"o":"m 122 233 q 151 286 151 233 l 151 757 q 123 812 151 804 q 62 817 106 817 l 24 817 l 24 1039 q 140 1040 85 1040 l 279 1042 l 501 1042 l 497 694 l 447 693 q 449 742 449 707 q 439 789 449 777 q 410 810 429 802 q 323 822 378 822 q 247 817 268 822 q 215 804 225 811 q 201 771 201 793 l 201 561 l 298 561 q 320 569 310 561 q 331 594 330 578 q 332 626 332 610 q 332 657 332 626 q 332 693 332 675 l 382 696 l 386 357 l 338 357 l 338 402 q 336 441 337 421 q 327 492 335 481 q 312 507 319 503 q 290 514 300 514 q 245 513 269 514 q 201 511 221 512 q 201 420 201 463 l 200 346 l 200 290 q 213 247 200 258 q 249 231 232 231 l 432 231 q 481 290 481 231 l 480 345 q 479 375 479 360 l 529 376 l 521 -4 q 360 3 404 3 l 296 3 l 262 3 l 136 1 q 33 0 86 1 l 33 233 l 122 233 m 463 1305 q 416 1182 463 1236 q 262 1118 361 1118 q 109 1190 159 1118 q 73 1312 73 1244 l 130 1312 q 193 1190 130 1227 q 261 1175 218 1175 q 331 1190 304 1175 q 375 1226 359 1205 q 406 1305 402 1261 l 463 1305 z "},"":{"ha":497,"x_min":41,"x_max":462,"o":"m 41 167 l 47 534 q 118 669 47 625 q 247 705 176 705 q 354 694 319 705 q 412 665 390 683 q 444 626 433 648 q 458 582 454 604 q 461 542 462 561 q 461 502 461 524 q 456 353 461 480 q 93 345 456 353 l 93 292 q 264 191 93 191 q 372 205 335 191 q 408 244 408 220 l 408 286 l 454 292 q 449 134 449 191 q 430 49 449 76 q 378 9 410 22 q 228 -12 330 -12 q 41 167 41 -12 m 410 406 l 411 443 q 265 509 411 509 q 92 395 92 509 l 410 400 q 410 406 410 401 m 458 979 q 411 856 458 909 q 256 791 355 791 q 103 864 153 791 q 67 986 67 918 l 124 986 q 187 864 124 901 q 256 848 213 848 q 326 864 298 848 q 370 900 353 879 q 401 979 397 935 l 458 979 z "},"":{"ha":571,"x_min":24,"x_max":529,"o":"m 122 233 q 151 286 151 233 l 151 757 q 123 812 151 804 q 62 817 106 817 l 24 817 l 24 1039 q 140 1040 85 1040 l 279 1042 l 501 1042 l 497 694 l 447 693 q 449 742 449 707 q 439 789 449 777 q 410 810 429 802 q 323 822 378 822 q 247 817 268 822 q 215 804 225 811 q 201 771 201 793 l 201 561 l 298 561 q 320 569 310 561 q 331 594 330 578 q 332 626 332 610 q 332 657 332 626 q 332 693 332 675 l 382 696 l 386 357 l 338 357 l 338 402 q 336 441 337 421 q 327 492 335 481 q 312 507 319 503 q 290 514 300 514 q 245 513 269 514 q 201 511 221 512 q 201 420 201 463 l 200 346 l 200 290 q 213 247 200 258 q 249 231 232 231 l 432 231 q 481 290 481 231 l 480 345 q 479 375 479 360 l 529 376 l 521 -4 q 360 3 404 3 l 296 3 l 262 3 l 136 1 q 33 0 86 1 l 33 233 l 122 233 m 336 1286 l 328 1147 l 194 1145 l 189 1286 l 336 1286 z "},"":{"ha":497,"x_min":41,"x_max":462,"o":"m 41 167 l 47 534 q 118 669 47 625 q 247 705 176 705 q 354 694 319 705 q 412 665 390 683 q 444 626 433 648 q 458 582 454 604 q 461 542 462 561 q 461 502 461 524 q 456 353 461 480 q 93 345 456 353 l 93 292 q 264 191 93 191 q 372 205 335 191 q 408 244 408 220 l 408 286 l 454 292 q 449 134 449 191 q 430 49 449 76 q 378 9 410 22 q 228 -12 330 -12 q 41 167 41 -12 m 410 406 l 411 443 q 265 509 411 509 q 92 395 92 509 l 410 400 q 410 406 410 401 m 330 960 l 323 821 l 189 819 l 183 960 l 330 960 z "},"":{"ha":571,"x_min":24,"x_max":529,"o":"m 122 233 q 151 286 151 233 l 151 757 q 123 812 151 804 q 62 817 106 817 l 24 817 l 24 1039 q 140 1040 85 1040 l 279 1042 l 501 1042 l 497 694 l 447 693 q 449 742 449 707 q 439 789 449 777 q 410 810 429 802 q 323 822 378 822 q 247 817 268 822 q 215 804 225 811 q 201 771 201 793 l 201 561 l 298 561 q 320 569 310 561 q 331 594 330 578 q 332 626 332 610 q 332 657 332 626 q 332 693 332 675 l 382 696 l 386 357 l 338 357 l 338 402 q 336 441 337 421 q 327 492 335 481 q 312 507 319 503 q 290 514 300 514 q 245 513 269 514 q 201 511 221 512 q 201 420 201 463 l 200 346 l 200 290 q 213 247 200 258 q 249 231 232 231 l 432 231 q 481 290 481 231 l 480 345 q 479 375 479 360 l 529 376 l 519 1 q 363 -60 432 1 q 300 -176 300 -117 q 392 -248 300 -248 q 528 -195 465 -248 l 529 -258 q 398 -302 475 -302 q 282 -270 320 -302 q 244 -180 244 -237 q 294 -64 244 -117 q 393 3 335 -19 q 262 3 328 3 l 136 1 q 33 0 86 1 l 33 233 l 122 233 z "},"":{"ha":497,"x_min":41,"x_max":462,"o":"m 41 167 l 47 534 q 118 669 47 625 q 247 705 176 705 q 354 694 319 705 q 412 665 390 683 q 444 626 433 648 q 458 582 454 604 q 461 542 462 561 q 461 502 461 524 q 456 353 461 480 q 93 345 456 353 l 93 292 q 264 191 93 191 q 372 205 335 191 q 408 244 408 220 l 408 286 l 454 292 q 449 145 449 191 q 443 81 449 98 q 427 50 437 63 q 378 7 410 25 q 318 -31 346 -10 q 269 -76 290 -52 q 224 -176 224 -126 q 273 -241 224 -226 q 315 -248 290 -248 q 452 -195 389 -248 l 453 -258 q 322 -302 399 -302 q 206 -270 244 -302 q 168 -180 168 -237 q 273 -11 168 -96 q 251 -12 262 -12 l 228 -12 q 41 167 41 -12 m 410 406 l 411 443 q 265 509 411 509 q 92 395 92 509 l 410 400 q 410 406 410 401 z "},"":{"ha":571,"x_min":24,"x_max":529,"o":"m 122 233 q 151 286 151 233 l 151 757 q 123 812 151 804 q 62 817 106 817 l 24 817 l 24 1039 q 140 1040 85 1040 l 279 1042 l 501 1042 l 497 694 l 447 693 q 449 742 449 707 q 439 789 449 777 q 410 810 429 802 q 323 822 378 822 q 247 817 268 822 q 215 804 225 811 q 201 771 201 793 l 201 561 l 298 561 q 320 569 310 561 q 331 594 330 578 q 332 626 332 610 q 332 657 332 626 q 332 693 332 675 l 382 696 l 386 357 l 338 357 l 338 402 q 336 441 337 421 q 327 492 335 481 q 312 507 319 503 q 290 514 300 514 q 245 513 269 514 q 201 511 221 512 q 201 420 201 463 l 200 346 l 200 290 q 213 247 200 258 q 249 231 232 231 l 432 231 q 481 290 481 231 l 480 345 q 479 375 479 360 l 529 376 l 521 -4 q 360 3 404 3 l 296 3 l 262 3 l 136 1 q 33 0 86 1 l 33 233 l 122 233 m 263 1104 l 79 1299 l 125 1339 l 267 1186 l 428 1337 l 470 1291 l 263 1104 z "},"":{"ha":497,"x_min":41,"x_max":465,"o":"m 41 167 l 47 534 q 118 669 47 625 q 247 705 176 705 q 354 694 319 705 q 412 665 390 683 q 444 626 433 648 q 458 582 454 604 q 461 542 462 561 q 461 502 461 524 q 456 353 461 480 q 93 345 456 353 l 93 292 q 264 191 93 191 q 372 205 335 191 q 408 244 408 220 l 408 286 l 454 292 q 449 134 449 191 q 430 49 449 76 q 378 9 410 22 q 228 -12 330 -12 q 41 167 41 -12 m 410 406 l 411 443 q 265 509 411 509 q 92 395 92 509 l 410 400 q 410 406 410 401 m 258 778 l 74 972 l 120 1013 l 262 860 l 422 1011 l 465 965 l 258 778 z "},"":{"ha":525,"x_min":49,"x_max":511,"o":"m 489 463 q 461 429 461 463 l 461 0 l 411 0 q 412 15 412 6 l 412 53 q 412 69 412 62 q 402 48 408 61 q 378 24 395 36 q 260 -5 337 -5 q 146 1 182 -5 q 87 24 109 7 q 49 164 49 57 l 49 876 q 99 1017 49 981 q 254 1050 142 1050 q 393 1004 349 1050 q 408 987 403 994 l 408 1042 l 457 1040 l 457 684 l 410 684 l 410 778 q 351 828 410 828 l 163 828 q 100 793 106 828 q 98 777 98 785 l 98 288 q 111 245 98 255 q 160 233 130 233 l 366 233 q 414 282 414 233 l 414 428 q 407 458 414 452 q 368 465 397 465 l 268 465 l 268 515 l 511 515 l 511 463 l 489 463 m 259 1339 l 442 1144 l 396 1104 l 254 1257 l 94 1105 l 52 1152 l 259 1339 z "},"":{"ha":557,"x_min":41,"x_max":529,"o":"m 469 486 q 453 468 453 486 l 453 -170 q 326 -321 453 -292 q 249 -329 293 -329 q 65 -231 104 -329 q 54 -165 54 -202 l 54 -40 l 100 -40 l 100 -71 q 184 -148 100 -137 q 250 -151 210 -151 q 320 -144 289 -151 q 370 -123 351 -137 q 404 -39 404 -98 l 404 97 q 354 16 389 42 q 250 -11 315 -11 q 148 2 184 -11 q 87 37 111 14 q 41 163 41 81 l 41 526 q 232 700 41 700 q 352 660 306 700 q 400 578 389 628 l 400 694 l 526 694 l 529 486 l 469 486 m 90 404 l 90 267 q 119 199 90 221 q 221 171 155 171 q 318 178 287 171 q 369 197 349 184 q 404 272 404 221 l 404 404 q 370 483 404 459 q 263 510 331 510 q 123 483 157 510 q 90 404 90 456 m 252 1013 l 435 818 l 389 778 l 248 930 l 87 779 l 45 825 l 252 1013 z "},"":{"ha":525,"x_min":49,"x_max":511,"o":"m 489 463 q 461 429 461 463 l 461 0 l 411 0 q 412 15 412 6 l 412 53 q 412 69 412 62 q 402 48 408 61 q 378 24 395 36 q 260 -5 337 -5 q 146 1 182 -5 q 87 24 109 7 q 49 164 49 57 l 49 876 q 99 1017 49 981 q 254 1050 142 1050 q 393 1004 349 1050 q 408 987 403 994 l 408 1042 l 457 1040 l 457 684 l 410 684 l 410 778 q 351 828 410 828 l 163 828 q 100 793 106 828 q 98 777 98 785 l 98 288 q 111 245 98 255 q 160 233 130 233 l 366 233 q 414 282 414 233 l 414 428 q 407 458 414 452 q 368 465 397 465 l 268 465 l 268 515 l 511 515 l 511 463 l 489 463 m 451 1305 q 404 1182 451 1236 q 250 1118 349 1118 q 96 1190 146 1118 q 60 1312 60 1244 l 117 1312 q 180 1190 117 1227 q 249 1175 206 1175 q 319 1190 292 1175 q 363 1226 347 1205 q 394 1305 390 1261 l 451 1305 z "},"":{"ha":557,"x_min":41,"x_max":529,"o":"m 469 486 q 453 468 453 486 l 453 -170 q 326 -321 453 -292 q 249 -329 293 -329 q 65 -231 104 -329 q 54 -165 54 -202 l 54 -40 l 100 -40 l 100 -71 q 184 -148 100 -137 q 250 -151 210 -151 q 320 -144 289 -151 q 370 -123 351 -137 q 404 -39 404 -98 l 404 97 q 354 16 389 42 q 250 -11 315 -11 q 148 2 184 -11 q 87 37 111 14 q 41 163 41 81 l 41 526 q 232 700 41 700 q 352 660 306 700 q 400 578 389 628 l 400 694 l 526 694 l 529 486 l 469 486 m 90 404 l 90 267 q 119 199 90 221 q 221 171 155 171 q 318 178 287 171 q 369 197 349 184 q 404 272 404 221 l 404 404 q 370 483 404 459 q 263 510 331 510 q 123 483 157 510 q 90 404 90 456 m 444 979 q 397 856 444 909 q 242 791 341 791 q 89 864 139 791 q 53 986 53 918 l 110 986 q 173 864 110 901 q 241 848 199 848 q 312 864 284 848 q 355 900 339 879 q 387 979 382 935 l 444 979 z "},"":{"ha":525,"x_min":49,"x_max":511,"o":"m 489 463 q 461 429 461 463 l 461 0 l 411 0 q 412 15 412 6 l 412 53 q 412 69 412 62 q 402 48 408 61 q 378 24 395 36 q 260 -5 337 -5 q 146 1 182 -5 q 87 24 109 7 q 49 164 49 57 l 49 876 q 99 1017 49 981 q 254 1050 142 1050 q 393 1004 349 1050 q 408 987 403 994 l 408 1042 l 457 1040 l 457 684 l 410 684 l 410 778 q 351 828 410 828 l 163 828 q 100 793 106 828 q 98 777 98 785 l 98 288 q 111 245 98 255 q 160 233 130 233 l 366 233 q 414 282 414 233 l 414 428 q 407 458 414 452 q 368 465 397 465 l 268 465 l 268 515 l 511 515 l 511 463 l 489 463 m 323 1286 l 315 1147 l 181 1145 l 176 1286 l 323 1286 z "},"":{"ha":557,"x_min":41,"x_max":529,"o":"m 469 486 q 453 468 453 486 l 453 -170 q 326 -321 453 -292 q 249 -329 293 -329 q 65 -231 104 -329 q 54 -165 54 -202 l 54 -40 l 100 -40 l 100 -71 q 184 -148 100 -137 q 250 -151 210 -151 q 320 -144 289 -151 q 370 -123 351 -137 q 404 -39 404 -98 l 404 97 q 354 16 389 42 q 250 -11 315 -11 q 148 2 184 -11 q 87 37 111 14 q 41 163 41 81 l 41 526 q 232 700 41 700 q 352 660 306 700 q 400 578 389 628 l 400 694 l 526 694 l 529 486 l 469 486 m 90 404 l 90 267 q 119 199 90 221 q 221 171 155 171 q 318 178 287 171 q 369 197 349 184 q 404 272 404 221 l 404 404 q 370 483 404 459 q 263 510 331 510 q 123 483 157 510 q 90 404 90 456 m 316 960 l 309 821 l 174 819 l 169 960 l 316 960 z "},"":{"ha":525,"x_min":49,"x_max":511,"o":"m 489 463 q 461 429 461 463 l 461 0 l 411 0 q 412 15 412 6 l 412 53 q 412 69 412 62 q 402 48 408 61 q 378 24 395 36 q 260 -5 337 -5 q 146 1 182 -5 q 87 24 109 7 q 49 164 49 57 l 49 876 q 99 1017 49 981 q 254 1050 142 1050 q 393 1004 349 1050 q 408 987 403 994 l 408 1042 l 457 1040 l 457 684 l 410 684 l 410 778 q 351 828 410 828 l 163 828 q 100 793 106 828 q 98 777 98 785 l 98 288 q 111 245 98 255 q 160 233 130 233 l 366 233 q 414 282 414 233 l 414 428 q 407 458 414 452 q 368 465 397 465 l 268 465 l 268 515 l 511 515 l 511 463 l 489 463 m 319 -69 l 315 -178 q 214 -313 315 -265 l 191 -273 q 262 -201 253 -253 l 185 -201 l 181 -69 l 319 -69 z "},"":{"ha":557,"x_min":41,"x_max":529,"o":"m 469 486 q 453 468 453 486 l 453 -170 q 326 -321 453 -292 q 249 -329 293 -329 q 65 -231 104 -329 q 54 -165 54 -202 l 54 -40 l 100 -40 l 100 -71 q 184 -148 100 -137 q 250 -151 210 -151 q 320 -144 289 -151 q 370 -123 351 -137 q 404 -39 404 -98 l 404 97 q 354 16 389 42 q 250 -11 315 -11 q 148 2 184 -11 q 87 37 111 14 q 41 163 41 81 l 41 526 q 232 700 41 700 q 352 660 306 700 q 400 578 389 628 l 400 694 l 526 694 l 529 486 l 469 486 m 90 404 l 90 267 q 119 199 90 221 q 221 171 155 171 q 318 178 287 171 q 369 197 349 184 q 404 272 404 221 l 404 404 q 370 483 404 459 q 263 510 331 510 q 123 483 157 510 q 90 404 90 456 m 170 778 l 172 886 q 273 1021 172 973 l 297 982 q 227 909 231 958 l 302 909 l 307 778 l 170 778 z "},"":{"ha":637,"x_min":25,"x_max":607,"o":"m 135 814 l 25 817 l 25 1038 l 302 1043 l 307 819 l 225 819 q 212 811 214 819 q 210 796 210 804 l 204 602 q 216 583 204 583 q 309 583 267 583 l 376 582 q 414 582 395 582 q 437 610 437 582 q 437 701 437 660 l 436 765 q 434 804 436 796 q 410 817 431 817 l 350 817 l 353 1032 l 607 1040 l 602 819 q 562 815 579 817 q 513 811 518 811 q 490 793 490 811 l 485 258 q 486 245 485 252 q 496 239 486 239 l 602 239 l 607 0 l 358 3 l 350 231 q 379 233 366 231 q 404 235 393 234 q 422 236 416 235 q 433 258 433 238 l 433 514 q 412 532 433 532 l 275 534 l 221 534 q 205 521 205 534 l 203 320 l 203 244 q 220 228 203 228 l 306 228 l 300 5 l 39 -11 l 28 228 q 135 225 125 225 q 146 232 144 225 q 149 250 149 239 l 154 790 q 135 814 154 814 m 338 1339 l 521 1144 l 475 1104 l 333 1257 l 172 1105 l 130 1152 l 338 1339 z "},"":{"ha":631,"x_min":-88,"x_max":607,"o":"m 117 840 l 7 836 l 9 1039 l 179 1042 l 178 600 q 274 682 209 652 q 359 697 309 697 q 491 632 450 697 q 522 505 522 584 l 518 220 q 521 203 518 208 q 534 199 524 199 l 607 199 l 607 0 l 378 1 l 378 201 l 446 201 q 464 208 456 201 q 471 227 471 215 l 471 412 q 437 472 471 447 q 345 501 398 501 q 263 491 292 501 q 216 464 235 480 q 176 393 176 431 l 176 222 q 197 201 176 201 l 260 201 l 260 1 l 33 0 l 32 200 l 109 200 q 125 221 125 200 l 129 828 q 126 838 129 836 q 117 840 124 840 m 119 1339 l 302 1144 l 256 1104 l 115 1257 l -46 1105 l -88 1152 l 119 1339 z "},"":{"ha":637,"x_min":25,"x_max":607,"o":"m 135 225 q 140 225 135 225 q 146 232 144 225 q 149 338 149 239 q 153 672 149 436 l 47 672 l 46 721 l 154 721 l 154 790 q 135 814 154 814 l 25 817 l 25 1038 l 302 1043 l 307 819 l 225 819 q 212 811 214 819 q 210 795 210 804 q 210 766 210 795 q 208 721 210 746 l 437 721 q 436 774 436 751 q 434 804 436 796 q 410 817 431 817 l 350 817 l 353 1032 l 607 1040 l 602 819 q 562 815 579 817 q 513 811 518 811 q 490 793 490 811 l 490 770 q 489 721 490 750 l 593 721 l 593 672 l 489 672 q 488 587 488 633 q 487 496 488 542 q 487 409 487 451 q 486 333 486 366 q 485 280 486 300 q 485 256 485 260 q 486 245 485 252 q 496 239 486 239 l 602 239 l 607 0 l 358 3 l 350 231 q 379 233 366 231 q 404 235 393 234 q 422 236 416 235 q 433 258 433 238 l 433 514 q 412 532 433 532 l 275 534 l 221 534 q 205 521 205 534 l 203 320 l 203 244 q 220 228 203 228 l 306 228 l 300 5 l 39 -11 l 28 228 q 135 225 125 225 m 309 583 l 376 582 q 414 582 395 582 q 437 610 437 582 l 437 672 l 205 672 q 204 627 204 646 l 204 602 q 216 583 204 583 q 309 583 267 583 z "},"":{"ha":631,"x_min":7,"x_max":607,"o":"m 125 221 q 129 751 125 499 l 31 751 l 29 800 l 129 800 l 129 842 q 117 854 129 854 l 7 850 l 9 1039 l 179 1042 l 178 800 l 321 800 l 321 751 l 178 751 l 178 600 q 274 682 209 652 q 359 697 309 697 q 491 632 450 697 q 522 505 522 584 l 518 220 q 521 203 518 208 q 534 199 524 199 l 607 199 l 607 0 l 378 1 l 378 201 l 446 201 q 464 208 456 201 q 471 227 471 215 l 471 412 q 437 472 471 447 q 345 501 398 501 q 263 491 292 501 q 216 464 235 480 q 176 393 176 431 l 176 222 q 197 201 176 201 l 260 201 l 260 1 l 33 0 l 32 200 l 109 200 q 125 221 125 200 z "},"":{"ha":351,"x_min":5,"x_max":373,"o":"m 153 783 q 126 812 153 812 l 47 812 q 52 1036 47 1000 q 102 1039 77 1038 q 200 1042 151 1042 q 322 1039 243 1042 l 310 817 q 284 815 296 816 q 260 815 272 815 l 240 815 q 214 804 224 815 q 204 771 204 792 q 199 268 204 771 q 225 236 199 236 l 318 236 l 310 3 q 196 -1 237 1 q 130 -3 154 -2 q 85 -4 105 -3 q 35 -5 45 -5 l 36 90 l 36 240 l 125 240 q 149 268 149 240 l 152 692 l 153 783 m 317 1214 l 317 1274 q 316 1319 316 1295 l 371 1319 l 373 1251 q 277 1107 373 1107 q 187 1164 217 1107 q 161 1215 169 1199 q 146 1243 154 1230 q 108 1274 125 1274 q 82 1267 90 1274 q 70 1251 74 1260 q 62 1221 62 1235 l 62 1190 q 62 1157 62 1175 q 63 1118 62 1139 l 6 1116 q 5 1150 5 1133 q 5 1186 5 1167 l 5 1223 q 23 1286 5 1263 q 102 1331 57 1331 q 178 1285 142 1331 q 207 1240 195 1264 q 225 1206 219 1217 q 238 1186 231 1195 q 272 1164 257 1164 q 295 1168 288 1164 q 307 1181 302 1173 q 317 1214 317 1195 z "},"":{"ha":307,"x_min":-70,"x_max":298,"o":"m 107 201 q 139 232 139 201 l 139 463 q 132 481 139 476 q 104 486 124 486 l 26 486 l 26 694 l 192 694 q 187 251 187 270 l 187 225 q 193 210 187 218 q 210 201 199 201 l 297 201 l 297 0 l 26 0 l 29 201 l 107 201 m 243 888 l 242 947 q 241 993 241 968 l 296 993 l 298 925 q 202 781 298 781 q 113 838 142 781 q 87 888 94 873 q 71 917 79 904 q 33 947 51 947 q 7 941 16 947 q -5 925 -1 934 q -13 895 -13 909 l -13 864 q -13 831 -13 848 q -12 791 -12 813 l -68 790 q -70 824 -69 807 q -70 860 -70 841 l -70 897 q -52 960 -70 937 q 27 1004 -18 1004 q 103 959 67 1004 q 132 914 120 938 q 150 880 144 890 q 163 860 156 869 q 198 838 182 838 q 220 842 213 838 q 233 854 227 847 q 243 888 243 869 z "},"":{"ha":351,"x_min":21,"x_max":360,"o":"m 153 783 q 126 812 153 812 l 47 812 q 52 1036 47 1000 q 102 1039 77 1038 q 200 1042 151 1042 q 322 1039 243 1042 l 310 817 q 284 815 296 816 q 260 815 272 815 l 240 815 q 214 804 224 815 q 204 771 204 792 q 199 268 204 771 q 225 236 199 236 l 318 236 l 310 3 q 196 -1 237 1 q 130 -3 154 -2 q 85 -4 105 -3 q 35 -5 45 -5 l 36 90 l 36 240 l 125 240 q 149 268 149 240 l 152 692 l 153 783 m 360 1164 l 21 1162 l 22 1223 l 360 1222 l 360 1164 z "},"":{"ha":307,"x_min":-54,"x_max":297,"o":"m 107 201 q 139 232 139 201 l 139 463 q 132 481 139 476 q 104 486 124 486 l 26 486 l 26 694 l 192 694 q 187 251 187 270 l 187 225 q 193 210 187 218 q 210 201 199 201 l 297 201 l 297 0 l 26 0 l 29 201 l 107 201 m 286 838 l -54 836 l -52 897 l 286 896 l 286 838 z "},"":{"ha":351,"x_min":-1,"x_max":390,"o":"m 153 783 q 126 812 153 812 l 47 812 q 52 1036 47 1000 q 102 1039 77 1038 q 200 1042 151 1042 q 322 1039 243 1042 l 310 817 q 284 815 296 816 q 260 815 272 815 l 240 815 q 214 804 224 815 q 204 771 204 792 q 199 268 204 771 q 225 236 199 236 l 318 236 l 310 3 q 196 -1 237 1 q 130 -3 154 -2 q 85 -4 105 -3 q 35 -5 45 -5 l 36 90 l 36 240 l 125 240 q 149 268 149 240 l 152 692 l 153 783 m 390 1305 q 343 1182 390 1236 q 189 1118 288 1118 q 35 1190 85 1118 q -1 1312 -1 1244 l 56 1312 q 119 1190 56 1227 q 188 1175 145 1175 q 258 1190 231 1175 q 302 1226 286 1205 q 333 1305 329 1261 l 390 1305 z "},"":{"ha":307,"x_min":-76,"x_max":315,"o":"m 107 201 q 139 232 139 201 l 139 463 q 132 481 139 476 q 104 486 124 486 l 26 486 l 26 694 l 192 694 q 187 251 187 270 l 187 225 q 193 210 187 218 q 210 201 199 201 l 297 201 l 297 0 l 26 0 l 29 201 l 107 201 m 315 979 q 268 856 315 909 q 113 791 212 791 q -40 864 10 791 q -76 986 -76 918 l -19 986 q 44 864 -19 901 q 113 848 70 848 q 183 864 155 848 q 227 900 210 879 q 258 979 254 935 l 315 979 z "},"":{"ha":351,"x_min":35,"x_max":322,"o":"m 153 783 q 126 812 153 812 l 47 812 q 52 1036 47 1000 q 102 1039 77 1038 q 200 1042 151 1042 q 322 1039 243 1042 l 310 817 q 284 815 296 816 q 260 815 272 815 l 240 815 q 214 804 224 815 q 204 771 204 792 q 199 268 204 771 q 225 236 199 236 l 318 236 l 310 3 q 290 2 300 3 q 265 1 279 1 q 236 0 252 1 q 143 -76 169 -47 q 93 -176 93 -132 q 141 -241 93 -226 q 184 -248 159 -248 q 321 -195 258 -248 l 322 -258 q 191 -302 269 -302 q 75 -270 113 -302 q 37 -180 37 -237 q 155 -1 37 -87 q 35 -5 90 -5 l 36 90 l 36 240 l 125 240 q 149 268 149 240 l 152 692 l 153 783 z "},"":{"ha":307,"x_min":11,"x_max":297,"o":"m 107 201 q 139 232 139 201 l 139 463 q 132 481 139 476 q 104 486 124 486 l 26 486 l 26 694 l 192 694 q 187 251 187 270 l 187 225 q 193 210 187 218 q 210 201 199 201 l 297 201 l 297 0 l 210 0 q 117 -76 142 -47 q 66 -176 66 -132 q 115 -241 66 -226 q 158 -248 132 -248 q 294 -195 232 -248 l 296 -258 q 164 -302 242 -302 q 49 -270 87 -302 q 11 -180 11 -237 q 132 0 11 -88 l 26 0 l 29 201 l 107 201 m 20 901 q 24 936 20 918 q 42 971 29 955 q 136 1010 73 1010 q 222 974 191 1010 q 250 913 250 942 q 244 866 250 885 q 224 831 238 847 q 135 794 193 794 q 45 829 77 794 q 20 901 20 858 z "},"":{"ha":351,"x_min":35,"x_max":322,"o":"m 153 783 q 126 812 153 812 l 47 812 q 52 1036 47 1000 q 102 1039 77 1038 q 200 1042 151 1042 q 322 1039 243 1042 l 310 817 q 284 815 296 816 q 260 815 272 815 l 240 815 q 214 804 224 815 q 204 771 204 792 q 199 268 204 771 q 225 236 199 236 l 318 236 l 310 3 q 196 -1 237 1 q 130 -3 154 -2 q 85 -4 105 -3 q 35 -5 45 -5 l 36 90 l 36 240 l 125 240 q 149 268 149 240 l 152 692 l 153 783 m 262 1286 l 254 1147 l 120 1145 l 115 1286 l 262 1286 z "},"":{"ha":307,"x_min":26,"x_max":297,"o":"m 107 201 q 139 232 139 201 l 139 463 q 132 481 139 476 q 104 486 124 486 l 26 486 l 26 694 l 192 694 q 187 251 187 270 l 187 225 q 193 210 187 218 q 210 201 199 201 l 297 201 l 297 0 l 26 0 l 29 201 l 107 201 z "},"":{"ha":800,"x_min":35,"x_max":786,"o":"m 153 783 q 126 812 153 812 l 47 812 q 52 1036 47 1000 q 102 1039 77 1038 q 200 1042 151 1042 q 322 1039 243 1042 l 310 817 q 284 815 296 816 q 260 815 272 815 l 240 815 q 214 804 224 815 q 204 771 204 792 q 199 268 204 771 q 225 236 199 236 l 318 236 l 310 3 q 196 -1 237 1 q 130 -3 154 -2 q 85 -4 105 -3 q 35 -5 45 -5 l 36 90 l 36 240 l 125 240 q 149 268 149 240 l 152 692 l 153 783 m 614 261 l 619 782 q 600 812 619 807 q 591 814 595 814 l 571 814 q 533 814 554 814 q 484 815 512 814 l 479 1042 l 786 1039 l 782 815 q 745 816 762 815 l 694 817 q 671 787 671 817 q 670 752 671 783 q 669 670 669 721 q 667 554 668 619 q 665 416 665 488 q 663 151 663 202 q 656 78 663 100 q 640 40 650 56 q 617 16 630 25 q 593 3 605 7 q 549 -5 573 -5 l 447 -4 q 398 14 416 -4 q 365 70 365 45 q 372 355 365 94 l 419 354 q 416 252 416 262 q 425 235 416 243 q 445 225 433 227 q 476 225 458 224 q 515 225 495 225 q 579 228 561 227 q 606 240 598 230 q 614 261 614 251 z "},"":{"ha":599,"x_min":20,"x_max":576,"o":"m 107 201 q 139 232 139 201 l 139 463 q 132 481 139 476 q 104 486 124 486 l 26 486 l 26 694 l 192 694 q 187 251 187 270 l 187 225 q 193 210 187 218 q 210 201 199 201 l 297 201 l 297 0 l 26 0 l 29 201 l 107 201 m 20 901 q 24 936 20 918 q 42 971 29 955 q 136 1010 73 1010 q 222 974 191 1010 q 250 913 250 942 q 244 866 250 885 q 224 831 238 847 q 135 794 193 794 q 45 829 77 794 q 20 901 20 858 m 474 488 l 410 487 q 359 486 387 486 l 359 692 l 553 694 q 542 -135 542 -76 q 529 -232 542 -195 q 494 -290 517 -269 q 379 -329 456 -329 q 286 -304 293 -329 q 283 -289 283 -296 l 281 -155 q 279 -37 280 -102 l 330 -37 l 330 -92 q 349 -119 330 -111 q 401 -127 368 -127 q 449 -121 434 -127 q 474 -106 465 -115 q 492 -68 492 -89 l 496 464 q 474 488 496 488 m 346 901 q 351 936 346 918 q 368 971 355 955 q 463 1010 399 1010 q 549 974 517 1010 q 576 913 576 942 q 570 866 576 885 q 551 831 564 847 q 461 794 519 794 q 372 829 403 794 q 346 901 346 858 z "},"":{"ha":449,"x_min":14,"x_max":477,"o":"m 262 261 l 268 782 q 248 812 268 807 q 240 814 243 814 l 220 814 q 182 814 203 814 q 132 815 161 814 l 127 1042 l 435 1039 l 431 815 q 393 816 411 815 l 343 817 q 319 787 319 817 q 319 752 319 783 q 317 670 318 721 q 315 554 317 619 q 313 416 314 488 q 311 151 311 202 q 305 78 311 100 q 289 40 299 56 q 266 16 279 25 q 241 3 254 7 q 197 -5 222 -5 l 96 -4 q 47 14 65 -4 q 14 70 14 45 q 21 355 14 94 l 68 354 q 65 252 65 262 q 73 235 65 243 q 94 225 81 227 q 125 225 106 224 q 164 225 144 225 q 228 228 210 227 q 255 240 247 230 q 262 261 262 251 m 294 1339 l 477 1144 l 431 1104 l 290 1257 l 129 1105 l 87 1152 l 294 1339 z "},"":{"ha":292,"x_min":-48,"x_max":342,"o":"m 167 488 l 103 487 q 52 486 80 486 l 52 692 l 245 694 q 235 -135 235 -76 q 222 -232 235 -195 q 187 -290 210 -269 q 72 -329 149 -329 q -22 -304 -14 -329 q -24 -289 -24 -296 l -26 -155 q -28 -37 -27 -102 l 22 -37 l 22 -92 q 42 -119 22 -111 q 94 -127 61 -127 q 142 -121 127 -127 q 167 -106 157 -115 q 184 -68 184 -89 l 189 464 q 167 488 189 488 m 159 1013 l 342 818 l 296 778 l 155 930 l -6 779 l -48 825 l 159 1013 z "},"":{"ha":595,"x_min":32,"x_max":581,"o":"m 115 817 q 35 811 105 817 l 37 1036 l 281 1042 l 281 817 l 220 817 q 197 809 204 817 q 191 785 191 802 l 191 534 q 364 782 268 628 q 354 814 381 814 l 334 814 l 332 1042 l 554 1040 l 547 814 l 496 814 q 416 779 444 814 q 390 742 408 768 l 362 701 q 310 623 338 666 q 442 262 434 279 q 458 241 450 244 q 478 239 467 239 l 581 235 l 574 1 l 363 -3 l 358 235 l 389 235 q 393 244 397 235 q 381 280 390 254 q 361 338 372 306 q 338 405 350 370 q 315 471 326 440 q 273 570 281 566 q 268 567 271 570 q 235 525 259 554 q 193 471 212 495 l 200 265 q 239 237 200 237 l 294 237 l 297 1 q 35 -1 189 -1 l 32 233 q 123 236 113 236 q 141 245 132 236 q 150 272 150 254 l 140 798 q 115 817 140 817 m 380 -69 l 376 -178 q 275 -313 376 -265 l 252 -273 q 323 -201 314 -253 l 246 -201 l 242 -69 l 380 -69 z "},"":{"ha":639,"x_min":33,"x_max":625,"o":"m 265 1042 l 258 836 l 215 836 q 187 831 197 836 q 176 804 176 826 l 176 431 q 177 425 176 427 q 183 424 178 422 q 318 504 306 492 q 337 522 330 516 q 347 536 343 528 q 357 578 357 550 l 357 692 l 579 694 l 575 486 l 446 486 q 370 475 399 486 l 522 215 q 546 201 530 201 l 621 201 l 625 0 l 396 -1 l 399 199 l 463 199 q 464 212 473 199 l 326 454 l 180 364 q 176 357 176 362 l 176 256 q 189 217 176 235 q 229 200 202 200 l 278 200 l 277 0 l 33 0 l 39 201 l 83 201 q 121 225 111 201 q 125 248 125 234 l 125 800 q 115 828 125 822 q 92 833 105 833 l 35 833 l 35 1040 l 265 1042 m 388 -69 l 385 -178 q 283 -313 385 -265 l 260 -273 q 331 -201 322 -253 l 254 -201 l 250 -69 l 388 -69 z "},"":{"ha":639,"x_min":33,"x_max":625,"o":"m 559 487 l 497 488 q 368 439 446 488 l 522 215 q 546 201 532 201 l 621 201 l 625 0 l 396 -1 l 399 199 l 461 199 q 463 212 471 199 l 326 412 l 180 319 q 176 313 176 317 l 176 256 q 189 217 176 235 q 229 200 202 200 l 278 200 l 277 0 l 33 0 l 39 201 l 83 201 q 121 225 111 201 q 125 248 125 234 l 125 454 q 115 482 125 476 q 92 488 105 488 l 35 488 l 35 694 l 265 696 l 258 490 l 215 490 q 187 485 197 490 q 176 458 176 480 l 176 386 q 177 380 176 382 q 183 379 178 377 q 238 413 218 401 q 271 434 259 426 q 294 448 283 441 q 346 488 339 475 q 357 536 357 508 l 357 692 l 579 694 l 575 486 q 559 487 570 486 z "},"":{"ha":536,"x_min":28,"x_max":509,"o":"m 131 235 q 144 260 144 235 l 144 800 q 140 811 144 810 q 122 812 136 812 l 32 812 l 28 1042 l 309 1040 l 306 814 l 214 814 q 198 806 199 814 q 196 791 196 799 l 193 361 l 192 268 q 201 240 192 246 q 225 235 210 235 l 283 235 l 372 237 q 428 237 372 237 q 464 273 464 237 l 462 351 q 460 418 460 381 l 509 418 l 507 0 l 37 -3 l 37 235 l 131 235 m 340 1307 l 170 1104 l 124 1144 l 295 1344 l 340 1307 z "},"":{"ha":302,"x_min":4,"x_max":281,"o":"m 125 823 q 107 839 125 839 l 8 839 l 4 1038 l 182 1042 q 178 311 178 385 l 178 231 q 208 203 178 203 l 281 203 l 281 0 l 26 0 l 21 201 l 100 201 q 122 211 119 201 q 125 233 125 220 l 125 823 m 267 1307 l 98 1104 l 52 1144 l 222 1344 l 267 1307 z "},"":{"ha":536,"x_min":28,"x_max":509,"o":"m 131 235 q 144 260 144 235 l 144 800 q 140 811 144 810 q 122 812 136 812 l 32 812 l 28 1042 l 309 1040 l 306 814 l 214 814 q 198 806 199 814 q 196 791 196 799 l 193 361 l 192 268 q 201 240 192 246 q 225 235 210 235 l 283 235 l 372 237 q 428 237 372 237 q 464 273 464 237 l 462 351 q 460 418 460 381 l 509 418 l 507 0 l 37 -3 l 37 235 l 131 235 m 338 -69 l 335 -178 q 234 -313 335 -265 l 210 -273 q 281 -201 273 -253 l 205 -201 l 201 -69 l 338 -69 z "},"":{"ha":302,"x_min":4,"x_max":281,"o":"m 125 823 q 107 839 125 839 l 8 839 l 4 1038 l 182 1042 q 178 311 178 385 l 178 231 q 208 203 178 203 l 281 203 l 281 0 l 26 0 l 21 201 l 100 201 q 122 211 119 201 q 125 233 125 220 l 125 823 m 222 -69 l 218 -178 q 117 -313 218 -265 l 94 -273 q 165 -201 156 -253 l 88 -201 l 84 -69 l 222 -69 z "},"":{"ha":536,"x_min":28,"x_max":509,"o":"m 131 235 q 144 260 144 235 l 144 800 q 140 811 144 810 q 122 812 136 812 l 32 812 l 28 1042 l 309 1040 l 306 814 l 214 814 q 198 806 199 814 q 196 791 196 799 l 193 361 l 192 268 q 201 240 192 246 q 225 235 210 235 l 283 235 l 372 237 q 428 237 372 237 q 464 273 464 237 l 462 351 q 460 418 460 381 l 509 418 l 507 0 l 37 -3 l 37 235 l 131 235 m 503 1042 l 500 933 q 399 798 500 846 l 375 838 q 446 909 437 858 l 370 909 l 366 1042 l 503 1042 z "},"":{"ha":404,"x_min":4,"x_max":363,"o":"m 125 823 q 107 839 125 839 l 8 839 l 4 1038 l 182 1042 q 178 311 178 385 l 178 231 q 208 203 178 203 l 281 203 l 281 0 l 26 0 l 21 201 l 100 201 q 122 211 119 201 q 125 233 125 220 l 125 823 m 363 1042 l 360 933 q 259 798 360 846 l 235 838 q 307 909 298 858 l 230 909 l 226 1042 l 363 1042 z "},"":{"ha":536,"x_min":28,"x_max":511,"o":"m 131 235 q 144 260 144 235 l 144 800 q 140 811 144 810 q 122 812 136 812 l 32 812 l 28 1042 l 309 1040 l 306 814 l 214 814 q 198 806 199 814 q 196 791 196 799 l 193 361 l 192 268 q 201 240 192 246 q 225 235 210 235 l 283 235 l 372 237 q 428 237 372 237 q 464 273 464 237 l 462 351 q 460 418 460 381 l 509 418 l 507 0 l 37 -3 l 37 235 l 131 235 m 511 576 l 504 437 l 370 435 l 364 576 l 511 576 z "},"":{"ha":412,"x_min":4,"x_max":413,"o":"m 125 823 q 107 839 125 839 l 8 839 l 4 1038 l 182 1042 q 178 311 178 385 l 178 231 q 208 203 178 203 l 281 203 l 281 0 l 26 0 l 21 201 l 100 201 q 122 211 119 201 q 125 233 125 220 l 125 823 m 413 559 l 406 420 l 271 418 l 266 559 l 413 559 z "},"":{"ha":536,"x_min":28,"x_max":509,"o":"m 131 235 q 144 260 144 235 l 144 475 l 49 444 l 32 490 l 144 526 l 144 800 q 140 811 144 810 q 122 812 136 812 l 32 812 l 28 1042 l 309 1040 l 306 814 l 214 814 q 198 806 199 814 q 196 794 196 799 q 196 768 196 789 q 195 711 195 746 q 194 633 195 677 q 193 543 194 589 l 346 593 l 361 547 l 193 492 q 192 361 192 409 l 192 268 q 201 240 192 246 q 225 235 210 235 l 283 235 l 372 237 q 428 237 372 237 q 464 273 464 237 l 462 351 q 460 418 460 381 l 509 418 l 507 0 l 37 -3 l 37 235 l 131 235 z "},"":{"ha":302,"x_min":4,"x_max":281,"o":"m 125 823 q 107 839 125 839 l 8 839 l 4 1038 l 182 1042 q 181 849 182 928 q 180 728 180 770 q 179 557 179 602 l 265 586 l 281 541 l 179 505 q 178 340 178 398 l 178 231 q 208 203 178 203 l 281 203 l 281 0 l 26 0 l 21 201 l 100 201 q 122 211 119 201 q 125 233 125 220 l 125 488 l 35 458 l 18 504 l 125 539 l 125 823 z "},"":{"ha":644,"x_min":37,"x_max":611,"o":"m 73 227 l 121 228 q 146 265 146 228 l 146 799 q 141 813 146 810 q 122 817 137 817 l 40 817 l 40 1042 l 176 1042 q 202 1033 199 1042 q 208 1015 205 1023 l 447 250 l 454 253 q 457 478 456 396 q 458 608 458 560 q 459 694 458 656 q 459 759 459 733 q 460 790 460 785 q 422 821 460 821 l 376 820 q 355 819 365 819 l 346 1039 q 472 1042 449 1042 l 611 1042 l 603 821 q 578 821 590 821 l 542 822 q 510 787 510 822 l 498 8 q 488 -8 498 -8 q 469 8 475 -8 l 215 817 q 205 826 213 827 q 197 817 197 825 l 197 279 q 232 235 197 235 l 302 235 l 311 -1 l 37 1 l 37 227 q 73 227 56 227 m 497 1307 l 328 1104 l 281 1144 l 452 1344 l 497 1307 z "},"":{"ha":629,"x_min":22,"x_max":610,"o":"m 140 441 q 87 486 140 486 l 22 486 l 25 694 l 197 694 l 189 595 q 211 637 189 613 q 251 673 233 662 q 347 699 293 699 q 434 680 401 699 q 486 635 467 661 q 521 536 519 590 q 520 458 522 508 q 518 375 519 408 q 515 314 517 342 q 513 241 513 257 q 516 218 513 225 q 525 207 520 211 q 547 200 534 200 l 610 200 l 607 -1 l 375 0 l 368 201 l 431 201 q 463 235 463 201 l 465 393 q 396 486 465 462 q 334 494 372 494 q 267 486 295 494 q 222 465 239 478 q 191 406 192 444 q 187 334 188 374 q 186 272 186 294 q 186 240 186 250 q 220 200 186 200 l 278 200 l 281 0 l 31 -1 l 29 201 l 102 201 q 136 231 136 201 l 140 441 m 489 981 l 319 778 l 273 818 l 444 1018 l 489 981 z "},"":{"ha":644,"x_min":37,"x_max":611,"o":"m 73 227 l 121 228 q 146 265 146 228 l 146 799 q 141 813 146 810 q 122 817 137 817 l 40 817 l 40 1042 l 176 1042 q 202 1033 199 1042 q 208 1015 205 1023 l 447 250 l 454 253 q 457 478 456 396 q 458 608 458 560 q 459 694 458 656 q 459 759 459 733 q 460 790 460 785 q 422 821 460 821 l 376 820 q 355 819 365 819 l 346 1039 q 472 1042 449 1042 l 611 1042 l 603 821 q 578 821 590 821 l 542 822 q 510 787 510 822 l 498 8 q 488 -8 498 -8 q 469 8 475 -8 l 215 817 q 205 826 213 827 q 197 817 197 825 l 197 279 q 232 235 197 235 l 302 235 l 311 -1 l 37 1 l 37 227 q 73 227 56 227 m 404 -69 l 401 -178 q 300 -313 401 -265 l 276 -273 q 347 -201 338 -253 l 271 -201 l 267 -69 l 404 -69 z "},"":{"ha":629,"x_min":22,"x_max":610,"o":"m 140 441 q 87 486 140 486 l 22 486 l 25 694 l 197 694 l 189 595 q 211 637 189 613 q 251 673 233 662 q 347 699 293 699 q 434 680 401 699 q 486 635 467 661 q 521 536 519 590 q 520 458 522 508 q 518 375 519 408 q 515 314 517 342 q 513 241 513 257 q 516 218 513 225 q 525 207 520 211 q 547 200 534 200 l 610 200 l 607 -1 l 375 0 l 368 201 l 431 201 q 463 235 463 201 l 465 393 q 396 486 465 462 q 334 494 372 494 q 267 486 295 494 q 222 465 239 478 q 191 406 192 444 q 187 334 188 374 q 186 272 186 294 q 186 240 186 250 q 220 200 186 200 l 278 200 l 281 0 l 31 -1 l 29 201 l 102 201 q 136 231 136 201 l 140 441 m 384 -69 l 380 -178 q 279 -313 380 -265 l 256 -273 q 327 -201 318 -253 l 250 -201 l 246 -69 l 384 -69 z "},"":{"ha":644,"x_min":37,"x_max":611,"o":"m 73 227 l 121 228 q 146 265 146 228 l 146 799 q 141 813 146 810 q 122 817 137 817 l 40 817 l 40 1042 l 176 1042 q 202 1033 199 1042 q 208 1015 205 1023 l 447 250 l 454 253 q 457 478 456 396 q 458 608 458 560 q 459 694 458 656 q 459 759 459 733 q 460 790 460 785 q 422 821 460 821 l 376 820 q 355 819 365 819 l 346 1039 q 472 1042 449 1042 l 611 1042 l 603 821 q 578 821 590 821 l 542 822 q 510 787 510 822 l 498 8 q 488 -8 498 -8 q 469 8 475 -8 l 215 817 q 205 826 213 827 q 197 817 197 825 l 197 279 q 232 235 197 235 l 302 235 l 311 -1 l 37 1 l 37 227 q 73 227 56 227 m 330 1104 l 146 1299 l 192 1339 l 334 1186 l 494 1337 l 536 1291 l 330 1104 z "},"":{"ha":629,"x_min":22,"x_max":610,"o":"m 140 441 q 87 486 140 486 l 22 486 l 25 694 l 197 694 l 189 595 q 211 637 189 613 q 251 673 233 662 q 347 699 293 699 q 434 680 401 699 q 486 635 467 661 q 521 536 519 590 q 520 458 522 508 q 518 375 519 408 q 515 314 517 342 q 513 241 513 257 q 516 218 513 225 q 525 207 520 211 q 547 200 534 200 l 610 200 l 607 -1 l 375 0 l 368 201 l 431 201 q 463 235 463 201 l 465 393 q 396 486 465 462 q 334 494 372 494 q 267 486 295 494 q 222 465 239 478 q 191 406 192 444 q 187 334 188 374 q 186 272 186 294 q 186 240 186 250 q 220 200 186 200 l 278 200 l 281 0 l 31 -1 l 29 201 l 102 201 q 136 231 136 201 l 140 441 m 321 778 l 137 972 l 183 1013 l 325 860 l 486 1011 l 528 965 l 321 778 z "},"":{"ha":629,"x_min":22,"x_max":610,"o":"m 140 441 q 87 486 140 486 l 22 486 l 25 694 l 197 694 l 189 595 q 211 637 189 613 q 251 673 233 662 q 347 699 293 699 q 434 680 401 699 q 486 635 467 661 q 521 536 519 590 q 520 458 522 508 q 518 375 519 408 q 515 314 517 342 q 513 241 513 257 q 516 218 513 225 q 525 207 520 211 q 547 200 534 200 l 610 200 l 607 -1 l 375 0 l 368 201 l 431 201 q 463 235 463 201 l 465 393 q 396 486 465 462 q 334 494 372 494 q 267 486 295 494 q 222 465 239 478 q 191 406 192 444 q 187 334 188 374 q 186 272 186 294 q 186 240 186 250 q 220 200 186 200 l 278 200 l 281 0 l 31 -1 l 29 201 l 102 201 q 136 231 136 201 l 140 441 m 161 1042 l 157 933 q 56 798 157 846 l 33 838 q 104 909 95 858 l 27 909 l 23 1042 l 161 1042 z "},"":{"ha":644,"x_min":37,"x_max":611,"o":"m 397 -122 q 449 -61 449 -122 l 449 71 l 215 817 q 205 826 213 827 q 197 817 197 825 l 197 279 q 232 235 197 235 l 302 235 l 311 -1 l 37 1 l 37 227 q 73 227 56 227 l 121 228 q 146 265 146 228 l 146 799 q 141 813 146 810 q 122 817 137 817 l 40 817 l 40 1042 l 176 1042 q 202 1033 199 1042 q 208 1015 205 1023 l 452 239 q 460 790 460 658 q 422 821 460 821 l 376 820 q 355 819 365 819 l 346 1039 q 472 1042 449 1042 l 611 1042 l 603 821 q 578 821 590 821 l 542 822 q 510 787 510 822 l 498 -193 q 429 -321 498 -295 q 385 -329 408 -329 l 352 -328 l 311 -328 q 262 -310 279 -328 q 232 -245 232 -278 l 232 -50 l 281 -50 l 281 -92 q 313 -122 281 -119 q 356 -123 332 -123 q 397 -122 380 -122 z "},"":{"ha":576,"x_min":22,"x_max":521,"o":"m 461 -68 l 465 393 q 396 486 465 462 q 334 494 372 494 q 267 486 295 494 q 222 465 239 478 q 191 406 192 444 q 187 334 188 374 q 186 272 186 294 q 186 240 186 250 q 220 200 186 200 l 278 200 l 281 0 l 31 -1 l 29 201 l 102 201 q 136 231 136 201 l 140 441 q 87 486 140 486 l 22 486 l 25 694 l 197 694 l 189 595 q 211 637 189 613 q 251 673 233 662 q 347 699 293 699 q 434 680 401 699 q 486 635 467 661 q 521 536 519 590 q 511 -138 511 16 q 412 -320 511 -292 q 348 -329 382 -329 q 295 -326 314 -329 q 267 -316 276 -322 q 253 -289 253 -308 l 251 -162 q 249 -52 250 -112 l 298 -52 l 298 -92 q 318 -119 298 -111 q 370 -127 337 -127 q 418 -121 403 -127 q 443 -106 433 -115 q 461 -68 461 -90 z "},"":{"ha":546,"x_min":49,"x_max":494,"o":"m 52 193 l 49 846 l 49 901 q 88 1002 49 964 q 173 1039 126 1039 q 255 1040 219 1040 l 339 1042 l 355 1042 q 460 981 422 1042 q 490 878 490 932 l 494 300 l 494 155 q 403 14 494 49 q 342 3 375 3 l 178 0 q 79 54 115 0 q 52 149 52 96 l 52 193 m 216 229 l 359 232 q 433 283 414 232 q 440 330 440 302 l 440 708 q 338 807 440 807 l 208 807 q 108 747 131 807 q 100 705 100 726 l 100 658 l 102 388 l 102 336 q 139 252 102 279 q 216 229 169 229 m 444 1164 l 104 1162 l 106 1223 l 444 1222 l 444 1164 z "},"":{"ha":489,"x_min":43,"x_max":446,"o":"m 43 235 l 44 385 q 45 485 45 443 q 46 551 46 528 q 51 596 46 574 q 67 637 56 618 q 100 671 78 656 q 248 701 149 701 q 427 635 389 701 q 446 566 446 601 l 446 195 q 429 80 446 113 q 391 31 412 48 q 248 -8 340 -8 q 67 57 108 -8 q 44 132 45 93 q 43 191 43 170 l 43 235 m 92 414 l 92 277 q 123 209 92 227 q 225 189 157 189 q 323 195 294 189 q 369 210 352 200 q 397 271 397 228 l 397 414 q 367 483 397 462 q 267 505 334 505 q 123 486 155 505 q 92 414 92 467 m 420 838 l 81 836 l 82 897 l 420 896 l 420 838 z "},"":{"ha":546,"x_min":49,"x_max":494,"o":"m 52 193 l 49 846 l 49 901 q 88 1002 49 964 q 173 1039 126 1039 q 255 1040 219 1040 l 339 1042 l 355 1042 q 460 981 422 1042 q 490 878 490 932 l 494 300 l 494 155 q 403 14 494 49 q 342 3 375 3 l 178 0 q 79 54 115 0 q 52 149 52 96 l 52 193 m 216 229 l 359 232 q 433 283 414 232 q 440 330 440 302 l 440 708 q 338 807 440 807 l 208 807 q 108 747 131 807 q 100 705 100 726 l 100 658 l 102 388 l 102 336 q 139 252 102 279 q 216 229 169 229 m 473 1305 q 426 1182 473 1236 q 271 1118 370 1118 q 118 1190 168 1118 q 82 1312 82 1244 l 139 1312 q 202 1190 139 1227 q 271 1175 228 1175 q 341 1190 313 1175 q 385 1226 368 1205 q 416 1305 412 1261 l 473 1305 z "},"":{"ha":489,"x_min":43,"x_max":450,"o":"m 43 235 l 44 385 q 45 485 45 443 q 46 551 46 528 q 51 596 46 574 q 67 637 56 618 q 100 671 78 656 q 248 701 149 701 q 427 635 389 701 q 446 566 446 601 l 446 195 q 429 80 446 113 q 391 31 412 48 q 248 -8 340 -8 q 67 57 108 -8 q 44 132 45 93 q 43 191 43 170 l 43 235 m 92 414 l 92 277 q 123 209 92 227 q 225 189 157 189 q 323 195 294 189 q 369 210 352 200 q 397 271 397 228 l 397 414 q 367 483 397 462 q 267 505 334 505 q 123 486 155 505 q 92 414 92 467 m 450 979 q 403 856 450 909 q 248 791 347 791 q 95 864 145 791 q 59 986 59 918 l 116 986 q 179 864 116 901 q 248 848 205 848 q 318 864 290 848 q 361 900 345 879 q 393 979 389 935 l 450 979 z "},"":{"ha":546,"x_min":49,"x_max":514,"o":"m 52 193 l 49 846 l 49 901 q 88 1002 49 964 q 173 1039 126 1039 q 255 1040 219 1040 l 339 1042 l 355 1042 q 460 981 422 1042 q 490 878 490 932 l 494 300 l 494 155 q 403 14 494 49 q 342 3 375 3 l 178 0 q 79 54 115 0 q 52 149 52 96 l 52 193 m 216 229 l 359 232 q 433 283 414 232 q 440 330 440 302 l 440 708 q 338 807 440 807 l 208 807 q 108 747 131 807 q 100 705 100 726 l 100 658 l 102 388 l 102 336 q 139 252 102 279 q 216 229 169 229 m 347 1307 l 178 1104 l 132 1144 l 303 1344 l 347 1307 m 514 1307 l 345 1104 l 299 1144 l 470 1344 l 514 1307 z "},"":{"ha":489,"x_min":43,"x_max":491,"o":"m 43 235 l 44 385 q 45 485 45 443 q 46 551 46 528 q 51 596 46 574 q 67 637 56 618 q 100 671 78 656 q 248 701 149 701 q 427 635 389 701 q 446 566 446 601 l 446 195 q 429 80 446 113 q 391 31 412 48 q 248 -8 340 -8 q 67 57 108 -8 q 44 132 45 93 q 43 191 43 170 l 43 235 m 92 414 l 92 277 q 123 209 92 227 q 225 189 157 189 q 323 195 294 189 q 369 210 352 200 q 397 271 397 228 l 397 414 q 367 483 397 462 q 267 505 334 505 q 123 486 155 505 q 92 414 92 467 m 324 981 l 155 778 l 109 818 l 280 1018 l 324 981 m 491 981 l 321 778 l 276 818 l 447 1018 l 491 981 z "},"":{"ha":865,"x_min":49,"x_max":823,"o":"m 815 -4 q 654 3 698 3 l 570 3 q 446 0 527 3 l 446 65 q 328 0 412 0 l 178 0 q 79 54 115 0 q 52 149 52 96 l 52 193 l 49 846 l 49 901 q 88 1001 49 963 q 178 1036 125 1036 q 342 1042 330 1042 q 446 965 414 1042 l 446 1039 q 607 1042 549 1042 l 796 1042 l 791 694 l 742 693 l 743 698 l 743 755 q 661 819 743 810 q 602 822 634 822 q 488 771 488 822 l 488 561 l 593 561 q 615 569 604 561 q 626 594 625 578 q 627 626 627 610 l 627 657 q 627 693 627 675 l 676 696 l 681 357 l 632 357 l 632 402 q 631 441 631 421 q 622 492 629 481 q 607 507 614 503 q 581 514 595 514 q 536 513 562 514 q 488 511 510 512 q 487 420 487 463 l 486 346 l 486 290 q 499 247 486 259 q 534 231 517 231 l 726 231 q 775 290 775 231 l 774 345 q 774 375 774 360 l 823 376 l 815 -4 m 216 229 l 359 232 q 433 283 414 232 q 440 330 440 302 l 440 715 q 338 814 440 814 l 208 814 q 108 753 131 814 q 100 711 100 732 l 100 665 l 102 389 l 102 336 q 139 252 102 279 q 216 229 169 229 z "},"":{"ha":851,"x_min":43,"x_max":816,"o":"m 429 619 q 619 705 475 705 q 812 582 791 705 q 815 542 816 561 q 815 502 815 524 q 810 353 815 480 l 447 345 l 447 292 q 618 191 447 191 q 726 205 690 191 q 762 244 762 220 l 762 286 l 808 292 q 803 134 803 191 q 784 49 803 76 q 732 9 764 22 q 582 -12 684 -12 q 421 74 457 -12 q 248 -8 382 -8 q 67 57 108 -8 q 44 132 45 93 q 43 191 43 170 l 43 235 l 44 385 q 45 485 45 443 q 46 551 46 528 q 51 596 46 574 q 67 637 56 618 q 100 671 78 656 q 248 701 149 701 q 429 619 399 701 m 92 414 l 92 277 q 123 209 92 227 q 225 189 157 189 q 323 195 294 189 q 369 210 352 200 q 397 271 397 228 l 397 414 q 367 483 397 462 q 267 505 334 505 q 123 486 155 505 q 92 414 92 467 m 764 406 l 765 443 q 619 509 765 509 q 446 395 446 509 l 764 400 q 764 406 764 401 z "},"":{"ha":602,"x_min":35,"x_max":559,"o":"m 150 793 q 119 814 150 814 l 102 814 q 72 814 88 814 q 35 815 56 814 l 35 1040 q 131 1041 94 1040 q 193 1041 169 1041 l 281 1042 l 315 1042 q 529 874 485 1042 q 541 777 541 830 q 532 689 541 723 q 508 631 523 655 q 475 591 494 606 q 438 567 457 576 q 370 547 406 551 l 370 543 q 424 504 403 534 q 444 431 444 475 l 444 250 q 454 221 444 231 q 478 212 465 212 q 502 224 492 212 q 511 249 511 236 q 511 281 511 249 q 512 321 511 300 q 513 368 512 342 l 559 370 l 559 121 q 522 3 559 33 q 475 -11 505 -11 q 392 77 399 -11 q 390 125 390 101 l 395 425 q 353 513 395 484 q 290 533 323 533 l 220 533 q 207 521 207 533 l 207 500 l 205 286 l 205 261 q 229 233 205 233 l 313 233 l 311 3 l 36 -1 l 36 233 l 123 233 q 153 268 153 233 l 153 294 l 150 766 l 150 793 m 222 815 q 204 793 204 815 q 204 760 204 787 q 203 694 203 733 l 203 632 l 203 596 q 215 583 203 583 l 271 583 l 354 582 q 461 643 428 582 q 473 699 473 665 q 463 754 473 732 q 437 789 452 777 q 380 814 410 814 l 222 815 m 433 1307 l 264 1104 l 218 1144 l 389 1344 l 433 1307 z "},"":{"ha":484,"x_min":21,"x_max":469,"o":"m 139 469 q 118 486 139 486 l 21 486 l 21 694 l 195 693 l 193 586 q 275 663 237 644 q 469 699 349 699 q 469 682 469 696 q 468 646 469 668 q 468 595 468 623 q 466 518 467 567 q 464 385 465 470 l 416 383 q 417 398 416 391 l 418 422 q 406 468 418 454 q 325 496 380 496 q 227 471 268 496 q 191 425 191 449 l 187 220 q 200 201 187 201 l 294 201 l 296 0 l 33 0 l 31 201 l 121 201 q 138 220 138 201 l 138 242 l 139 448 l 139 469 m 414 981 l 244 778 l 198 818 l 369 1018 l 414 981 z "},"":{"ha":602,"x_min":35,"x_max":559,"o":"m 150 793 q 119 814 150 814 l 102 814 q 72 814 88 814 q 35 815 56 814 l 35 1040 q 131 1041 94 1040 q 193 1041 169 1041 l 281 1042 l 315 1042 q 529 874 485 1042 q 541 777 541 830 q 532 689 541 723 q 508 631 523 655 q 475 591 494 606 q 438 567 457 576 q 370 547 406 551 l 370 543 q 424 504 403 534 q 444 431 444 475 l 444 250 q 454 221 444 231 q 478 212 465 212 q 502 224 492 212 q 511 249 511 236 q 511 281 511 249 q 512 321 511 300 q 513 368 512 342 l 559 370 l 559 121 q 522 3 559 33 q 475 -11 505 -11 q 392 77 399 -11 q 390 125 390 101 l 395 425 q 353 513 395 484 q 290 533 323 533 l 220 533 q 207 521 207 533 l 207 500 l 205 286 l 205 261 q 229 233 205 233 l 313 233 l 311 3 l 36 -1 l 36 233 l 123 233 q 153 268 153 233 l 153 294 l 150 766 l 150 793 m 222 815 q 204 793 204 815 q 204 760 204 787 q 203 694 203 733 l 203 632 l 203 596 q 215 583 203 583 l 271 583 l 354 582 q 461 643 428 582 q 473 699 473 665 q 463 754 473 732 q 437 789 452 777 q 380 814 410 814 l 222 815 m 397 -69 l 394 -178 q 293 -313 394 -265 l 269 -273 q 340 -201 332 -253 l 264 -201 l 260 -69 l 397 -69 z "},"":{"ha":484,"x_min":21,"x_max":469,"o":"m 139 469 q 118 486 139 486 l 21 486 l 21 694 l 195 693 l 193 586 q 275 663 237 644 q 469 699 349 699 q 469 682 469 696 q 468 646 469 668 q 468 595 468 623 q 466 518 467 567 q 464 385 465 470 l 416 383 q 417 398 416 391 l 418 422 q 406 468 418 454 q 325 496 380 496 q 227 471 268 496 q 191 425 191 449 l 187 220 q 200 201 187 201 l 294 201 l 296 0 l 33 0 l 31 201 l 121 201 q 138 220 138 201 l 138 242 l 139 448 l 139 469 m 231 -69 l 228 -178 q 127 -313 228 -265 l 103 -273 q 174 -201 165 -253 l 98 -201 l 94 -69 l 231 -69 z "},"":{"ha":602,"x_min":35,"x_max":559,"o":"m 150 793 q 119 814 150 814 l 102 814 q 72 814 88 814 q 35 815 56 814 l 35 1040 q 131 1041 94 1040 q 193 1041 169 1041 l 281 1042 l 315 1042 q 529 874 485 1042 q 541 777 541 830 q 532 689 541 723 q 508 631 523 655 q 475 591 494 606 q 438 567 457 576 q 370 547 406 551 l 370 543 q 424 504 403 534 q 444 431 444 475 l 444 250 q 454 221 444 231 q 478 212 465 212 q 502 224 492 212 q 511 249 511 236 q 511 281 511 249 q 512 321 511 300 q 513 368 512 342 l 559 370 l 559 121 q 522 3 559 33 q 475 -11 505 -11 q 392 77 399 -11 q 390 125 390 101 l 395 425 q 353 513 395 484 q 290 533 323 533 l 220 533 q 207 521 207 533 l 207 500 l 205 286 l 205 261 q 229 233 205 233 l 313 233 l 311 3 l 36 -1 l 36 233 l 123 233 q 153 268 153 233 l 153 294 l 150 766 l 150 793 m 222 815 q 204 793 204 815 q 204 760 204 787 q 203 694 203 733 l 203 632 l 203 596 q 215 583 203 583 l 271 583 l 354 582 q 461 643 428 582 q 473 699 473 665 q 463 754 473 732 q 437 789 452 777 q 380 814 410 814 l 222 815 m 266 1104 l 82 1299 l 128 1339 l 270 1186 l 431 1337 l 473 1291 l 266 1104 z "},"":{"ha":484,"x_min":21,"x_max":469,"o":"m 139 469 q 118 486 139 486 l 21 486 l 21 694 l 195 693 l 193 586 q 275 663 237 644 q 469 699 349 699 q 469 682 469 696 q 468 646 469 668 q 468 595 468 623 q 466 518 467 567 q 464 385 465 470 l 416 383 q 417 398 416 391 l 418 422 q 406 468 418 454 q 325 496 380 496 q 227 471 268 496 q 191 425 191 449 l 187 220 q 200 201 187 201 l 294 201 l 296 0 l 33 0 l 31 201 l 121 201 q 138 220 138 201 l 138 242 l 139 448 l 139 469 m 247 778 l 63 972 l 109 1013 l 251 860 l 412 1011 l 454 965 l 247 778 z "},"":{"ha":529,"x_min":41,"x_max":481,"o":"m 59 749 l 60 886 q 180 1042 60 1025 q 255 1047 215 1047 q 366 1019 320 1047 q 397 991 386 1007 l 403 991 l 403 1042 l 456 1042 l 453 675 l 404 675 l 404 761 q 386 808 404 791 q 334 825 368 825 l 180 825 q 131 808 151 825 q 111 760 111 791 q 110 699 111 729 q 110 641 109 669 q 116 598 111 613 q 132 576 121 584 q 196 564 148 564 l 323 564 q 444 508 399 564 q 481 393 481 460 l 481 170 q 435 35 481 74 q 268 -5 387 -5 q 100 71 151 -5 l 92 71 l 92 0 l 41 0 l 52 431 l 98 429 q 97 370 98 398 q 97 315 97 342 l 97 267 q 107 216 97 227 q 153 200 123 200 l 237 199 l 355 199 q 427 250 419 199 q 429 285 429 265 l 429 386 q 302 505 429 505 l 199 505 q 111 521 136 505 q 58 656 58 555 l 59 749 m 422 1307 l 253 1104 l 207 1144 l 378 1344 l 422 1307 z "},"":{"ha":467,"x_min":41,"x_max":425,"o":"m 228 509 q 93 432 93 509 q 104 385 93 396 q 153 366 123 368 q 216 363 182 363 q 290 360 249 362 q 354 348 331 358 q 393 321 378 338 q 425 235 425 288 l 425 132 q 337 4 425 36 q 260 -7 306 -7 q 183 7 214 -7 q 134 38 152 21 q 98 89 110 60 l 98 0 l 46 0 l 53 285 l 106 285 q 105 265 105 275 q 104 243 104 255 l 104 218 q 190 170 104 173 q 242 168 214 168 q 295 171 271 168 q 338 180 320 174 q 374 235 374 196 q 306 307 374 303 q 239 309 276 309 q 164 311 202 309 q 104 321 126 312 q 68 343 82 330 q 41 411 41 370 l 41 567 q 90 666 41 629 q 192 700 136 700 q 358 621 311 700 l 358 694 l 412 694 l 407 404 l 355 404 l 355 437 q 289 502 355 484 q 228 509 264 509 m 382 981 l 213 778 l 167 818 l 338 1018 l 382 981 z "},"":{"ha":529,"x_min":41,"x_max":481,"o":"m 59 749 l 60 886 q 180 1042 60 1025 q 255 1047 215 1047 q 366 1019 320 1047 q 397 991 386 1007 l 403 991 l 403 1042 l 456 1042 l 453 675 l 404 675 l 404 761 q 386 808 404 791 q 334 825 368 825 l 180 825 q 131 808 151 825 q 111 760 111 791 q 110 699 111 729 q 110 641 109 669 q 116 598 111 613 q 132 576 121 584 q 196 564 148 564 l 323 564 q 444 508 399 564 q 481 393 481 460 l 481 170 q 435 35 481 74 q 268 -5 387 -5 q 100 71 151 -5 l 92 71 l 92 0 l 41 0 l 52 431 l 98 429 q 97 370 98 398 q 97 315 97 342 l 97 267 q 107 216 97 227 q 153 200 123 200 l 237 199 l 355 199 q 427 250 419 199 q 429 285 429 265 l 429 386 q 302 505 429 505 l 199 505 q 111 521 136 505 q 58 656 58 555 l 59 749 m 264 1339 l 447 1144 l 401 1104 l 259 1257 l 98 1105 l 56 1152 l 264 1339 z "},"":{"ha":467,"x_min":16,"x_max":425,"o":"m 228 509 q 93 432 93 509 q 104 385 93 396 q 153 366 123 368 q 216 363 182 363 q 290 360 249 362 q 354 348 331 358 q 393 321 378 338 q 425 235 425 288 l 425 132 q 337 4 425 36 q 260 -7 306 -7 q 183 7 214 -7 q 134 38 152 21 q 98 89 110 60 l 98 0 l 46 0 l 53 285 l 106 285 q 105 265 105 275 q 104 243 104 255 l 104 218 q 190 170 104 173 q 242 168 214 168 q 295 171 271 168 q 338 180 320 174 q 374 235 374 196 q 306 307 374 303 q 239 309 276 309 q 164 311 202 309 q 104 321 126 312 q 68 343 82 330 q 41 411 41 370 l 41 567 q 90 666 41 629 q 192 700 136 700 q 358 621 311 700 l 358 694 l 412 694 l 407 404 l 355 404 l 355 437 q 289 502 355 484 q 228 509 264 509 m 223 1013 l 406 818 l 360 778 l 218 930 l 58 779 l 16 825 l 223 1013 z "},"":{"ha":529,"x_min":41,"x_max":481,"o":"m 59 749 l 60 886 q 180 1042 60 1025 q 255 1047 215 1047 q 366 1019 320 1047 q 397 991 386 1007 l 403 991 l 403 1042 l 456 1042 l 453 675 l 404 675 l 404 761 q 386 808 404 791 q 334 825 368 825 l 180 825 q 131 808 151 825 q 111 760 111 791 q 110 699 111 729 q 110 641 109 669 q 116 598 111 613 q 132 576 121 584 q 196 564 148 564 l 323 564 q 444 508 399 564 q 481 393 481 460 l 481 170 q 437 37 481 75 q 277 -5 390 -4 l 277 -82 q 318 -79 298 -79 q 360 -86 338 -79 q 399 -105 382 -92 q 439 -173 439 -135 q 429 -237 439 -212 q 399 -281 419 -262 q 266 -321 355 -321 q 90 -282 176 -321 l 92 -222 q 262 -265 193 -265 q 383 -191 383 -265 q 317 -133 383 -137 q 287 -132 300 -132 q 222 -138 274 -132 l 221 -1 q 100 71 136 12 l 92 71 l 92 0 l 41 0 l 52 431 l 98 429 q 97 370 98 398 q 97 315 97 342 l 97 267 q 107 216 97 227 q 153 200 123 200 l 237 199 l 355 199 q 427 250 419 199 q 429 285 429 265 l 429 386 q 302 505 429 505 l 199 505 q 111 521 136 505 q 58 656 58 555 l 59 749 z "},"":{"ha":467,"x_min":41,"x_max":425,"o":"m 333 -140 q 325 -137 333 -140 q 300 -133 318 -134 q 270 -132 283 -132 q 205 -138 257 -132 l 204 0 q 123 48 155 12 q 98 87 106 67 l 98 0 l 46 0 l 53 285 l 106 285 q 105 265 105 275 q 104 243 104 255 l 104 218 q 190 170 104 173 q 242 168 214 168 q 295 171 271 168 q 338 180 320 174 q 374 235 374 196 q 306 307 374 303 q 239 309 276 309 q 164 311 202 309 q 104 321 126 312 q 68 343 82 330 q 41 411 41 370 l 41 567 q 90 666 41 629 q 191 700 136 700 q 274 689 245 700 q 321 663 302 677 q 358 621 347 643 l 358 694 l 412 694 l 407 404 l 355 404 l 355 437 q 289 502 355 484 q 228 509 264 509 q 93 432 93 509 q 104 385 93 396 q 153 366 123 368 q 216 363 182 363 q 290 360 249 362 q 354 348 331 358 q 393 321 378 338 q 425 235 425 288 l 425 132 q 337 4 425 36 q 261 -7 306 -7 l 260 -7 l 260 -82 q 301 -79 281 -79 q 343 -86 321 -79 q 382 -105 365 -92 q 422 -173 422 -134 q 413 -237 422 -212 q 382 -281 403 -262 q 250 -321 339 -321 q 74 -282 160 -321 l 75 -222 q 243 -265 176 -265 q 338 -244 310 -265 q 367 -196 367 -222 q 357 -157 367 -169 q 333 -140 347 -145 z "},"":{"ha":529,"x_min":41,"x_max":481,"o":"m 59 749 l 60 886 q 180 1042 60 1025 q 255 1047 215 1047 q 366 1019 320 1047 q 397 991 386 1007 l 403 991 l 403 1042 l 456 1042 l 453 675 l 404 675 l 404 761 q 386 808 404 791 q 334 825 368 825 l 180 825 q 131 808 151 825 q 111 760 111 791 q 110 699 111 729 q 110 641 109 669 q 116 598 111 613 q 132 576 121 584 q 196 564 148 564 l 323 564 q 444 508 399 564 q 481 393 481 460 l 481 170 q 435 35 481 74 q 268 -5 387 -5 q 100 71 151 -5 l 92 71 l 92 0 l 41 0 l 52 431 l 98 429 q 97 370 98 398 q 97 315 97 342 l 97 267 q 107 216 97 227 q 153 200 123 200 l 237 199 l 355 199 q 427 250 419 199 q 429 285 429 265 l 429 386 q 302 505 429 505 l 199 505 q 111 521 136 505 q 58 656 58 555 l 59 749 m 255 1104 l 71 1299 l 117 1339 l 259 1186 l 420 1337 l 462 1291 l 255 1104 z "},"":{"ha":467,"x_min":31,"x_max":425,"o":"m 228 509 q 93 432 93 509 q 104 385 93 396 q 153 366 123 368 q 216 363 182 363 q 290 360 249 362 q 354 348 331 358 q 393 321 378 338 q 425 235 425 288 l 425 132 q 337 4 425 36 q 260 -7 306 -7 q 183 7 214 -7 q 134 38 152 21 q 98 89 110 60 l 98 0 l 46 0 l 53 285 l 106 285 q 105 265 105 275 q 104 243 104 255 l 104 218 q 190 170 104 173 q 242 168 214 168 q 295 171 271 168 q 338 180 320 174 q 374 235 374 196 q 306 307 374 303 q 239 309 276 309 q 164 311 202 309 q 104 321 126 312 q 68 343 82 330 q 41 411 41 370 l 41 567 q 90 666 41 629 q 192 700 136 700 q 358 621 311 700 l 358 694 l 412 694 l 407 404 l 355 404 l 355 437 q 289 502 355 484 q 228 509 264 509 m 215 778 l 31 972 l 77 1013 l 219 860 l 380 1011 l 422 965 l 215 778 z "},"":{"ha":492,"x_min":21,"x_max":471,"o":"m 104 818 q 68 774 68 818 l 68 631 l 21 631 l 21 1038 q 471 1042 196 1042 l 471 652 l 424 653 l 424 782 q 401 821 424 817 q 385 822 393 822 l 282 822 q 269 807 269 822 q 269 782 269 807 l 267 281 l 267 253 q 272 238 267 241 q 290 235 277 235 l 374 235 l 374 0 l 110 0 l 111 232 q 149 233 132 232 l 197 233 q 216 262 216 233 l 216 802 q 201 818 216 818 l 104 818 m 316 -69 l 313 -178 q 212 -313 313 -265 l 188 -273 q 259 -201 250 -253 l 182 -201 l 178 -69 l 316 -69 z "},"":{"ha":412,"x_min":12,"x_max":370,"o":"m 97 710 l 96 777 l 96 812 q 97 842 96 830 l 147 840 l 147 710 q 152 697 147 701 q 170 694 157 694 l 343 694 l 343 486 l 161 486 q 147 465 147 486 l 147 252 q 233 187 147 187 q 319 252 319 187 l 319 335 l 368 335 l 368 221 l 370 139 q 299 4 372 31 q 231 -5 272 -5 q 97 131 97 -5 l 97 465 q 93 483 97 479 q 75 486 90 486 l 12 486 l 14 694 l 75 694 q 94 699 91 694 q 97 710 97 703 m 276 -69 l 273 -178 q 172 -313 273 -265 l 148 -273 q 219 -201 210 -253 l 142 -201 l 138 -69 l 276 -69 z "},"":{"ha":492,"x_min":21,"x_max":471,"o":"m 104 818 q 68 774 68 818 l 68 631 l 21 631 l 21 1038 q 471 1042 196 1042 l 471 652 l 424 653 l 424 782 q 401 821 424 817 q 385 822 393 822 l 282 822 q 269 807 269 822 q 269 782 269 807 l 267 281 l 267 253 q 272 238 267 241 q 290 235 277 235 l 374 235 l 374 0 l 110 0 l 111 232 q 149 233 132 232 l 197 233 q 216 262 216 233 l 216 802 q 201 818 216 818 l 104 818 m 245 1104 l 62 1299 l 108 1339 l 250 1186 l 410 1337 l 452 1291 l 245 1104 z "},"":{"ha":412,"x_min":12,"x_max":370,"o":"m 97 710 l 96 777 l 96 812 q 97 842 96 830 l 147 840 l 147 710 q 152 697 147 701 q 170 694 157 694 l 343 694 l 343 486 l 161 486 q 147 465 147 486 l 147 252 q 233 187 147 187 q 319 252 319 187 l 319 335 l 368 335 l 368 221 l 370 139 q 299 4 372 31 q 231 -5 272 -5 q 97 131 97 -5 l 97 465 q 93 483 97 479 q 75 486 90 486 l 12 486 l 14 694 l 75 694 q 94 699 91 694 q 97 710 97 703 m 364 1006 l 361 897 q 260 762 361 810 l 236 802 q 307 873 298 822 l 231 873 l 227 1006 l 364 1006 z "},"":{"ha":492,"x_min":21,"x_max":471,"o":"m 104 818 q 68 774 68 818 l 68 631 l 21 631 l 21 1038 q 471 1042 196 1042 l 471 652 l 424 653 l 424 782 q 401 821 424 817 q 385 822 393 822 l 282 822 q 269 807 269 822 q 269 731 269 807 q 268 566 269 731 l 407 566 l 407 517 l 267 517 l 267 253 q 272 238 267 241 q 290 235 277 235 l 374 235 l 374 0 l 110 0 l 111 232 q 149 233 132 232 l 197 233 q 216 262 216 233 l 216 517 l 75 517 l 74 566 l 216 566 l 216 802 q 201 818 216 818 l 104 818 z "},"":{"ha":412,"x_min":12,"x_max":370,"o":"m 97 710 l 96 777 l 96 812 q 97 842 96 830 l 147 840 l 147 710 q 152 697 147 701 q 170 694 157 694 l 343 694 l 343 486 l 161 486 q 147 465 147 486 l 147 414 l 314 414 l 314 366 l 147 366 l 147 252 q 233 187 147 187 q 319 252 319 187 l 319 307 l 368 307 l 368 241 q 369 139 368 174 q 364 78 370 104 q 342 33 357 51 q 231 -5 309 -5 q 97 131 97 -5 l 97 366 l 24 366 l 22 414 l 97 414 l 97 465 q 93 483 97 479 q 75 486 90 486 l 12 486 l 14 694 l 75 694 q 94 699 91 694 q 97 710 97 703 z "},"":{"ha":654,"x_min":40,"x_max":614,"o":"m 134 125 l 132 789 q 109 814 132 814 l 40 814 l 41 1039 l 283 1042 l 282 821 q 248 819 263 820 q 204 818 219 818 q 183 794 183 818 l 183 310 q 210 244 183 266 q 256 228 229 228 l 397 228 q 464 274 446 228 q 470 306 470 290 l 470 408 l 469 720 l 469 796 q 442 818 469 818 l 376 818 l 370 1040 l 612 1042 l 614 818 q 585 817 598 817 q 559 817 572 817 l 541 817 q 520 793 520 817 l 524 304 l 524 129 q 508 38 524 60 q 473 8 492 16 q 422 0 453 0 l 237 0 q 134 125 134 0 m 456 1214 l 456 1274 q 455 1319 455 1295 l 510 1319 l 512 1251 q 416 1107 512 1107 q 326 1164 356 1107 q 300 1215 308 1199 q 285 1243 293 1230 q 247 1274 264 1274 q 221 1267 229 1274 q 209 1251 213 1260 q 201 1221 201 1235 l 201 1190 q 201 1157 201 1175 q 202 1118 201 1139 l 145 1116 q 144 1150 144 1133 q 144 1186 144 1167 l 144 1223 q 162 1286 144 1263 q 241 1331 196 1331 q 317 1285 281 1331 q 346 1240 334 1264 q 364 1206 358 1217 q 377 1186 370 1195 q 411 1164 396 1164 q 434 1168 427 1164 q 446 1181 441 1173 q 456 1214 456 1195 z "},"":{"ha":623,"x_min":11,"x_max":572,"o":"m 104 468 q 82 488 104 488 l 17 488 l 11 694 l 245 694 l 245 488 l 193 488 q 163 483 169 488 q 155 454 155 477 l 155 275 q 233 199 155 208 q 296 196 258 196 q 362 206 335 196 q 406 232 390 216 q 431 297 431 257 l 431 457 q 418 483 431 479 q 387 488 406 488 l 361 488 q 343 489 345 488 l 346 694 l 572 690 l 571 488 l 524 488 q 484 461 484 488 l 484 445 l 483 379 l 483 339 q 482 255 482 292 q 490 210 482 218 q 522 201 497 201 l 572 201 l 571 0 l 431 0 l 431 94 l 424 94 q 377 21 414 50 q 281 -7 339 -7 q 193 2 224 -7 q 142 33 161 12 q 103 170 103 73 l 103 201 l 104 441 l 104 468 m 418 888 l 417 947 q 416 993 416 968 l 471 993 l 473 925 q 377 781 473 781 q 288 838 317 781 q 262 888 269 873 q 246 917 254 904 q 208 947 226 947 q 182 941 191 947 q 170 925 174 934 q 162 895 162 909 l 162 864 q 162 831 162 848 q 163 791 163 813 l 106 790 q 105 824 106 807 q 105 860 105 841 l 105 897 q 123 960 105 937 q 202 1004 157 1004 q 278 959 242 1004 q 307 914 295 938 q 325 880 319 890 q 338 860 331 869 q 373 838 357 838 q 395 842 388 838 q 408 854 402 847 q 418 888 418 869 z "},"":{"ha":654,"x_min":40,"x_max":614,"o":"m 134 125 l 132 789 q 109 814 132 814 l 40 814 l 41 1039 l 283 1042 l 282 821 q 248 819 263 820 q 204 818 219 818 q 183 794 183 818 l 183 310 q 210 244 183 266 q 256 228 229 228 l 397 228 q 464 274 446 228 q 470 306 470 290 l 470 408 l 469 720 l 469 796 q 442 818 469 818 l 376 818 l 370 1040 l 612 1042 l 614 818 q 585 817 598 817 q 559 817 572 817 l 541 817 q 520 793 520 817 l 524 304 l 524 129 q 508 38 524 60 q 473 8 492 16 q 422 0 453 0 l 237 0 q 134 125 134 0 m 500 1164 l 161 1162 l 162 1223 l 500 1222 l 500 1164 z "},"":{"ha":623,"x_min":11,"x_max":572,"o":"m 104 468 q 82 488 104 488 l 17 488 l 11 694 l 245 694 l 245 488 l 193 488 q 163 483 169 488 q 155 454 155 477 l 155 275 q 233 199 155 208 q 296 196 258 196 q 362 206 335 196 q 406 232 390 216 q 431 297 431 257 l 431 457 q 418 483 431 479 q 387 488 406 488 l 361 488 q 343 489 345 488 l 346 694 l 572 690 l 571 488 l 524 488 q 484 461 484 488 l 484 445 l 483 379 l 483 339 q 482 255 482 292 q 490 210 482 218 q 522 201 497 201 l 572 201 l 571 0 l 431 0 l 431 94 l 424 94 q 377 21 414 50 q 281 -7 339 -7 q 193 2 224 -7 q 142 33 161 12 q 103 170 103 73 l 103 201 l 104 441 l 104 468 m 460 838 l 121 836 l 123 897 l 460 896 l 460 838 z "},"":{"ha":654,"x_min":40,"x_max":614,"o":"m 134 125 l 132 789 q 109 814 132 814 l 40 814 l 41 1039 l 283 1042 l 282 821 q 248 819 263 820 q 204 818 219 818 q 183 794 183 818 l 183 310 q 210 244 183 266 q 256 228 229 228 l 397 228 q 464 274 446 228 q 470 306 470 290 l 470 408 l 469 720 l 469 796 q 442 818 469 818 l 376 818 l 370 1040 l 612 1042 l 614 818 q 585 817 598 817 q 559 817 572 817 l 541 817 q 520 793 520 817 l 524 304 l 524 129 q 508 38 524 60 q 473 8 492 16 q 422 0 453 0 l 237 0 q 134 125 134 0 m 529 1305 q 482 1182 529 1236 q 328 1118 427 1118 q 174 1190 224 1118 q 138 1312 138 1244 l 195 1312 q 258 1190 195 1227 q 327 1175 284 1175 q 397 1190 370 1175 q 441 1226 425 1205 q 472 1305 468 1261 l 529 1305 z "},"":{"ha":623,"x_min":11,"x_max":572,"o":"m 104 468 q 82 488 104 488 l 17 488 l 11 694 l 245 694 l 245 488 l 193 488 q 163 483 169 488 q 155 454 155 477 l 155 275 q 233 199 155 208 q 296 196 258 196 q 362 206 335 196 q 406 232 390 216 q 431 297 431 257 l 431 457 q 418 483 431 479 q 387 488 406 488 l 361 488 q 343 489 345 488 l 346 694 l 572 690 l 571 488 l 524 488 q 484 461 484 488 l 484 445 l 483 379 l 483 339 q 482 255 482 292 q 490 210 482 218 q 522 201 497 201 l 572 201 l 571 0 l 431 0 l 431 94 l 424 94 q 377 21 414 50 q 281 -7 339 -7 q 193 2 224 -7 q 142 33 161 12 q 103 170 103 73 l 103 201 l 104 441 l 104 468 m 489 979 q 442 856 489 909 q 288 791 387 791 q 134 864 184 791 q 98 986 98 918 l 155 986 q 218 864 155 901 q 287 848 244 848 q 357 864 330 848 q 401 900 385 879 q 432 979 428 935 l 489 979 z "},"":{"ha":654,"x_min":40,"x_max":614,"o":"m 134 125 l 132 789 q 109 814 132 814 l 40 814 l 41 1039 l 283 1042 l 282 821 q 248 819 263 820 q 204 818 219 818 q 183 794 183 818 l 183 310 q 210 244 183 266 q 256 228 229 228 l 397 228 q 464 274 446 228 q 470 306 470 290 l 470 408 l 469 720 l 469 796 q 442 818 469 818 l 376 818 l 370 1040 l 612 1042 l 614 818 q 585 817 598 817 q 559 817 572 817 l 541 817 q 520 793 520 817 l 524 304 l 524 129 q 508 38 524 60 q 473 8 492 16 q 422 0 453 0 l 237 0 q 134 125 134 0 m 326 1076 q 265 1088 292 1076 q 221 1120 239 1101 q 188 1215 186 1159 q 224 1306 188 1268 q 326 1347 262 1347 q 428 1305 389 1347 q 464 1215 464 1267 q 429 1122 464 1164 q 326 1076 390 1076 m 260 1166 q 268 1157 260 1166 q 291 1142 275 1149 q 327 1135 306 1135 q 362 1143 347 1135 q 387 1162 377 1151 q 404 1206 404 1184 q 399 1241 404 1227 q 385 1265 395 1254 q 334 1288 363 1288 q 291 1282 306 1288 q 267 1265 277 1276 q 246 1214 248 1246 q 260 1166 245 1183 z "},"":{"ha":623,"x_min":11,"x_max":572,"o":"m 104 468 q 82 488 104 488 l 17 488 l 11 694 l 245 694 l 245 488 l 193 488 q 163 483 169 488 q 155 454 155 477 l 155 275 q 233 199 155 208 q 296 196 258 196 q 362 206 335 196 q 406 232 390 216 q 431 297 431 257 l 431 457 q 418 483 431 479 q 387 488 406 488 l 361 488 q 343 489 345 488 l 346 694 l 572 690 l 571 488 l 524 488 q 484 461 484 488 l 484 445 l 483 379 l 483 339 q 482 255 482 292 q 490 210 482 218 q 522 201 497 201 l 572 201 l 571 0 l 431 0 l 431 94 l 424 94 q 377 21 414 50 q 281 -7 339 -7 q 193 2 224 -7 q 142 33 161 12 q 103 170 103 73 l 103 201 l 104 441 l 104 468 m 287 750 q 227 762 253 750 q 182 793 200 774 q 149 888 148 833 q 185 980 149 942 q 287 1021 223 1021 q 389 979 350 1021 q 425 888 425 941 q 390 796 425 838 q 287 750 351 750 m 221 840 q 229 831 221 840 q 252 816 237 823 q 288 809 267 809 q 323 817 309 809 q 348 836 338 825 q 365 880 365 858 q 360 915 365 901 q 347 939 356 928 q 296 962 324 962 q 253 956 267 962 q 229 939 238 949 q 208 888 209 920 q 221 840 206 857 z "},"":{"ha":654,"x_min":40,"x_max":614,"o":"m 134 125 l 132 789 q 109 814 132 814 l 40 814 l 41 1039 l 283 1042 l 282 821 q 248 819 263 820 q 204 818 219 818 q 183 794 183 818 l 183 310 q 210 244 183 266 q 256 228 229 228 l 397 228 q 464 274 446 228 q 470 306 470 290 l 470 408 l 469 720 l 469 796 q 442 818 469 818 l 376 818 l 370 1040 l 612 1042 l 614 818 q 585 817 598 817 q 559 817 572 817 l 541 817 q 520 793 520 817 l 524 304 l 524 129 q 508 38 524 60 q 473 8 492 16 q 422 0 453 0 l 237 0 q 134 125 134 0 m 410 1307 l 241 1104 l 195 1144 l 366 1344 l 410 1307 m 577 1307 l 408 1104 l 362 1144 l 533 1344 l 577 1307 z "},"":{"ha":623,"x_min":11,"x_max":572,"o":"m 104 468 q 82 488 104 488 l 17 488 l 11 694 l 245 694 l 245 488 l 193 488 q 163 483 169 488 q 155 454 155 477 l 155 275 q 233 199 155 208 q 296 196 258 196 q 362 206 335 196 q 406 232 390 216 q 431 297 431 257 l 431 457 q 418 483 431 479 q 387 488 406 488 l 361 488 q 343 489 345 488 l 346 694 l 572 690 l 571 488 l 524 488 q 484 461 484 488 l 484 445 l 483 379 l 483 339 q 482 255 482 292 q 490 210 482 218 q 522 201 497 201 l 572 201 l 571 0 l 431 0 l 431 94 l 424 94 q 377 21 414 50 q 281 -7 339 -7 q 193 2 224 -7 q 142 33 161 12 q 103 170 103 73 l 103 201 l 104 441 l 104 468 m 363 981 l 195 778 l 149 818 l 319 1018 l 363 981 m 530 981 l 361 778 l 315 818 l 486 1018 l 530 981 z "},"":{"ha":654,"x_min":40,"x_max":614,"o":"m 134 125 l 132 789 q 109 814 132 814 l 40 814 l 41 1039 l 290 1042 l 289 821 q 252 819 269 820 q 204 818 220 818 q 183 794 183 818 l 183 310 q 210 244 183 266 q 256 228 229 228 l 397 228 q 464 274 446 228 q 470 306 470 290 l 470 408 l 469 720 l 469 796 q 442 818 469 818 l 369 818 l 363 1040 l 612 1042 l 614 818 q 585 817 598 817 q 559 817 572 817 l 541 817 q 520 793 520 817 l 524 304 l 524 129 q 508 38 524 60 q 473 8 492 16 q 422 0 453 0 l 370 0 q 277 -76 303 -47 q 227 -176 227 -132 q 319 -248 227 -248 q 455 -195 393 -248 l 456 -258 q 325 -302 403 -302 q 210 -270 248 -302 q 172 -180 172 -237 q 293 0 172 -88 l 237 0 q 134 125 134 0 z "},"":{"ha":623,"x_min":11,"x_max":607,"o":"m 104 468 q 82 488 104 488 l 17 488 l 11 694 l 245 694 l 245 488 l 193 488 q 163 483 169 488 q 155 454 155 477 l 155 275 q 233 199 155 208 q 296 196 258 196 q 362 206 335 196 q 406 232 390 216 q 431 297 431 257 l 431 457 q 418 483 431 479 q 387 488 406 488 l 361 488 q 343 489 345 488 l 346 694 l 572 690 l 571 488 l 524 488 q 484 461 484 488 l 484 445 l 483 379 l 483 339 q 482 255 482 292 q 490 210 482 218 q 522 201 497 201 l 572 201 l 571 0 q 391 -126 431 -47 q 378 -171 378 -151 q 382 -204 378 -191 q 398 -227 387 -217 q 469 -248 422 -248 q 606 -195 543 -248 l 607 -258 q 476 -302 553 -302 q 360 -270 398 -302 q 322 -180 322 -237 q 414 -35 322 -98 q 478 0 442 -16 l 431 0 l 431 94 l 424 94 q 377 21 414 50 q 281 -7 339 -7 q 193 2 224 -7 q 142 33 161 12 q 103 170 103 73 l 103 201 l 104 441 l 104 468 z "},"":{"ha":732,"x_min":21,"x_max":711,"o":"m 106 719 q 103 738 106 719 q 96 780 100 757 q 90 810 92 804 q 81 817 89 817 l 25 817 l 21 1039 l 249 1042 l 250 815 l 153 815 q 143 802 140 815 q 148 778 144 800 q 157 723 151 757 q 171 645 163 688 q 192 527 178 602 q 228 319 205 452 l 359 868 l 406 867 l 494 343 q 571 686 555 614 q 592 779 587 758 q 597 802 597 800 q 587 812 600 812 l 493 812 l 493 1042 l 711 1042 l 710 814 l 665 814 q 648 802 651 814 q 643 777 648 801 q 629 715 637 753 q 610 629 621 677 q 588 529 599 580 q 566 428 576 477 q 546 340 555 379 q 526 251 528 261 q 534 233 522 233 l 610 233 l 611 3 l 406 -4 l 397 235 l 454 235 q 464 253 465 235 q 380 696 463 271 l 374 696 q 299 415 316 481 q 274 317 282 349 q 260 264 265 284 q 254 241 255 243 q 264 233 251 233 l 328 233 l 328 -1 l 96 3 l 96 232 l 179 232 q 186 260 193 232 q 163 389 180 290 q 138 537 146 487 q 121 634 129 587 q 106 719 113 682 m 387 1339 l 570 1144 l 524 1104 l 382 1257 l 221 1105 l 179 1152 l 387 1339 z "},"":{"ha":693,"x_min":21,"x_max":672,"o":"m 395 201 q 403 208 406 201 q 399 219 403 210 q 391 244 396 229 q 379 279 386 260 q 361 331 372 298 q 329 421 349 363 q 321 398 327 415 q 307 358 315 381 q 289 311 298 336 q 273 265 280 286 q 259 229 265 243 q 252 210 254 214 q 261 201 250 201 l 315 201 l 311 1 l 92 -1 l 93 201 l 164 201 q 178 212 178 201 q 150 299 163 254 q 125 382 136 345 q 92 478 98 471 q 69 486 85 486 l 21 486 l 21 693 l 235 694 l 228 486 l 160 486 q 148 482 149 486 q 148 474 146 477 q 152 460 149 470 q 160 433 155 450 q 216 243 178 374 q 278 405 257 349 q 307 481 298 460 q 325 530 323 524 q 330 536 327 536 q 334 533 332 536 q 340 517 336 530 q 353 484 345 504 q 437 248 398 359 q 477 344 463 309 q 500 399 492 379 q 515 435 508 419 q 526 462 522 452 q 530 475 530 472 q 524 485 533 481 q 515 486 521 486 l 458 486 l 454 693 l 672 694 l 665 486 l 607 486 q 588 480 591 486 q 576 453 585 473 q 555 404 567 433 q 529 342 543 375 q 503 280 515 309 q 474 212 477 221 q 473 202 470 203 q 481 201 476 201 l 557 201 l 561 0 l 347 1 l 351 201 l 395 201 m 355 1013 l 538 818 l 492 778 l 350 930 l 189 779 l 147 825 l 355 1013 z "},"":{"ha":629,"x_min":14,"x_max":615,"o":"m 269 283 l 271 401 q 272 517 271 453 q 213 626 235 585 q 178 690 191 667 q 155 733 165 713 q 136 767 144 753 q 122 791 129 781 q 87 815 105 815 l 73 815 q 48 815 62 815 q 16 817 34 816 l 14 1040 l 264 1042 l 258 818 q 186 821 193 821 q 174 817 178 821 q 170 808 169 814 q 177 789 170 801 q 190 767 184 777 q 203 741 195 757 q 222 707 212 726 q 249 655 232 688 q 296 567 266 623 q 345 643 327 614 q 374 687 363 671 q 394 717 385 703 q 409 741 403 731 q 421 760 416 751 q 443 804 443 793 q 415 814 443 814 l 368 814 l 367 1042 l 615 1036 l 607 807 l 541 807 q 488 778 505 807 q 477 761 485 774 q 456 728 469 747 q 322 522 371 598 q 319 378 320 419 q 318 318 319 337 q 318 286 318 299 l 318 268 q 328 244 318 250 q 357 237 338 237 l 443 237 l 435 0 l 147 0 l 143 232 l 228 232 q 269 267 269 232 l 269 283 m 319 1339 l 503 1144 l 456 1104 l 315 1257 l 154 1105 l 112 1152 l 319 1339 z "},"":{"ha":559,"x_min":22,"x_max":541,"o":"m 256 694 l 254 486 l 176 486 q 161 484 168 486 q 155 475 153 481 q 162 456 156 470 q 176 420 168 442 q 197 372 185 399 q 228 297 208 345 q 282 167 247 250 q 361 351 343 307 q 389 417 380 395 q 404 453 398 439 q 412 472 410 467 q 408 481 413 476 q 395 486 403 486 l 334 486 l 330 696 l 541 694 l 541 486 l 490 486 q 477 480 484 486 q 469 470 470 474 q 456 441 467 467 q 428 377 446 416 q 389 286 411 337 q 344 182 367 235 q 298 79 321 130 q 258 -12 276 28 q 218 -104 222 -96 q 217 -117 212 -114 q 222 -118 219 -119 l 293 -118 l 296 -317 l 57 -318 l 56 -121 l 131 -121 q 151 -109 144 -121 l 249 103 l 90 478 q 87 483 89 481 q 75 486 80 486 l 25 486 l 22 694 l 256 694 m 298 1013 l 481 818 l 435 778 l 294 930 l 133 779 l 91 825 l 298 1013 z "},"":{"ha":629,"x_min":14,"x_max":615,"o":"m 269 283 l 271 401 q 272 517 271 453 q 213 626 235 585 q 178 690 191 667 q 155 733 165 713 q 136 767 144 753 q 122 791 129 781 q 87 815 105 815 l 73 815 q 48 815 62 815 q 16 817 34 816 l 14 1040 l 264 1042 l 258 818 q 186 821 193 821 q 174 817 178 821 q 170 808 169 814 q 177 789 170 801 q 190 767 184 777 q 203 741 195 757 q 222 707 212 726 q 249 655 232 688 q 296 567 266 623 q 345 643 327 614 q 374 687 363 671 q 394 717 385 703 q 409 741 403 731 q 421 760 416 751 q 443 804 443 793 q 415 814 443 814 l 368 814 l 367 1042 l 615 1036 l 607 807 l 541 807 q 488 778 505 807 q 477 761 485 774 q 456 728 469 747 q 322 522 371 598 q 319 378 320 419 q 318 318 319 337 q 318 286 318 299 l 318 268 q 328 244 318 250 q 357 237 338 237 l 443 237 l 435 0 l 147 0 l 143 232 l 228 232 q 269 267 269 232 l 269 283 m 261 1255 l 255 1135 l 137 1133 l 133 1255 l 261 1255 m 480 1258 l 480 1133 l 363 1137 l 358 1254 l 480 1258 z "},"":{"ha":542,"x_min":49,"x_max":493,"o":"m 115 781 l 115 730 q 114 699 114 715 l 65 699 l 64 1036 q 146 1037 106 1036 l 404 1042 l 485 1042 l 478 828 l 118 222 l 404 231 q 432 242 421 231 q 443 268 443 254 l 443 296 q 443 326 443 311 q 444 359 444 342 l 493 359 l 492 1 q 397 1 441 1 l 323 0 q 269 0 296 0 q 49 -5 247 0 l 49 208 l 412 819 q 199 815 227 815 l 167 815 q 115 781 115 815 m 452 1307 l 282 1104 l 236 1144 l 407 1344 l 452 1307 z "},"":{"ha":513,"x_min":41,"x_max":471,"o":"m 93 465 l 92 418 q 92 379 92 401 l 45 379 l 49 692 l 460 694 l 456 519 l 154 208 q 157 196 142 196 l 393 201 q 412 206 405 201 q 419 241 419 210 q 422 353 419 271 l 471 351 l 463 1 q 372 1 414 1 l 298 0 q 244 0 271 0 l 125 -2 q 41 -4 85 -3 l 41 163 q 176 299 127 250 q 253 377 225 349 q 303 429 281 406 q 355 485 353 479 q 351 492 357 491 q 335 493 345 493 l 115 489 q 93 465 93 489 m 418 981 l 249 778 l 203 818 l 374 1018 l 418 981 z "},"":{"ha":542,"x_min":49,"x_max":493,"o":"m 115 781 l 115 730 q 114 699 114 715 l 65 699 l 64 1036 q 146 1037 106 1036 l 404 1042 l 485 1042 l 478 828 l 118 222 l 404 231 q 432 242 421 231 q 443 268 443 254 l 443 296 q 443 326 443 311 q 444 359 444 342 l 493 359 l 492 1 q 397 1 441 1 l 323 0 q 269 0 296 0 q 49 -5 247 0 l 49 208 l 412 819 q 199 815 227 815 l 167 815 q 115 781 115 815 m 357 1286 l 349 1147 l 215 1145 l 210 1286 l 357 1286 z "},"":{"ha":513,"x_min":41,"x_max":471,"o":"m 93 465 l 92 418 q 92 379 92 401 l 45 379 l 49 692 l 460 694 l 456 519 l 154 208 q 157 196 142 196 l 393 201 q 412 206 405 201 q 419 241 419 210 q 422 353 419 271 l 471 351 l 463 1 q 372 1 414 1 l 298 0 q 244 0 271 0 l 125 -2 q 41 -4 85 -3 l 41 163 q 176 299 127 250 q 253 377 225 349 q 303 429 281 406 q 355 485 353 479 q 351 492 357 491 q 335 493 345 493 l 115 489 q 93 465 93 489 m 323 960 l 315 821 l 181 819 l 176 960 l 323 960 z "},"":{"ha":542,"x_min":49,"x_max":493,"o":"m 115 781 l 115 730 q 114 699 114 715 l 65 699 l 64 1036 q 146 1037 106 1036 l 404 1042 l 485 1042 l 478 828 l 118 222 l 404 231 q 432 242 421 231 q 443 268 443 254 l 443 296 q 443 326 443 311 q 444 359 444 342 l 493 359 l 492 1 q 397 1 441 1 l 323 0 q 269 0 296 0 q 49 -5 247 0 l 49 208 l 412 819 q 199 815 227 815 l 167 815 q 115 781 115 815 m 283 1104 l 100 1299 l 146 1339 l 288 1186 l 448 1337 l 490 1291 l 283 1104 z "},"":{"ha":513,"x_min":41,"x_max":471,"o":"m 93 465 l 92 418 q 92 379 92 401 l 45 379 l 49 692 l 460 694 l 456 519 l 154 208 q 157 196 142 196 l 393 201 q 412 206 405 201 q 419 241 419 210 q 422 353 419 271 l 471 351 l 463 1 q 372 1 414 1 l 298 0 q 244 0 271 0 l 125 -2 q 41 -4 85 -3 l 41 163 q 176 299 127 250 q 253 377 225 349 q 303 429 281 406 q 355 485 353 479 q 351 492 357 491 q 335 493 345 493 l 115 489 q 93 465 93 489 m 251 778 l 67 972 l 113 1013 l 255 860 l 416 1011 l 458 965 l 251 778 z "}}}
